<?xml version="1.0" encoding="UTF-8"?>
<!DOCTYPE svg PUBLIC "-//W3C//DTD SVG 1.1//EN" "http://www.w3.org/Graphics/SVG/1.1/DTD/svg11.dtd">
<svg version="1.1" xmlns="http://www.w3.org/2000/svg" xmlns:xlink="http://www.w3.org/1999/xlink" x="0" y="0" width="1000" height="1000" viewBox="0, 0, 1000, 1000">
  <g id="Layer_1">
    <g>
      <path d="M500,820.47 C323.01,820.47 179.53,676.99 179.53,500 C179.53,323.01 323.01,179.53 500,179.53 C676.99,179.53 820.47,323.01 820.47,500 C820.47,676.99 676.99,820.47 500,820.47 z" fill="#AB1500"/>
      <g>
        <path d="M429.348,735.823 C417.312,735.758 406.869,732.389 396.829,725.863 C392.676,723.164 388.826,719.759 386.166,715.546 C383.264,710.95 382.189,705.808 381.923,700.448 C381.923,684.512 394.842,671.593 410.778,671.593 C426.715,671.593 439.634,684.512 439.634,700.448 C439.655,701.893 439.457,703.324 439.31,704.758 C440.994,707.756 444.244,708.545 447.471,708.62 C460.918,707.794 471.615,639.089 474.122,596.084 C475.077,574.042 474.838,551.968 475.139,529.911 C475.785,482.466 477.347,434.798 484.255,387.784 C490.179,347.464 502.225,292.313 542.728,272.04 C559.999,263.395 581.043,263.125 598.303,271.961 C603.807,274.779 599.487,272.627 602.554,274.424 C607.772,277.482 610.504,279.998 613.9,285.025 C614.867,286.36 615.579,287.853 616.231,289.362 L616.075,289.472 C617.5,292.792 617.987,296.405 618.077,299.988 C618.077,315.924 605.158,328.843 589.222,328.843 C578.869,328.776 568.997,323.15 564.025,313.995 L564.012,313.984 L563.74,313.571 C558.584,304.097 561.187,291.424 554.852,290.756 C543.698,289.58 537.637,318.822 537.637,318.822 C534.079,328.102 531.91,337.902 530.519,347.732 C525.591,382.538 525.447,419.755 524.708,454.77 C523.357,518.771 522.468,581.577 508.737,644.343 C502.43,673.169 490.792,705.195 466.132,723.323 C462.448,726.032 458.408,728.538 454.201,730.384 C447.765,733.208 441.072,734.727 434.134,735.628 z" fill="#FFFFFF"/>
        <path d="M326.902,691.657 L335.257,691.657 Q335.492,689.186 336.904,688.127 Q338.316,687.068 340.787,687.068 Q341.905,687.068 342.875,687.215 Q343.846,687.362 344.582,687.803 Q345.317,688.244 345.758,689.039 Q346.2,689.833 346.2,691.186 Q346.258,692.48 345.435,693.157 Q344.611,693.834 343.199,694.187 Q341.787,694.54 339.963,694.716 Q338.139,694.893 336.257,695.187 Q334.374,695.481 332.521,695.981 Q330.668,696.481 329.226,697.481 Q327.785,698.481 326.873,700.158 Q325.961,701.835 325.961,704.423 Q325.961,706.777 326.755,708.483 Q327.55,710.189 328.962,711.307 Q330.374,712.425 332.256,712.954 Q334.139,713.484 336.316,713.484 Q339.14,713.484 341.846,712.66 Q344.552,711.836 346.553,709.777 Q346.611,710.542 346.758,711.277 Q346.906,712.013 347.141,712.719 L355.613,712.719 Q355.024,711.778 354.789,709.895 Q354.554,708.012 354.554,705.953 L354.554,690.127 Q354.554,687.362 353.318,685.685 Q352.083,684.008 350.141,683.067 Q348.2,682.126 345.847,681.802 Q343.493,681.479 341.199,681.479 Q338.669,681.479 336.169,681.979 Q333.668,682.479 331.668,683.656 Q329.668,684.832 328.373,686.774 Q327.079,688.715 326.902,691.657 z M346.2,697.834 L346.2,700.952 Q346.2,701.658 346.052,702.835 Q345.905,704.012 345.258,705.159 Q344.611,706.306 343.258,707.13 Q341.905,707.953 339.434,707.953 Q338.434,707.953 337.492,707.777 Q336.551,707.6 335.845,707.159 Q335.139,706.718 334.727,705.953 Q334.315,705.188 334.315,704.07 Q334.315,702.894 334.727,702.129 Q335.139,701.364 335.816,700.864 Q336.492,700.364 337.404,700.07 Q338.316,699.776 339.257,699.599 Q340.257,699.423 341.258,699.305 Q342.258,699.187 343.17,699.011 Q344.082,698.834 344.876,698.57 Q345.67,698.305 346.2,697.834 z" fill="#FFFFFF"/>
        <path d="M667.283,300.326 Q667.283,302.209 666.871,303.974 Q666.459,305.739 665.576,307.092 Q664.694,308.445 663.37,309.24 Q662.046,310.034 660.164,310.034 Q658.34,310.034 656.987,309.24 Q655.634,308.445 654.751,307.092 Q653.869,305.739 653.457,303.974 Q653.045,302.209 653.045,300.326 Q653.045,298.385 653.457,296.62 Q653.869,294.855 654.751,293.502 Q655.634,292.149 656.987,291.354 Q658.34,290.56 660.164,290.56 Q662.046,290.56 663.37,291.354 Q664.694,292.149 665.576,293.502 Q666.459,294.855 666.871,296.62 Q667.283,298.385 667.283,300.326 z M644.985,273.499 L644.985,315.505 L652.927,315.505 L652.927,311.622 L653.045,311.622 Q654.398,314.152 657.046,315.211 Q659.693,316.27 663.047,316.27 Q665.341,316.27 667.577,315.329 Q669.812,314.387 671.607,312.446 Q673.401,310.504 674.519,307.475 Q675.637,304.445 675.637,300.268 Q675.637,296.09 674.519,293.061 Q673.401,290.031 671.607,288.089 Q669.812,286.148 667.577,285.206 Q665.341,284.265 663.047,284.265 Q660.223,284.265 657.605,285.353 Q654.987,286.442 653.457,288.795 L653.339,288.795 L653.339,273.499 z" fill="#FFFFFF"/>
      </g>
    </g>
  </g>
</svg>
