<?xml version="1.0" encoding="UTF-8"?>
<!DOCTYPE svg PUBLIC "-//W3C//DTD SVG 1.1//EN" "http://www.w3.org/Graphics/SVG/1.1/DTD/svg11.dtd">
<svg version="1.1" xmlns="http://www.w3.org/2000/svg" xmlns:xlink="http://www.w3.org/1999/xlink" x="0" y="0" width="1000" height="1000" viewBox="0, 0, 1000, 1000">
  <g id="Layer_1">
    <g>
      <g>
        <path d="M613.345,61.616 L981.728,500.368 L386.655,1000 L18.272,561.249 z" fill="#F2F1F0"/>
        <path d="M626.597,307.04 L868.64,595.318" fill-opacity="0" stroke="#AB1500" stroke-width="4"/>
      </g>
      <path d="M865.129,598.265 L623.087,309.988 L630.108,304.093 L872.15,592.37 z" fill="#AB1500"/>
      <g>
        <path d="M429.739,0 L925.967,286.297 L537.666,959.325 L41.438,673.028 z" fill="#F5F4F3"/>
        <path d="M526.132,226.09 L852.174,414.199" fill-opacity="0" stroke="#AB1500" stroke-width="4"/>
      </g>
      <path d="M849.883,418.17 L523.841,230.061 L528.422,222.12 L854.465,410.229 z" fill="#AB1500"/>
      <g>
        <path d="M250.617,4.816 L814.838,104.127 L680.144,869.372 L115.922,770.061 z" fill="#F8F7F6"/>
        <path d="M289.184,53.187 L317.624,58.193 Q324.486,59.401 328.47,62.15 Q332.454,64.899 334.277,68.292 Q336.1,71.684 336.338,75.357 Q336.576,79.029 336.052,82.008 Q335.527,84.988 334.058,88.313 Q332.588,91.638 329.716,94.204 Q326.844,96.77 322.169,97.949 Q317.493,99.127 310.632,97.919 L293.477,94.9 L289.123,119.638 L277.837,117.652 z M295.098,85.691 L311.621,88.599 Q313.517,88.932 315.598,88.74 Q317.68,88.548 319.565,87.623 Q321.45,86.699 322.846,84.85 Q324.241,83.001 324.782,79.931 Q325.338,76.771 324.801,74.536 Q324.263,72.3 322.943,70.811 Q321.623,69.322 319.716,68.521 Q317.809,67.72 315.552,67.323 L298.849,64.383 z M347.96,63.533 L358.253,65.344 L354.042,89.27 L354.222,89.302 Q356.675,86.476 360.795,85.014 Q364.915,83.551 369.52,84.362 Q377.194,85.713 380.919,90.464 Q384.644,95.215 383.246,103.161 L377.604,135.212 L367.311,133.401 L372.476,104.057 Q373.265,98.518 371.535,95.654 Q369.805,92.79 365.201,91.979 Q362.582,91.518 360.339,92.101 Q358.095,92.683 356.357,94.099 Q354.618,95.515 353.408,97.63 Q352.198,99.744 351.753,102.272 L346.906,129.809 L336.614,127.998 z M391.508,89.535 L402.794,91.522 L408.848,128.518 L409.029,128.55 L426.991,95.781 L437.735,97.672 L410.926,143.684 Q409.106,146.622 407.379,149.296 Q405.651,151.971 403.501,153.873 Q401.351,155.775 398.503,156.623 Q395.654,157.472 391.591,156.757 Q387.979,156.121 384.554,154.959 L386.079,146.292 Q387.311,146.695 388.445,147.127 Q389.579,147.56 390.844,147.782 Q392.649,148.1 393.902,147.855 Q395.156,147.61 396.074,146.888 Q396.992,146.165 397.741,145.086 Q398.489,144.008 399.211,142.553 L401.02,139.148 z M445.7,131.746 Q445.357,136.34 448.018,138.67 Q450.68,141 454.833,141.732 Q456.278,141.986 458.169,142.086 Q460.059,142.186 461.796,141.84 Q463.532,141.494 464.785,140.458 Q466.038,139.422 466.297,137.42 Q466.556,135.417 465.424,133.915 Q464.293,132.413 462.306,131.272 Q460.319,130.131 457.706,129.112 Q455.093,128.094 452.405,126.969 Q449.627,125.829 447.123,124.457 Q444.618,123.085 442.767,121.177 Q440.915,119.269 440.072,116.654 Q439.229,114.038 439.849,110.517 Q440.516,106.725 442.82,104.478 Q445.124,102.23 448.246,101.151 Q451.368,100.072 454.956,100.051 Q458.543,100.031 461.703,100.587 Q465.314,101.223 468.475,102.571 Q471.635,103.918 473.997,106.102 Q476.358,108.287 477.634,111.35 Q478.91,114.414 478.678,118.376 L467.934,116.485 Q467.863,112.656 465.422,110.923 Q462.981,109.19 459.55,108.586 Q458.467,108.395 456.945,108.314 Q455.424,108.232 454.027,108.498 Q452.631,108.764 451.561,109.553 Q450.491,110.343 450.221,111.877 Q449.887,113.773 450.99,115.178 Q452.093,116.582 454.079,117.723 Q456.066,118.864 458.679,119.882 Q461.292,120.901 464.07,122.041 Q466.758,123.166 469.308,124.545 Q471.857,125.925 473.709,127.833 Q475.561,129.742 476.457,132.32 Q477.352,134.897 476.749,138.328 Q476.018,142.482 473.613,145.037 Q471.208,147.592 467.866,148.866 Q464.524,150.139 460.679,150.3 Q456.834,150.461 453.222,149.826 Q448.798,149.047 445.226,147.394 Q441.654,145.742 439.258,143.225 Q436.862,140.709 435.814,137.406 Q434.767,134.104 435.407,129.935 z M493.774,89.198 L504.067,91.01 L502.35,100.761 L492.057,98.949 z M490.643,106.984 L500.936,108.796 L492.72,155.474 L482.427,153.663 z M540.892,131.933 Q541.023,127.488 538.568,124.775 Q536.114,122.062 531.78,121.3 Q529.794,120.95 527.417,121.23 Q525.041,121.51 522.819,123.027 Q520.597,124.544 518.753,127.617 Q516.909,130.69 515.971,136.017 Q515.463,138.906 515.632,141.914 Q515.8,144.923 516.893,147.442 Q517.985,149.962 520.086,151.774 Q522.187,153.587 525.528,154.175 Q530.042,154.969 533.469,152.687 Q536.896,150.405 538.508,145.476 L548.801,147.287 Q545.752,156.152 539.439,160.021 Q533.126,163.89 524.098,162.301 Q518.59,161.331 514.718,158.741 Q510.845,156.152 508.52,152.438 Q506.195,148.724 505.484,144.038 Q504.773,139.352 505.679,134.205 Q506.601,128.969 508.856,124.618 Q511.111,120.268 514.596,117.391 Q518.081,114.513 522.711,113.327 Q527.342,112.141 533.12,113.158 Q537.183,113.873 540.657,115.555 Q544.131,117.237 546.609,119.814 Q549.088,122.391 550.337,125.869 Q551.587,129.347 551.185,133.744 z M564.518,152.66 Q564.174,157.254 566.836,159.584 Q569.498,161.914 573.651,162.645 Q575.095,162.899 576.986,162.999 Q578.877,163.1 580.613,162.754 Q582.35,162.408 583.602,161.372 Q584.855,160.335 585.115,158.333 Q585.374,156.331 584.242,154.829 Q583.11,153.326 581.124,152.185 Q579.137,151.044 576.524,150.026 Q573.91,149.007 571.223,147.883 Q568.445,146.742 565.94,145.371 Q563.436,143.999 561.584,142.091 Q559.733,140.182 558.89,137.567 Q558.047,134.952 558.667,131.431 Q559.334,127.639 561.638,125.391 Q563.942,123.144 567.064,122.065 Q570.186,120.985 573.773,120.965 Q577.36,120.945 580.521,121.501 Q584.132,122.137 587.292,123.484 Q590.453,124.832 592.814,127.016 Q595.176,129.2 596.452,132.264 Q597.728,135.327 597.496,139.289 L586.752,137.398 Q586.681,133.569 584.24,131.836 Q581.799,130.104 578.368,129.5 Q577.285,129.309 575.763,129.227 Q574.241,129.146 572.845,129.412 Q571.448,129.678 570.379,130.467 Q569.309,131.256 569.039,132.791 Q568.705,134.687 569.808,136.091 Q570.91,137.495 572.897,138.636 Q574.883,139.777 577.497,140.796 Q580.11,141.814 582.888,142.955 Q585.576,144.079 588.125,145.459 Q590.675,146.839 592.526,148.747 Q594.378,150.655 595.274,153.233 Q596.17,155.811 595.566,159.242 Q594.835,163.395 592.431,165.951 Q590.026,168.506 586.684,169.779 Q583.341,171.053 579.496,171.214 Q575.652,171.375 572.04,170.739 Q567.616,169.96 564.044,168.308 Q560.472,166.655 558.076,164.139 Q555.679,161.623 554.632,158.32 Q553.584,155.017 554.225,150.848 z" fill="#000000"/>
        <path d="M359.953,265.531 L402.156,272.96 L400.596,281.827 L368.656,276.205 L365.953,291.559 L395.512,296.762 L394.038,305.137 L364.479,299.934 L361.459,317.095 L393.973,322.818 L392.412,331.686 L349.634,324.156 z M464.731,335.865 L423.349,328.581 L424.823,320.206 L466.205,327.49 z M467.65,319.279 L426.268,311.995 L427.742,303.62 L469.124,310.904 z M502.437,307.287 L511.304,308.848 L510.264,314.759 L510.51,314.803 Q511.852,313.43 513.315,312.334 Q514.778,311.237 516.456,310.601 Q518.134,309.965 520.198,309.778 Q522.263,309.591 524.808,310.039 Q528.667,310.719 531.689,313.028 Q534.711,315.338 535.471,319.196 Q538.43,316.331 541.882,314.992 Q545.335,313.652 550.015,314.476 Q556.748,315.661 559.906,319.603 Q563.063,323.545 561.705,331.263 L556.546,360.575 L547.185,358.928 L551.55,334.131 Q551.998,331.586 552.202,329.463 Q552.406,327.341 551.894,325.684 Q551.381,324.028 549.966,322.933 Q548.55,321.837 545.841,321.36 Q541.078,320.522 538.423,323.102 Q535.768,325.682 534.814,331.101 L530.435,355.98 L521.075,354.332 L525.873,327.072 Q526.654,322.639 525.45,320.099 Q524.246,317.559 519.977,316.808 Q518.17,316.49 516.357,316.932 Q514.544,317.375 513.025,318.547 Q511.507,319.719 510.366,321.634 Q509.224,323.549 508.762,326.177 L504.325,351.384 L494.965,349.736 z M600.026,339.108 Q600.144,335.066 597.912,332.599 Q595.68,330.132 591.739,329.439 Q589.932,329.121 587.771,329.375 Q585.61,329.63 583.59,331.009 Q581.569,332.389 579.892,335.184 Q578.215,337.978 577.362,342.823 Q576.9,345.45 577.053,348.186 Q577.207,350.922 578.2,353.213 Q579.194,355.504 581.104,357.153 Q583.015,358.801 586.053,359.336 Q590.159,360.058 593.275,357.983 Q596.392,355.907 597.858,351.425 L607.218,353.072 Q604.445,361.134 598.704,364.652 Q592.963,368.171 584.752,366.725 Q579.744,365.844 576.222,363.489 Q572.7,361.133 570.586,357.756 Q568.472,354.379 567.825,350.117 Q567.178,345.855 568.002,341.175 Q568.84,336.413 570.891,332.457 Q572.942,328.5 576.111,325.884 Q579.281,323.267 583.492,322.188 Q587.702,321.11 592.957,322.035 Q596.652,322.685 599.811,324.214 Q602.97,325.744 605.224,328.088 Q607.478,330.431 608.615,333.594 Q609.751,336.757 609.386,340.756 z" fill="#000000"/>
        <path d="M638.954,328.571 L614.424,324.253 Q615.261,319.798 617.952,316.833 Q620.643,313.867 624.721,312.045 Q626.691,311.07 628.802,310.198 Q630.913,309.326 632.748,308.221 Q634.583,307.115 635.893,305.679 Q637.204,304.243 637.626,302.148 Q637.798,301.173 637.761,300.029 Q637.724,298.885 637.224,297.819 Q636.724,296.752 635.657,295.903 Q634.589,295.053 632.691,294.719 Q630.946,294.412 629.669,294.902 Q628.393,295.391 627.488,296.475 Q626.583,297.559 625.96,299.143 Q625.337,300.726 624.952,302.616 L619.102,301.586 Q619.626,298.61 620.868,296.209 Q622.111,293.809 624.027,292.242 Q625.943,290.674 628.411,290.024 Q630.88,289.374 633.908,289.907 Q637.192,290.485 639.209,291.951 Q641.226,293.417 642.297,295.299 Q643.368,297.18 643.594,299.204 Q643.819,301.228 643.512,302.973 Q643.133,305.128 642.159,306.755 Q641.184,308.383 639.798,309.647 Q638.412,310.91 636.758,311.889 Q635.104,312.868 633.375,313.675 Q631.646,314.481 629.935,315.185 Q628.224,315.889 626.743,316.634 Q625.263,317.379 624.103,318.259 Q622.943,319.139 622.376,320.257 L639.875,323.337 z" fill="#000000"/>
        <path d="M338.784,426.966 L379.358,433.529 L377.92,442.418 L347.634,437.519 L345.145,452.909 L371.728,457.209 L370.37,465.603 L343.787,461.303 L339.567,487.393 L329.279,485.728 z M441.482,495.348 L400.003,488.639 L401.361,480.244 L442.84,486.953 z M444.171,478.723 L402.692,472.014 L404.05,463.619 L445.529,470.329 z M478.788,466.25 L487.676,467.688 L486.718,473.613 L486.965,473.653 Q488.287,472.262 489.735,471.145 Q491.182,470.028 492.851,469.369 Q494.52,468.71 496.582,468.495 Q498.644,468.279 501.195,468.692 Q505.063,469.318 508.117,471.585 Q511.171,473.853 511.984,477.7 Q514.903,474.794 518.337,473.407 Q521.77,472.02 526.461,472.779 Q533.21,473.871 536.422,477.768 Q539.634,481.666 538.383,489.402 L533.63,518.783 L524.248,517.266 L528.268,492.411 Q528.681,489.86 528.856,487.735 Q529.031,485.609 528.495,483.96 Q527.96,482.311 526.529,481.235 Q525.099,480.159 522.383,479.72 Q517.609,478.948 514.99,481.565 Q512.371,484.181 511.493,489.613 L507.459,514.55 L498.077,513.032 L502.496,485.709 Q503.215,481.265 501.977,478.742 Q500.738,476.219 496.458,475.527 Q494.648,475.234 492.841,475.702 Q491.034,476.169 489.532,477.362 Q488.03,478.555 486.915,480.486 Q485.8,482.417 485.374,485.05 L481.287,510.317 L471.905,508.799 z M580.673,516.681 Q580.394,518.409 580.727,519.223 Q581.059,520.037 582.376,520.25 Q582.788,520.316 583.364,520.41 Q583.94,520.503 584.707,520.458 L583.656,526.96 Q583.135,527.044 582.32,527.124 Q581.505,527.203 580.655,527.234 Q579.806,527.266 578.969,527.215 Q578.133,527.164 577.557,527.071 Q574.676,526.605 572.97,525.147 Q571.263,523.688 571.153,520.715 Q567.916,522.978 563.642,523.553 Q559.369,524.129 555.583,523.517 Q552.702,523.051 550.195,521.843 Q547.688,520.635 545.918,518.786 Q544.148,516.938 543.334,514.399 Q542.52,511.86 543.026,508.733 Q543.665,504.783 545.504,502.547 Q547.344,500.311 549.916,499.291 Q552.488,498.271 555.509,498.126 Q558.531,497.982 561.547,498.132 Q564.178,498.051 566.516,498.218 Q568.853,498.385 570.703,498.177 Q572.552,497.97 573.747,497.107 Q574.942,496.245 575.275,494.187 Q575.568,492.377 574.89,491.085 Q574.212,489.793 573.037,488.969 Q571.861,488.146 570.33,487.687 Q568.8,487.228 567.401,487.002 Q563.451,486.363 560.633,487.596 Q557.815,488.83 556.927,492.233 L547.545,490.715 Q548.457,486.64 550.625,484.204 Q552.793,481.768 555.734,480.554 Q558.675,479.341 562.155,479.228 Q565.636,479.116 569.175,479.688 Q572.302,480.194 575.241,481.345 Q578.18,482.496 580.368,484.37 Q582.556,486.244 583.658,488.829 Q584.76,491.415 584.214,494.789 z M573.208,503.312 Q570.842,504.365 567.668,504.147 Q564.494,503.929 561.273,503.999 Q559.752,504.007 558.28,504.233 Q556.807,504.459 555.611,505.068 Q554.415,505.677 553.591,506.853 Q552.767,508.029 552.475,509.839 Q552.222,511.403 552.954,512.619 Q553.686,513.836 554.862,514.659 Q556.038,515.483 557.52,515.976 Q559.003,516.469 560.237,516.669 Q561.801,516.922 563.678,516.803 Q565.555,516.684 567.32,515.956 Q569.085,515.228 570.401,513.879 Q571.717,512.529 572.076,510.307 z" fill="#000000"/>
        <g>
          <path d="M340.815,416.762 L380.494,423.181" fill-opacity="0" stroke="#000000" stroke-width="1.819" stroke-linecap="round"/>
          <path d="M380.494,423.181 L371.521,410.744" fill-opacity="0" stroke="#000000" stroke-width="1.819" stroke-linecap="round"/>
        </g>
        <g>
          <path d="M550.439,468.315 L590.119,474.734" fill-opacity="0" stroke="#000000" stroke-width="1.819" stroke-linecap="round"/>
          <path d="M590.119,474.734 L581.145,462.297" fill-opacity="0" stroke="#000000" stroke-width="1.819" stroke-linecap="round"/>
        </g>
        <path d="M298.396,613.01 L324.259,617.562 Q330.5,618.661 334.123,621.161 Q337.746,623.661 339.404,626.746 Q341.062,629.831 341.278,633.171 Q341.495,636.51 341.018,639.22 Q340.541,641.93 339.204,644.953 Q337.868,647.977 335.256,650.311 Q332.645,652.645 328.393,653.716 Q324.141,654.788 317.901,653.69 L302.3,650.944 L298.34,673.441 L288.077,671.635 z M303.774,642.569 L318.8,645.214 Q320.524,645.517 322.417,645.342 Q324.31,645.168 326.024,644.327 Q327.739,643.485 329.008,641.804 Q330.277,640.123 330.769,637.331 Q331.275,634.458 330.786,632.425 Q330.297,630.392 329.096,629.037 Q327.896,627.683 326.162,626.955 Q324.428,626.226 322.375,625.865 L307.185,623.191 z M406.211,683.878 L364.829,676.595 L366.303,668.22 L407.686,675.503 z M409.131,667.293 L367.748,660.009 L369.223,651.634 L410.605,658.918 z" fill="#000000"/>
        <path d="M505.201,669.012 L496.333,667.451 L497.345,661.704 L497.181,661.675 Q494.642,665.037 490.747,666.002 Q486.853,666.967 482.829,666.259 Q477.821,665.378 474.396,662.955 Q470.971,660.532 469.042,657.06 Q467.114,653.589 466.612,649.226 Q466.11,644.862 466.948,640.1 Q467.96,634.353 470.257,630.44 Q472.554,626.527 475.617,624.273 Q478.681,622.018 482.23,621.331 Q485.779,620.644 489.228,621.251 Q491.199,621.597 493.186,622.328 Q495.174,623.059 496.918,624.212 Q498.662,625.366 500.039,626.92 Q501.416,628.475 502.18,630.387 L502.344,630.416 L506.159,608.74 L515.52,610.387 z M476.178,642.487 Q475.701,645.196 475.937,647.947 Q476.172,650.697 477.248,653.002 Q478.324,655.308 480.324,656.93 Q482.324,658.552 485.362,659.086 Q488.482,659.636 490.971,658.719 Q493.46,657.803 495.273,655.921 Q497.086,654.039 498.253,651.494 Q499.421,648.948 499.912,646.156 Q501.155,639.095 498.688,634.597 Q496.22,630.1 490.801,629.146 Q487.517,628.568 485.02,629.525 Q482.524,630.483 480.704,632.406 Q478.884,634.329 477.784,636.971 Q476.684,639.613 476.178,642.487 z M521.267,611.399 L531.695,613.234 L534.396,659.929 L534.56,659.958 L554.274,617.208 L564.784,619.058 L568.388,665.912 L568.553,665.941 L587.364,623.033 L597.792,624.868 L571.297,680.646 L560.87,678.81 L557.019,631.913 L556.855,631.884 L536.977,674.605 L526.385,672.741 z" fill="#000000"/>
        <path d="M507.708,774.873 L498.84,773.312 L499.852,767.564 L499.688,767.535 Q497.149,770.898 493.254,771.863 Q489.36,772.828 485.336,772.12 Q480.328,771.239 476.903,768.816 Q473.477,766.393 471.549,762.921 Q469.62,759.45 469.119,755.086 Q468.617,750.723 469.455,745.961 Q470.467,740.213 472.764,736.301 Q475.061,732.388 478.124,730.133 Q481.188,727.879 484.737,727.192 Q488.286,726.504 491.735,727.111 Q493.705,727.458 495.693,728.189 Q497.681,728.92 499.425,730.073 Q501.169,731.227 502.546,732.781 Q503.923,734.336 504.687,736.248 L504.851,736.277 L508.666,714.6 L518.027,716.248 z M478.685,748.347 Q478.208,751.057 478.444,753.807 Q478.679,756.558 479.755,758.863 Q480.83,761.169 482.831,762.791 Q484.831,764.412 487.869,764.947 Q490.989,765.496 493.478,764.58 Q495.967,763.664 497.78,761.782 Q499.592,759.9 500.76,757.354 Q501.928,754.809 502.419,752.017 Q503.662,744.956 501.195,740.458 Q498.727,735.961 493.308,735.007 Q490.024,734.429 487.527,735.386 Q485.031,736.343 483.211,738.266 Q481.391,740.189 480.291,742.832 Q479.191,745.474 478.685,748.347 z M521.091,733.464 L528.153,734.706 L530.393,721.98 L539.753,723.627 L537.513,736.354 L545.97,737.843 L544.742,744.822 L536.284,743.333 L532.296,765.995 Q532.035,767.473 531.971,768.562 Q531.906,769.651 532.228,770.469 Q532.549,771.288 533.387,771.816 Q534.225,772.345 535.785,772.619 Q536.771,772.793 537.763,772.925 Q538.756,773.058 539.784,772.985 L538.513,780.21 Q536.924,780.1 535.417,780.004 Q533.91,779.908 532.35,779.633 Q528.655,778.983 526.52,777.888 Q524.385,776.792 523.351,775.214 Q522.316,773.635 522.226,771.503 Q522.136,769.37 522.516,766.728 L526.924,741.686 L519.863,740.443 z" fill="#000000"/>
        <path d="M597.946,713.605 L444.166,686.489 L445.048,681.487 L598.828,708.602 z" fill="#000000"/>
        <path d="M788.446,254.069 L417.729,188.817 L419.319,179.788 L790.035,245.04 z" fill="#AB1500"/>
      </g>
    </g>
  </g>
</svg>
