<?xml version="1.0" encoding="UTF-8"?>
<!DOCTYPE svg PUBLIC "-//W3C//DTD SVG 1.1//EN" "http://www.w3.org/Graphics/SVG/1.1/DTD/svg11.dtd">
<svg version="1.1" xmlns="http://www.w3.org/2000/svg" xmlns:xlink="http://www.w3.org/1999/xlink" x="0" y="0" width="1000" height="1000" viewBox="0, 0, 1000, 1000">
  <g id="Layer_1">
    <path d="M500,820.47 C323.01,820.47 179.53,676.99 179.53,500 C179.53,323.01 323.01,179.53 500,179.53 C676.99,179.53 820.47,323.01 820.47,500 C820.47,676.99 676.99,820.47 500,820.47 z" fill="#AB1500"/>
    <path d="M723.252,353.102 C727.085,352.985 730.981,351.951 733.799,349.124 C734.516,348.406 735.195,347.491 735.578,346.535 L733.707,346.853 C730.911,347.228 728.247,346.93 725.618,345.996 C722.855,345.014 722.108,344.368 719.184,343.764 C717.463,343.409 716.576,343.518 714.979,343.591 C713.2,343.846 712.657,343.839 710.722,344.669 C707.564,346.024 704.809,348.925 703.581,352.183 C708.869,352.838 714.204,352.972 719.531,353.135 z M690.292,332.408 C690.623,332.392 690.967,332.46 691.285,332.359 C691.977,332.139 692.669,331.868 693.275,331.461 C695.833,329.743 697.604,325.654 698.985,322.912 C701.091,318.733 701.678,315.274 697.124,317.065 C690.245,320.251 683.731,324.189 677.205,328.064 C681.498,328.452 685.038,331.852 690.292,332.408 z M760.079,269.771 L759.777,268.945 C760.12,267.828 760.834,266.97 761.546,266.104 C761.706,268.843 761.635,267.609 761.761,269.806 C760.853,269.991 761.413,269.934 760.079,269.771 z M688.901,206.035 C687.056,203.447 685.095,200.963 683.342,198.294 C682.977,197.738 682.234,196.558 681.962,195.753 C681.892,195.548 681.876,195.32 681.834,195.103 L681.995,194.695 C682.155,194.647 682.314,194.552 682.477,194.552 C682.814,194.553 683.529,194.733 683.87,194.885 C684.203,195.034 684.538,195.177 684.869,195.331 C685.274,195.519 685.685,195.694 686.075,195.909 C687.122,196.487 688.143,197.428 689.11,198.161 L688.906,201.043 z M746.01,740.208 C746.01,740.208 747.503,703.23 749.603,694.986 C751.702,686.741 748.823,675.853 748.823,675.853 C748.823,675.853 738.416,677.466 733.767,686.112 C729.119,694.759 714.769,707.689 714.769,707.689 C714.769,707.689 701.018,745.348 702.758,729.534 C703.11,726.336 702.929,711.377 709.55,703.058 C716.171,694.74 727.127,683.026 727.793,679.859 C728.459,676.691 733.811,662.162 736.607,656.401 C739.404,650.64 746.509,632.305 747.902,611.377 C749.294,590.449 750.281,567.072 749.32,554.932 C748.359,542.792 747.579,495.876 749.287,485.913 C750.995,475.951 751.701,467.883 744.83,466.561 C737.958,465.239 734.251,470.076 722.521,472.132 C710.792,474.187 695.894,469.482 689.827,471.863 C683.759,474.244 666.538,474.984 661.424,470.979 C656.31,466.974 635.597,445.094 645.594,449.706 C655.59,454.318 658.604,465.555 668.713,467.078 C678.823,468.6 694.682,462.858 702.548,465.192 C710.413,467.526 712.827,468.398 707.693,456.889 C702.559,445.38 706.596,450.878 712.259,459.096 C717.921,467.313 715.289,467.909 723.01,467.122 C730.731,466.335 737.476,458.857 743.453,460.863 C749.429,462.868 748.504,460.676 749.359,458.071 C750.214,455.466 736.968,459.361 726.647,449.326 C716.327,439.291 715.116,442.395 712.076,436.838 C709.11,431.598 704.538,427.767 699.304,425.054 C699.273,425.008 699.242,424.961 699.211,424.915 C698.947,424.699 698.683,424.484 698.419,424.269 C695.225,421.987 691.875,419.673 689.637,416.35 C690.118,416.228 690.603,416.128 691.092,416.046 C689.368,415.767 690.235,415.878 688.49,415.712 L688.5,415.474 L688.749,415.301 C686.926,416.326 693.386,415.607 691.815,415.949 L691.092,416.046 C694.96,416.788 698.829,417.118 702.601,418.271 C705.358,420.392 716.99,431.594 718.642,433.427 C720.294,435.261 722.857,423.627 723.779,428.561 C724.702,433.495 724.038,438.151 725.33,440.324 C726.623,442.497 733.632,447.436 735.669,448.26 C737.706,449.084 748.172,450.984 748.172,450.984 L752.98,450.021 C752.98,450.021 753.15,443.639 753.216,437.483 C753.282,431.327 750.411,425.73 752.076,421.116 C753.741,416.502 718.28,408.134 716.599,406.974 C714.918,405.813 708.426,401.139 706.748,402.335 C705.069,403.531 693.287,410.689 699.074,401.998 C704.862,393.308 706.354,394.438 709.741,397.539 C713.128,400.641 717.517,400.163 719.37,402.558 C721.224,404.953 753.534,409.001 753.534,409.001 C753.534,409.001 740.991,397.72 741.557,393.764 C742.123,389.808 728.641,382.864 725.59,382.481 C722.54,382.098 721.712,383.047 714.135,383.372 C706.558,383.697 700.842,383.221 696.378,382.881 C691.914,382.54 689.564,389.489 685.786,390.944 C682.008,392.398 676.064,394.378 670.211,395.958 C665.539,397.532 660.167,398.494 656.262,401.786 L656.246,401.789 L655.32,402.25 C655.167,402.347 654.255,402.926 653.973,403.103 C653.42,403.45 652.945,403.742 652.478,404.019 C651.509,404.592 650.641,405.06 649.851,405.425 L648.808,405.862 L648.712,405.892 C648.632,405.588 648.551,405.284 648.471,404.98 C648.447,404.943 648.423,404.906 648.399,404.868 L650.293,402.92 C653.958,398.712 658.065,395.965 662.811,395.302 C667.557,394.639 672.429,393.073 678.328,389.238 C684.226,385.402 688.018,385.735 689.519,382.844 C691.019,379.954 694.468,378.318 698.842,377.912 C703.215,377.505 709.654,379.597 713.177,378.795 C716.7,377.993 719.419,377.132 719.419,377.132 L728.833,371.797 C728.833,371.797 732.085,360.807 714.393,364.475 C696.702,368.143 701.322,366.205 692.152,364.853 C682.981,363.502 675.556,366.308 671.678,369.467 C664.504,375.089 657.341,380.989 649.346,385.381 C646.464,386.964 642.919,387.668 639.797,388.653 L639.356,387.541 C636.354,390.424 632.601,390.935 628.81,392.646 C627.156,393.393 625.554,394.261 623.978,395.168 C623.35,395.529 622.9,396.224 622.214,396.444 C615.446,398.612 603.483,400.497 595.916,401.45 C591.344,401.976 577.957,402.23 575.3,405.282 C572.642,408.334 562.991,405.056 555.04,408.808 C547.09,412.56 548.968,416.165 538.249,419.85 C527.529,423.535 518.777,423.996 509.099,423.132 C499.422,422.268 484.351,420.705 478.663,422.306 C472.975,423.908 468.703,420.382 460.117,417.654 C451.531,414.927 437.486,411.205 437.486,411.205 C437.486,411.205 429.497,404.5 438.986,405.848 C448.475,407.196 468.689,413.048 471.537,414.442 C474.385,415.836 472.739,411.698 484.08,414.671 C495.42,417.643 507.437,417.786 510.053,418.194 C512.67,418.602 525.207,415.36 528.912,414.892 C532.618,414.424 536.891,415.721 547.022,407.309 C557.153,398.898 560.892,397.418 565.919,397.821 C570.946,398.224 579.103,393.622 582.082,388.558 C585.06,383.493 589.168,383.737 587.01,388.363 C584.852,392.99 582.45,395.624 592.004,393.29 C601.558,390.956 612.514,388.531 616.409,386.942 C620.303,385.353 628.644,378.729 632.59,376.87 C636.536,375.012 645.021,371.717 645.021,371.717 C645.021,371.717 633.082,367.267 627.465,366.064 C621.848,364.861 607.72,364.333 615.267,361.101 C622.814,357.87 620.762,359.81 628.533,361.553 C636.304,363.296 643.049,365.685 646.369,366.285 C649.69,366.885 656.132,365.085 658.638,362.781 C661.143,360.477 667.958,354.48 664.037,352.445 C660.116,350.41 657.291,347.877 649.348,348.474 C641.404,349.072 635.445,347.001 631.318,346.965 C627.192,346.929 617.815,347.584 611.058,345.825 C604.302,344.065 585.326,343.652 581.437,344.419 C577.548,345.186 560.416,344.091 551.319,345.757 C542.221,347.422 529.51,354.067 520.887,355.116 C512.265,356.166 500.423,354.746 497.227,354.999 C494.031,355.252 465.15,359.302 447.741,356.711 C430.332,354.121 415.591,354.425 414.337,354.47 C405.791,354.611 392.438,355.652 385.329,352.495 C378.219,349.338 367.733,348.961 362.001,343.993 C356.269,339.024 345.052,317.735 349.285,320.184 C353.519,322.633 361.615,337.979 366.275,339.556 C370.934,341.133 379.631,342.818 388.564,343.728 C397.497,344.638 405.406,344.978 410.954,345.228 C420.646,345.665 420.172,347.241 428.929,347.403 C437.686,347.564 456.776,347.842 456.776,347.842 C456.776,347.842 488.465,347.038 490.56,347.047 C492.656,347.056 517.028,343.772 522.188,342.706 C527.347,341.641 530.801,341.06 535.04,338.358 C539.279,335.657 551.162,332.266 555.845,330.996 C567.756,327.767 575.186,324.795 566.271,320.337 C554.529,314.466 537.131,303.774 534.056,303.724 C530.982,303.675 521.597,296.929 517.768,289.084 C513.938,281.238 499.259,254.146 508.434,264.198 C517.609,274.249 518.736,284.424 526.666,290.041 C534.595,295.658 543.766,300.328 548.754,300.875 C553.743,301.421 563.921,305.207 565.749,306.535 C567.577,307.863 580.667,314.45 582.576,317.432 C586.207,323.103 588.368,319.894 592.878,326.674 C597.389,333.453 607.361,332.325 614.474,333.118 C621.586,333.912 639.713,331.225 642.673,329.328 C645.632,327.431 676.831,320.247 665.241,314.503 C653.65,308.758 637.766,303.669 645.9,302.586 C654.034,301.504 663.208,305.452 668.059,308.433 C672.909,311.415 685.345,322.157 691.094,313.292 C696.842,304.428 691.719,308.943 703.47,307.274 C715.22,305.604 722.037,305.846 717.475,298.847 C712.912,291.848 700.603,278.883 699.964,273.241 C699.773,271.751 699.415,270.285 698.918,268.876 C692.602,270.023 686.274,271.088 679.975,272.332 C678.489,270.854 676.519,270.251 674.492,270.002 C673.237,269.916 671.847,269.955 669.666,270.083 C668.71,270.14 664.895,270.397 664.144,270.444 C663.133,270.501 662.122,270.56 661.112,270.615 C660.963,270.623 660.809,270.667 660.667,270.632 C660.355,270.555 660.076,270.38 659.77,270.285 C657.232,269.494 654.631,268.919 652.025,268.37 C650.018,267.944 648.19,267.601 646.78,267.394 C645.796,267.249 644.974,267.161 644.177,267.141 C643.208,267.116 642.344,267.167 641.209,267.444 C639.519,267.857 637.911,268.586 636.216,270.223 L635.899,270.576 C630.935,269.117 625.948,267.686 621.117,265.838 C617.506,264.404 607.485,259.118 604.198,260.615 C600.911,262.112 595.183,255.364 587.675,255.28 C580.167,255.196 579.999,259.027 570.469,257.747 C560.94,256.468 554.261,253.262 547.471,248.551 C540.68,243.84 530.2,236.32 525.296,235.341 C520.393,234.362 518.755,229.615 513.578,223.772 C508.402,217.928 499.614,208.998 499.614,208.998 C499.614,208.998 496.599,200.025 503.041,205.069 C509.482,210.112 521.917,223.386 523.422,225.739 C524.927,228.093 525.498,223.906 532.608,231.089 C539.718,238.272 548.552,243.333 550.313,244.754 C552.073,246.175 562.756,248.577 565.702,249.703 C568.647,250.829 571.25,253.686 582.387,250.713 C593.525,247.74 596.933,248.021 600.48,250.429 C604.027,252.837 612.056,252.285 616.451,249.212 C620.846,246.14 623.782,248.035 620.184,251.074 C616.585,254.112 613.668,255.359 621.75,257.306 C629.832,259.253 638.992,261.699 642.562,261.951 C646.132,262.203 655.171,260.01 658.896,260.056 C662.621,260.101 670.327,260.792 670.327,260.792 C670.327,260.792 663.414,252.11 659.776,248.78 C656.138,245.451 645.907,239.196 652.892,239.556 C659.876,239.916 657.518,240.719 662.517,245.392 C667.516,250.065 671.476,254.863 673.675,256.738 C675.873,258.612 681.421,259.733 684.272,258.807 C687.239,257.913 690.052,256.554 692.857,255.23 C690.571,251.462 687.599,248.427 685.986,244.218 C684.784,243.355 685.557,243.859 683.582,242.85 C677.443,240.092 673.927,235.886 670.887,234.159 C667.848,232.433 660.623,229.134 656.382,224.864 C652.141,220.595 638.273,212.445 635.062,211.497 C631.851,210.549 619.642,202.579 612.187,200.253 C604.732,197.927 592.448,198.341 585.611,195.687 C578.774,193.033 570.622,186.961 568.146,185.863 C565.671,184.764 542.539,176.329 530.772,166.976 C519.004,157.623 507.96,151.822 507.012,151.345 C506.063,150.868 495.328,139.919 486.961,139.004 C478.594,138.089 468.259,133.484 464.361,127.883 C460.463,122.282 452.863,117.652 450.769,111.081 C448.674,104.51 449.576,81.835 451.651,85.654 C453.726,89.472 453.083,105.819 455.851,109.073 C458.619,112.326 464.328,117.33 470.548,121.774 C476.767,126.218 485.006,128.908 489.742,129.365 C494.479,129.823 501.522,132.815 505.961,135.123 C510.399,137.431 514.458,147.609 520.871,151.346 C527.284,155.082 541.296,163.164 541.296,163.164 C541.296,163.164 565.103,175.506 566.65,176.376 C568.197,177.245 587.66,184.476 591.941,185.692 C596.221,186.908 599.029,187.835 603.336,187.285 C607.642,186.735 618.282,192.111 621.921,189.59 C625.559,187.068 625.547,177.274 617.118,169.816 C608.689,162.357 597.809,148.937 595.554,147.631 C593.3,146.326 589.27,136.745 589.827,128.514 C590.385,120.283 591.235,91.263 593.68,103.563 C596.125,115.863 592.56,124.958 596,132.984 C599.441,141.009 604.211,148.74 607.667,151.254 C611.124,153.768 624.372,165.245 625.151,167.123 C625.93,169.001 632.152,180.135 632.896,183.285 C633.64,186.435 637.1,189.807 640.743,191.871 C644.386,193.935 642.455,183.605 643.114,178.953 C643.774,174.301 647.854,168.625 647.916,178.319 C647.977,188.014 647.453,192.434 650.82,194.841 C654.187,197.247 658.149,197.618 658.556,205.224 C658.964,212.83 659.483,211.891 664.406,215.487 C671.011,219.443 678.371,222.629 686.065,223.847 C687.705,234.326 686.951,229.505 688.328,238.31 C692.075,241.441 694.862,245.321 696.475,249.973 C698.176,256.334 698.999,261.931 703.569,266.235 C708.139,270.538 711.092,279.065 714.88,282.398 C718.668,285.732 725.108,292.622 726.125,296.594 C727.141,300.566 730.927,297.741 736.309,292.921 C741.692,288.102 741.282,285.017 745.441,280.065 C749.6,275.113 765.478,268.386 757.592,277.164 C749.707,285.942 747.093,290 743.896,293.733 C740.698,297.467 757.365,289.548 758.545,293.667 C759.725,297.786 769.391,296.728 774.94,298.336 C780.49,299.944 804.123,316.502 804.123,316.502 C832.408,366.433 828.037,411.298 833.48,473.245 C840.053,548.057 812.962,625.029 810.17,700.25 L786.844,699.528 L766.469,676.978 C766.469,676.978 763.392,684.5 756.954,706.344 C750.515,728.187 746.01,740.208 746.01,740.208 z" fill="#FFFFFF"/>
    <path d="M443.6,413.144 C443.73,411.532 434.983,412.012 430.472,422.491 C427.338,429.768 430.672,429.323 430.672,429.323 C430.672,429.323 442.166,430.896 443.6,413.144 z" fill="#FFFFFF"/>
    <path d="M358.048,334.752 C358.418,333.178 349.696,332.347 343.672,342.034 C339.487,348.763 342.85,348.82 342.85,348.82 C342.85,348.82 353.98,352.092 358.048,334.752 z" fill="#FFFFFF"/>
    <path d="M515.546,275.276 C516.269,273.829 507.975,271.007 499.877,279.042 C494.252,284.623 497.511,285.455 497.511,285.455 C497.511,285.455 507.586,291.208 515.546,275.276 z" fill="#FFFFFF"/>
    <path d="M607.381,262.182 C608.104,260.736 599.81,257.914 591.712,265.949 C586.087,271.529 589.346,272.361 589.346,272.361 C589.346,272.361 599.421,278.114 607.381,262.182 z" fill="#FFFFFF"/>
    <path d="M501.08,207.246 C502.03,205.937 494.31,201.795 485.005,208.394 C478.542,212.978 481.621,214.333 481.621,214.333 C481.621,214.333 490.617,221.658 501.08,207.246 z" fill="#FFFFFF"/>
    <path d="M662.409,398.382 C662.069,396.801 653.831,399.782 652.532,411.116 C651.629,418.987 654.693,417.6 654.693,417.6 C654.693,417.6 666.153,415.794 662.409,398.382 z" fill="#FFFFFF"/>
    <path d="M648.886,453.933 C648.546,452.352 640.309,455.333 639.009,466.667 C638.106,474.539 641.17,473.151 641.17,473.151 C641.17,473.151 652.63,471.345 648.886,453.933 z" fill="#FFFFFF"/>
    <path d="M585.949,401.929 C586.035,400.314 577.304,401.033 573.081,411.631 C570.148,418.991 573.468,418.455 573.468,418.455 C573.468,418.455 585.001,419.714 585.949,401.929 z" fill="#FFFFFF"/>
    <path d="M506.864,440.459 C506.778,438.845 515.509,439.564 519.732,450.161 C522.666,457.522 519.345,456.985 519.345,456.985 C519.345,456.985 507.812,458.244 506.864,440.459 z" fill="#FFFFFF"/>
    <g opacity="0.6">
      <path d="M431.723,500.564 C432.491,499.831 433.507,500.228 434.82,501.056 C436.765,502.283 438.694,502.179 439.989,501.439 C441.671,500.477 442.987,501.815 442.987,501.815 C444.565,502.402 446.165,502.328 447.637,501.689 C452.386,499.625 455.411,492.751 456.825,488.517 C458.131,484.607 458.998,480.344 458.852,476.141 C458.793,474.419 458.606,472.436 457.782,470.806 C454.784,464.872 448.154,463.461 441.952,463.785 L441.8,463.691 C441.227,462.482 441.389,461.144 441.454,459.893 C441.828,454.505 443.812,455.353 443.812,455.353 C443.812,455.353 442.153,453.293 441.628,453.564 C441.102,453.835 438.537,456.938 438.748,459.199 C438.81,460.301 438.538,461.37 438.403,462.45 C436.939,459.906 434.76,457.404 431.971,456.017 C431.001,455.535 429.948,455.223 428.901,454.95 C427.827,454.67 426.339,454.787 425.286,454.812 C423.525,458.203 428.787,461.483 431.416,462.866 C430.54,462.805 429.661,462.658 428.79,462.684 C426.214,462.76 423.462,463.791 421.914,465.685 C410.472,480.83 425.873,496.61 426.891,498.201 C427.908,499.791 430.955,501.298 431.723,500.564 z" fill="#FFFFFF" opacity="0.2"/>
      <path d="M430.908,513.614 C431.676,512.881 432.693,513.278 434.006,514.106 C435.95,515.333 437.88,515.229 439.174,514.489 C440.856,513.526 442.172,514.864 442.172,514.864 C443.751,515.452 445.351,515.378 446.823,514.738 C451.572,512.675 454.597,505.801 456.011,501.566 C457.316,497.657 458.183,493.394 458.038,489.191 C457.978,487.468 457.792,485.486 456.968,483.855 C453.969,477.922 447.339,476.51 441.138,476.835 L440.985,476.741 C440.413,475.532 440.575,474.193 440.639,472.943 C441.014,467.554 442.998,468.403 442.998,468.403 C442.998,468.403 441.339,466.343 440.813,466.614 C440.288,466.885 437.723,469.988 437.933,472.249 C437.995,473.351 437.724,474.42 437.588,475.5 C436.125,472.956 433.946,470.453 431.156,469.067 C430.187,468.585 429.133,468.273 428.087,468 C427.012,467.719 425.525,467.837 424.471,467.861 C422.711,471.252 427.973,474.533 430.601,475.915 C429.726,475.855 428.847,475.708 427.976,475.734 C425.399,475.81 422.648,476.841 421.099,478.734 C409.658,493.88 425.059,509.659 426.076,511.25 C427.094,512.841 430.141,514.347 430.908,513.614 z" fill="#FFFFFF" opacity="0.3"/>
      <path d="M430.048,527.398 C430.816,526.665 431.833,527.061 433.146,527.89 C435.09,529.116 437.02,529.013 438.314,528.272 C439.996,527.31 441.312,528.648 441.312,528.648 C442.89,529.236 444.491,529.162 445.962,528.522 C450.712,526.458 453.737,519.585 455.151,515.35 C456.456,511.441 457.323,507.178 457.177,502.974 C457.118,501.252 456.931,499.269 456.107,497.639 C453.109,491.705 446.479,490.294 440.277,490.618 L440.125,490.525 C439.552,489.316 439.715,487.977 439.779,486.727 C440.154,481.338 442.138,482.186 442.138,482.186 C442.138,482.186 440.479,480.127 439.953,480.398 C439.428,480.668 436.863,483.771 437.073,486.033 C437.135,487.135 436.863,488.204 436.728,489.283 C435.264,486.74 433.085,484.237 430.296,482.85 C429.327,482.368 428.273,482.057 427.226,481.783 C426.152,481.503 424.664,481.62 423.611,481.645 C421.851,485.036 427.113,488.316 429.741,489.699 C428.866,489.638 427.986,489.492 427.115,489.517 C424.539,489.593 421.787,490.624 420.239,492.518 C408.798,507.663 424.199,523.443 425.216,525.034 C426.233,526.625 429.281,528.131 430.048,527.398 z" fill="#FFFFFF" opacity="0.4"/>
      <path d="M429.09,542.745 C429.858,542.012 430.875,542.409 432.188,543.237 C434.132,544.464 436.062,544.36 437.356,543.62 C439.038,542.658 440.354,543.995 440.354,543.995 C441.932,544.583 443.533,544.509 445.004,543.87 C449.754,541.806 452.779,534.932 454.193,530.698 C455.498,526.788 456.365,522.525 456.22,518.322 C456.16,516.6 455.973,514.617 455.15,512.986 C452.151,507.053 445.521,505.642 439.319,505.966 L439.167,505.872 C438.595,504.663 438.757,503.325 438.821,502.074 C439.196,496.686 441.18,497.534 441.18,497.534 C441.18,497.534 439.521,495.474 438.995,495.745 C438.47,496.016 435.905,499.119 436.115,501.38 C436.177,502.482 435.906,503.551 435.77,504.631 C434.306,502.087 432.127,499.584 429.338,498.198 C428.369,497.716 427.315,497.404 426.268,497.131 C425.194,496.851 423.706,496.968 422.653,496.992 C420.893,500.384 426.155,503.664 428.783,505.046 C427.908,504.986 427.029,504.839 426.158,504.865 C423.581,504.941 420.83,505.972 419.281,507.865 C407.84,523.011 423.241,538.79 424.258,540.381 C425.275,541.972 428.323,543.478 429.09,542.745 z" fill="#FFFFFF" opacity="0.6"/>
    </g>
    <path d="M427.881,562.128 C428.648,561.395 429.665,561.792 430.978,562.62 C432.922,563.847 434.852,563.743 436.147,563.003 C437.828,562.041 439.145,563.378 439.145,563.378 C440.723,563.966 442.323,563.892 443.795,563.253 C448.544,561.189 451.569,554.315 452.983,550.081 C454.288,546.171 455.155,541.908 455.01,537.705 C454.95,535.983 454.764,534 453.94,532.369 C450.942,526.436 444.312,525.025 438.11,525.349 L437.958,525.255 C437.385,524.046 437.547,522.708 437.611,521.457 C437.986,516.069 439.97,516.917 439.97,516.917 C439.97,516.917 438.311,514.857 437.786,515.128 C437.26,515.399 434.695,518.502 434.905,520.763 C434.967,521.865 434.696,522.934 434.561,524.014 C433.097,521.47 430.918,518.967 428.129,517.581 C427.159,517.099 426.106,516.787 425.059,516.514 C423.984,516.234 422.497,516.351 421.443,516.375 C419.683,519.767 424.945,523.047 427.573,524.429 C426.698,524.369 425.819,524.222 424.948,524.248 C422.372,524.324 419.62,525.355 418.072,527.248 C406.63,542.394 422.031,558.173 423.048,559.764 C424.066,561.355 427.113,562.861 427.881,562.128 z" fill="#FFFFFF"/>
    <path d="M426.554,685.263 L426.554,713.823 L432.834,713.823 L432.834,702.023 L444.794,702.023 L444.794,697.143 L432.834,697.143 L432.834,690.543 L446.634,690.543 L446.634,685.263 z" fill="#FFFFFF"/>
    <path d="M434.926,667.143 L428.561,650.171 L433.426,650.171 L433.426,584.757 C433.426,583.929 434.097,583.257 434.926,583.257 C435.754,583.257 436.426,583.929 436.426,584.757 L436.426,650.171 L441.29,650.171 z" fill="#FFFFFF"/>
  </g>
</svg>
