<?xml version="1.0" encoding="UTF-8"?>
<!DOCTYPE svg PUBLIC "-//W3C//DTD SVG 1.1//EN" "http://www.w3.org/Graphics/SVG/1.1/DTD/svg11.dtd">
<svg version="1.1" xmlns="http://www.w3.org/2000/svg" xmlns:xlink="http://www.w3.org/1999/xlink" x="0" y="0" width="1000" height="1000" viewBox="0, 0, 1000, 1000">
  <g id="Layer_1">
    <path d="M500,820.47 C323.01,820.47 179.53,676.99 179.53,500 C179.53,323.01 323.01,179.53 500,179.53 C676.99,179.53 820.47,323.01 820.47,500 C820.47,676.99 676.99,820.47 500,820.47 z" fill="#AB1500"/>
    <path d="M408.396,564.444 L408.396,415.974 C433.973,383.484 466.799,344.055 513.241,352.961 C546.286,359.298 572.014,391.057 591.604,415.974 L591.604,564.444 z" fill="#FFFFFF" opacity="0.32"/>
    <path d="M203.56,564.398 C253.486,563.366 294.474,542.712 330.487,508.9 C360.06,481.134 383.433,447.682 408.396,415.928 L408.396,564.398 z" fill="#FFFFFF" opacity="0.8"/>
    <path d="M591.604,564.398 L591.604,415.928 C624.472,457.507 654.977,503.05 699.596,533.218 C729.447,553.402 760.661,563.274 796.44,564.398 z" fill="#FFFFFF" opacity="0.8"/>
    <g>
      <path d="M397.876,609.48 Q397.876,607.2 398.636,605.3 Q399.396,603.4 400.836,602.02 Q402.276,600.64 404.376,599.88 Q406.476,599.12 409.116,599.12 L420.236,599.12 L420.236,603.4 L415.076,603.4 Q415.836,603.76 416.456,604.42 Q417.076,605.08 417.516,605.9 Q417.956,606.72 418.196,607.64 Q418.436,608.56 418.436,609.48 Q418.436,611.36 417.876,613.3 Q417.316,615.24 416.096,616.8 Q414.876,618.36 412.936,619.36 Q410.996,620.36 408.236,620.36 Q405.756,620.36 403.816,619.5 Q401.876,618.64 400.556,617.18 Q399.236,615.72 398.556,613.74 Q397.876,611.76 397.876,609.48 z M403.556,609.48 Q403.556,612.88 404.856,614.48 Q406.156,616.08 408.236,616.08 Q410.436,616.08 411.596,614.34 Q412.756,612.6 412.756,609.48 Q412.756,607.2 412.256,605.72 Q411.756,604.24 410.596,603.4 L409.316,603.4 Q408.116,603.4 407.056,603.7 Q405.996,604 405.216,604.72 Q404.436,605.44 403.996,606.6 Q403.556,607.76 403.556,609.48 z" fill="#FFFFFF"/>
      <path d="M581.084,609.48 Q581.084,607.2 581.844,605.3 Q582.604,603.4 584.044,602.02 Q585.484,600.64 587.584,599.88 Q589.684,599.12 592.324,599.12 L603.444,599.12 L603.444,603.4 L598.284,603.4 Q599.044,603.76 599.664,604.42 Q600.284,605.08 600.724,605.9 Q601.164,606.72 601.404,607.64 Q601.644,608.56 601.644,609.48 Q601.644,611.36 601.084,613.3 Q600.524,615.24 599.304,616.8 Q598.084,618.36 596.144,619.36 Q594.204,620.36 591.444,620.36 Q588.964,620.36 587.024,619.5 Q585.084,618.64 583.764,617.18 Q582.444,615.72 581.764,613.74 Q581.084,611.76 581.084,609.48 z M586.764,609.48 Q586.764,612.88 588.064,614.48 Q589.364,616.08 591.444,616.08 Q593.644,616.08 594.804,614.34 Q595.964,612.6 595.964,609.48 Q595.964,607.2 595.464,605.72 Q594.964,604.24 593.804,603.4 L592.524,603.4 Q591.324,603.4 590.264,603.7 Q589.204,604 588.424,604.72 Q587.644,605.44 587.204,606.6 Q586.764,607.76 586.764,609.48 z" fill="#FFFFFF"/>
      <path d="M409.457,439.408 L407.336,437.287 L494.801,349.821 L496.923,351.942 z" fill="#830E00" opacity="0.49"/>
      <path d="M409.457,474.899 L407.336,472.777 L524.528,355.585 L526.65,357.706 z" fill="#830E00" opacity="0.49"/>
      <path d="M409.457,512.303 L407.336,510.182 L546.428,371.09 L548.549,373.211 z" fill="#830E00" opacity="0.49"/>
      <path d="M409.457,547.868 L407.336,545.746 L566.832,386.25 L568.954,388.371 z" fill="#830E00" opacity="0.49"/>
      <path d="M428.594,565.505 L426.473,563.383 L583.561,406.296 L585.682,408.417 z" fill="#830E00" opacity="0.49"/>
      <path d="M466.568,565.505 L464.446,563.383 L590.543,437.287 L592.664,439.408 z" fill="#830E00" opacity="0.49"/>
      <path d="M502.058,565.505 L499.937,563.383 L590.543,472.777 L592.664,474.899 z" fill="#830E00" opacity="0.49"/>
      <path d="M539.463,565.505 L537.341,563.383 L590.543,510.182 L592.664,512.303 z" fill="#830E00" opacity="0.49"/>
      <path d="M575.027,565.505 L572.906,563.383 L590.543,545.746 L592.664,547.868 z" fill="#830E00" opacity="0.49"/>
      <path d="M203.593,565.898 L203.528,562.898 C241.161,562.091 273.819,550.458 303.878,528.973 C327.968,511.753 348.834,489.876 374.578,457.159 C374.455,457.314 408.401,413.049 417.77,401.849 C431.795,385.082 443.885,373.191 456.176,364.743 C470.405,354.962 484.73,350.043 499.981,350.234 C515.27,350.043 529.595,354.962 543.824,364.743 C556.115,373.191 568.205,385.082 582.23,401.849 C591.599,413.049 625.545,457.314 625.422,457.159 C651.166,489.876 672.032,511.753 696.122,528.973 C726.181,550.458 758.839,562.091 796.472,562.898 L796.407,565.898 C758.147,565.076 724.911,553.238 694.378,531.413 C670.009,513.994 648.969,491.936 623.065,459.014 C623.152,459.124 589.25,414.916 579.929,403.773 C550.748,368.887 527.476,352.89 499.981,353.234 C472.524,352.89 449.252,368.887 420.071,403.773 C410.75,414.916 376.848,459.124 376.935,459.014 C351.031,491.936 329.991,513.994 305.622,531.413 C275.09,553.238 241.853,565.076 203.593,565.898 z" fill="#FFFFFF"/>
      <path d="M408.396,588.428 C407.568,588.428 406.896,587.757 406.896,586.928 L406.896,577.928 C406.896,577.1 407.568,576.428 408.396,576.428 C409.225,576.428 409.896,577.1 409.896,577.928 L409.896,586.928 C409.896,587.757 409.225,588.428 408.396,588.428 z" fill="#FFFFFF"/>
      <path d="M408.396,570.428 C407.568,570.428 406.896,569.757 406.896,568.928 L406.896,559.928 C406.896,559.1 407.568,558.428 408.396,558.428 C409.225,558.428 409.896,559.1 409.896,559.928 L409.896,568.928 C409.896,569.757 409.225,570.428 408.396,570.428 z" fill="#FFFFFF"/>
      <path d="M408.396,552.428 C407.568,552.428 406.896,551.757 406.896,550.928 L406.896,541.928 C406.896,541.1 407.568,540.428 408.396,540.428 C409.225,540.428 409.896,541.1 409.896,541.928 L409.896,550.928 C409.896,551.757 409.225,552.428 408.396,552.428 z" fill="#FFFFFF"/>
      <path d="M408.396,534.428 C407.568,534.428 406.896,533.757 406.896,532.928 L406.896,523.928 C406.896,523.1 407.568,522.428 408.396,522.428 C409.225,522.428 409.896,523.1 409.896,523.928 L409.896,532.928 C409.896,533.757 409.225,534.428 408.396,534.428 z" fill="#FFFFFF"/>
      <path d="M408.396,516.428 C407.568,516.428 406.896,515.757 406.896,514.928 L406.896,505.928 C406.896,505.1 407.568,504.428 408.396,504.428 C409.225,504.428 409.896,505.1 409.896,505.928 L409.896,514.928 C409.896,515.757 409.225,516.428 408.396,516.428 z" fill="#FFFFFF"/>
      <path d="M408.396,498.428 C407.568,498.428 406.896,497.757 406.896,496.928 L406.896,487.928 C406.896,487.1 407.568,486.428 408.396,486.428 C409.225,486.428 409.896,487.1 409.896,487.928 L409.896,496.928 C409.896,497.757 409.225,498.428 408.396,498.428 z" fill="#FFFFFF"/>
      <path d="M408.396,480.428 C407.568,480.428 406.896,479.757 406.896,478.928 L406.896,469.928 C406.896,469.1 407.568,468.428 408.396,468.428 C409.225,468.428 409.896,469.1 409.896,469.928 L409.896,478.928 C409.896,479.757 409.225,480.428 408.396,480.428 z" fill="#FFFFFF"/>
      <path d="M408.396,462.428 C407.568,462.428 406.896,461.757 406.896,460.928 L406.896,451.928 C406.896,451.1 407.568,450.428 408.396,450.428 C409.225,450.428 409.896,451.1 409.896,451.928 L409.896,460.928 C409.896,461.757 409.225,462.428 408.396,462.428 z" fill="#FFFFFF"/>
      <path d="M408.396,444.428 C407.568,444.428 406.896,443.757 406.896,442.928 L406.896,433.928 C406.896,433.1 407.568,432.428 408.396,432.428 C409.225,432.428 409.896,433.1 409.896,433.928 L409.896,442.928 C409.896,443.757 409.225,444.428 408.396,444.428 z" fill="#FFFFFF"/>
      <path d="M408.396,426.428 C407.568,426.428 406.896,425.757 406.896,424.928 L406.896,415.928 C406.896,415.1 407.568,414.428 408.396,414.428 C409.225,414.428 409.896,415.1 409.896,415.928 L409.896,424.928 C409.896,425.757 409.225,426.428 408.396,426.428 z" fill="#FFFFFF"/>
      <path d="M591.604,588.428 C590.775,588.428 590.104,587.757 590.104,586.928 L590.104,577.928 C590.104,577.1 590.775,576.428 591.604,576.428 C592.432,576.428 593.104,577.1 593.104,577.928 L593.104,586.928 C593.104,587.757 592.432,588.428 591.604,588.428 z" fill="#FFFFFF"/>
      <path d="M591.604,570.428 C590.775,570.428 590.104,569.757 590.104,568.928 L590.104,559.928 C590.104,559.1 590.775,558.428 591.604,558.428 C592.432,558.428 593.104,559.1 593.104,559.928 L593.104,568.928 C593.104,569.757 592.432,570.428 591.604,570.428 z" fill="#FFFFFF"/>
      <path d="M591.604,552.428 C590.775,552.428 590.104,551.757 590.104,550.928 L590.104,541.928 C590.104,541.1 590.775,540.428 591.604,540.428 C592.432,540.428 593.104,541.1 593.104,541.928 L593.104,550.928 C593.104,551.757 592.432,552.428 591.604,552.428 z" fill="#FFFFFF"/>
      <path d="M591.604,534.428 C590.775,534.428 590.104,533.757 590.104,532.928 L590.104,523.928 C590.104,523.1 590.775,522.428 591.604,522.428 C592.432,522.428 593.104,523.1 593.104,523.928 L593.104,532.928 C593.104,533.757 592.432,534.428 591.604,534.428 z" fill="#FFFFFF"/>
      <path d="M591.604,516.428 C590.775,516.428 590.104,515.757 590.104,514.928 L590.104,505.928 C590.104,505.1 590.775,504.428 591.604,504.428 C592.432,504.428 593.104,505.1 593.104,505.928 L593.104,514.928 C593.104,515.757 592.432,516.428 591.604,516.428 z" fill="#FFFFFF"/>
      <path d="M591.604,498.428 C590.775,498.428 590.104,497.757 590.104,496.928 L590.104,487.928 C590.104,487.1 590.775,486.428 591.604,486.428 C592.432,486.428 593.104,487.1 593.104,487.928 L593.104,496.928 C593.104,497.757 592.432,498.428 591.604,498.428 z" fill="#FFFFFF"/>
      <path d="M591.604,480.428 C590.775,480.428 590.104,479.757 590.104,478.928 L590.104,469.928 C590.104,469.1 590.775,468.428 591.604,468.428 C592.432,468.428 593.104,469.1 593.104,469.928 L593.104,478.928 C593.104,479.757 592.432,480.428 591.604,480.428 z" fill="#FFFFFF"/>
      <path d="M591.604,462.428 C590.775,462.428 590.104,461.757 590.104,460.928 L590.104,451.928 C590.104,451.1 590.775,450.428 591.604,450.428 C592.432,450.428 593.104,451.1 593.104,451.928 L593.104,460.928 C593.104,461.757 592.432,462.428 591.604,462.428 z" fill="#FFFFFF"/>
      <path d="M591.604,444.428 C590.775,444.428 590.104,443.757 590.104,442.928 L590.104,433.928 C590.104,433.1 590.775,432.428 591.604,432.428 C592.432,432.428 593.104,433.1 593.104,433.928 L593.104,442.928 C593.104,443.757 592.432,444.428 591.604,444.428 z" fill="#FFFFFF"/>
      <path d="M591.604,426.428 C590.775,426.428 590.104,425.757 590.104,424.928 L590.104,415.928 C590.104,415.1 590.775,414.428 591.604,414.428 C592.432,414.428 593.104,415.1 593.104,415.928 L593.104,424.928 C593.104,425.757 592.432,426.428 591.604,426.428 z" fill="#FFFFFF"/>
    </g>
  </g>
</svg>
