<?xml version="1.0" encoding="utf-8"?>
<!-- Generator: Adobe Illustrator 19.1.0, SVG Export Plug-In . SVG Version: 6.00 Build 0)  -->
<svg version="1.1" id="Layer_1" xmlns="http://www.w3.org/2000/svg" xmlns:xlink="http://www.w3.org/1999/xlink" x="0px" y="0px"
	 viewBox="0 0 100 100" style="enable-background:new 0 0 100 100;" xml:space="preserve">
<style type="text/css">
	.st0{opacity:0.2;fill:url(#SVGID_1_);}
	.st1{opacity:1.000000e-02;fill:#FFFFFF;stroke:#D1D3D4;stroke-miterlimit:10;}
	.st2{fill:#E6E7E8;}
	.st3{fill:#FFFFFF;}
	.st4{fill:#010101;fill-opacity:0;stroke:#E12826;stroke-width:0.3201;stroke-linejoin:bevel;}
	.st5{fill:#E12826;}
	.st6{fill:#010101;fill-opacity:0;stroke:#E12826;stroke-width:0.3201;}
	.st7{fill:url(#SVGID_2_);}
	.st8{fill:#010101;}
	.st9{fill:none;stroke:#A7A9AC;stroke-width:0.5;stroke-miterlimit:10;}
	.st10{fill:#808285;}
	.st11{fill:none;}
	.st12{fill:#939598;}
	.st13{fill:#3B599D;}
	.st14{fill:#41C6F3;}
	.st15{fill:none;stroke:#D92129;stroke-width:0.5;stroke-miterlimit:10;}
	.st16{fill:url(#SVGID_3_);}
	.st17{opacity:0.5;fill:url(#SVGID_4_);}
	.st18{fill:none;stroke:#6D6E71;stroke-width:0.5;stroke-miterlimit:10;}
	.st19{fill:#F1F2F2;}
	.st20{fill:#BCBEC0;}
	.st21{fill:none;stroke:#000000;stroke-miterlimit:10;}
	.st22{fill:#D1D3D4;}
	.st23{fill:none;stroke:#D92129;stroke-width:2;stroke-miterlimit:10;}
	.st24{fill:#F1F2F2;stroke:#939598;stroke-miterlimit:10;}
	.st25{fill:#F2F2F2;}
	.st26{fill:#D2D3D4;}
	.st27{opacity:0.7;}
	.st28{fill:#E12B27;}
	.st29{fill:#E7E7E7;}
	.st30{fill:#A8AAAD;}
	.st31{fill:#8DC63F;}
	.st32{fill:#D92129;}
	.st33{fill:#6D6E71;}
	.st34{fill:#FFFFFF;stroke:#000000;stroke-miterlimit:10;}
	.st35{opacity:0.7;fill:#E12826;}
	.st36{fill:none;stroke:#6D6E71;stroke-width:3;stroke-miterlimit:10;}
	.st37{opacity:0.5;}
	.st38{opacity:0.8;}
	.st39{fill:#F1F2F2;stroke:#000000;stroke-miterlimit:10;}
	.st40{clip-path:url(#SVGID_6_);}
	.st41{fill:none;stroke:#6D6E71;stroke-miterlimit:10;}
	.st42{fill:#F1F2F2;stroke:#6D6E71;stroke-miterlimit:10;}
	.st43{fill:#A7A9AC;}
	.st44{opacity:0.6;}
</style>
<g>
	<g>
		<g>
			<path class="st19" d="M28.3,95.7h62.3c1.4,0,2.5-0.6,2.5-1.3v-4.2l6.2-5.6l-6.2-5.7v-5.2c0-0.7-1.1-1.3-2.5-1.3H28.3
				c-1.4,0-2.5,0.6-2.5,1.3v20.8C25.8,95.1,26.9,95.7,28.3,95.7z"/>
			<path d="M90.6,96.2H28.3c-1.7,0-3-0.8-3-1.8V73.7c0-1,1.3-1.8,3-1.8h62.3c1.7,0,3,0.8,3,1.8v5l6.4,5.9l-6.4,5.9v4
				C93.6,95.5,92.3,96.2,90.6,96.2z M28.3,72.9c-1.2,0-2,0.5-2,0.8v20.8c0,0.3,0.8,0.8,2,0.8h62.3c1.2,0,2-0.5,2-0.8V90l5.9-5.4
				l-5.9-5.5v-5.4c0-0.3-0.8-0.8-2-0.8H28.3z"/>
		</g>
		<g>
			<g>
				<rect x="30.6" y="87.6" class="st30" width="44.7" height="2.9"/>
			</g>
		</g>
		<g>
			<g>
				<rect x="30.6" y="82.7" class="st30" width="57.9" height="2.9"/>
			</g>
		</g>
		<g>
			<g>
				<rect x="30.6" y="77.8" class="st30" width="57.9" height="2.9"/>
			</g>
		</g>
	</g>
	<g>
		<g>
			<path d="M71.7,61.9H9.4c-1.6,0-3-1.1-3-2.4v-9.2L0,44.9l6.4-5.4V28.8c0-1.3,1.3-2.4,3-2.4v1c-1.1,0-2,0.6-2,1.4v11.2l-5.9,5
				l5.9,4.9v9.7c0,0.8,0.9,1.4,2,1.4h62.3c1.1,0,2-0.6,2-1.4V28.8c0-0.8-0.9-1.4-2-1.4h-2.3v-1h2.3c1.6,0,3,1.1,3,2.4v30.7
				C74.7,60.8,73.3,61.9,71.7,61.9z"/>
		</g>
		<g>
			<g>
				<rect x="11.5" y="51.5" class="st30" width="57.9" height="4.3"/>
			</g>
		</g>
		<g>
			<g>
				<rect x="11.5" y="44.3" class="st30" width="57.9" height="4.3"/>
			</g>
		</g>
		<g>
			<path class="st32" d="M27.9,29.6l-3.3,1.3L24,29.2c-0.2-0.6-0.4-1.2-0.5-1.7c-0.1-0.5-0.1-1,0-1.5c0.1-0.5,0.2-1,0.4-1.4
				c0.2-0.5,0.4-1,0.6-1.5l0.8-1.7c0.3-0.6,0.6-1.3,0.7-1.9c0.1-0.6,0-1.4-0.3-2.2c-0.4-1.1-1.1-1.9-2.1-2.2c-1-0.4-2-0.4-3.1,0.1
				c-1.2,0.5-1.9,1.2-2.3,2.2s-0.5,2.1-0.2,3.2l-3.5,0.9c-0.2-1-0.3-2.1-0.2-3c0.1-1,0.4-1.9,0.9-2.7c0.4-0.8,1-1.5,1.8-2.1
				c0.7-0.6,1.6-1.1,2.6-1.5s1.9-0.6,2.9-0.6c1-0.1,1.9,0.1,2.7,0.4s1.6,0.8,2.3,1.4c0.7,0.7,1.2,1.5,1.6,2.5c0.3,0.7,0.5,1.4,0.5,2
				c0.1,0.6,0,1.2-0.1,1.8c-0.1,0.6-0.3,1.1-0.6,1.7s-0.6,1.1-0.9,1.7c-0.3,0.6-0.6,1.1-0.8,1.5c-0.2,0.4-0.3,0.9-0.4,1.2
				c-0.1,0.4-0.1,0.8,0,1.2s0.2,0.9,0.4,1.5L27.9,29.6z M30.7,34.1c0.2,0.6,0.2,1.2,0,1.8s-0.7,1.1-1.4,1.3c-0.6,0.3-1.3,0.2-1.9,0
				c-0.6-0.3-1.1-0.7-1.3-1.3c-0.2-0.6-0.2-1.2,0-1.9c0.3-0.6,0.7-1.1,1.4-1.3c0.7-0.3,1.3-0.3,1.9,0C30,33.1,30.4,33.5,30.7,34.1z"
				/>
		</g>
		<g class="st37">
			<path class="st32" d="M41.4,23.8l-2.1-0.3l0.2-1.1c0.1-0.4,0.2-0.7,0.3-1c0.1-0.3,0.3-0.6,0.5-0.8s0.4-0.4,0.6-0.6
				c0.2-0.2,0.5-0.4,0.8-0.6l0.9-0.6c0.4-0.2,0.7-0.5,1-0.8c0.3-0.3,0.4-0.7,0.5-1.2c0.1-0.7,0-1.3-0.4-1.8
				c-0.4-0.5-0.9-0.8-1.6-0.9c-0.7-0.1-1.4,0-1.9,0.4c-0.5,0.4-0.9,0.9-1,1.6L37,15.4c0.2-0.6,0.5-1.2,0.8-1.6
				c0.4-0.5,0.8-0.8,1.3-1.1c0.5-0.3,1-0.5,1.6-0.6c0.6-0.1,1.2-0.1,1.8,0c0.6,0.1,1.2,0.3,1.7,0.5c0.5,0.3,0.9,0.6,1.3,1
				c0.4,0.4,0.6,0.9,0.8,1.4c0.2,0.5,0.2,1.1,0.1,1.8c-0.1,0.5-0.2,0.9-0.4,1.2c-0.2,0.3-0.4,0.6-0.6,0.9s-0.5,0.5-0.8,0.7
				c-0.3,0.2-0.6,0.4-1,0.6c-0.3,0.2-0.6,0.4-0.9,0.6c-0.2,0.2-0.4,0.3-0.6,0.5c-0.2,0.2-0.3,0.4-0.4,0.6c-0.1,0.2-0.2,0.5-0.2,0.9
				L41.4,23.8z M41.5,27c-0.1,0.4-0.3,0.7-0.6,0.9c-0.3,0.2-0.7,0.3-1.1,0.3c-0.4-0.1-0.7-0.3-1-0.6c-0.2-0.3-0.3-0.7-0.3-1.1
				c0.1-0.4,0.3-0.7,0.6-1c0.3-0.2,0.7-0.3,1.1-0.3c0.4,0.1,0.8,0.3,1,0.6C41.4,26.2,41.5,26.6,41.5,27z"/>
		</g>
		<g class="st38">
			<path class="st32" d="M56.2,34.7l-2.6-0.2l0.1-1.4c0-0.5,0.1-0.9,0.3-1.3c0.1-0.4,0.3-0.7,0.5-1c0.2-0.3,0.4-0.6,0.7-0.9
				c0.3-0.3,0.6-0.5,0.9-0.8l1.1-0.9c0.4-0.3,0.8-0.7,1.1-1.1c0.3-0.4,0.5-0.9,0.5-1.6c0.1-0.9-0.1-1.6-0.7-2.2
				c-0.5-0.6-1.2-0.9-2.1-1c-0.9-0.1-1.7,0.2-2.3,0.7c-0.6,0.6-1,1.3-1.2,2.1l-2.7-0.5c0.2-0.8,0.5-1.5,0.9-2.1
				c0.4-0.6,0.9-1.1,1.5-1.5c0.6-0.4,1.2-0.7,1.9-0.9c0.7-0.2,1.5-0.2,2.3-0.2c0.8,0.1,1.5,0.2,2.2,0.5c0.7,0.3,1.2,0.7,1.7,1.2
				c0.5,0.5,0.9,1.1,1.1,1.7c0.2,0.7,0.3,1.4,0.3,2.3c-0.1,0.6-0.2,1.1-0.3,1.6c-0.2,0.4-0.4,0.8-0.7,1.2c-0.3,0.3-0.6,0.7-0.9,1
				c-0.4,0.3-0.8,0.6-1.2,0.9c-0.4,0.3-0.7,0.5-1,0.8c-0.3,0.2-0.5,0.5-0.7,0.7c-0.2,0.3-0.3,0.5-0.4,0.8c-0.1,0.3-0.2,0.7-0.2,1.2
				L56.2,34.7z M56.6,38.7c0,0.5-0.3,0.9-0.6,1.3c-0.4,0.3-0.9,0.5-1.4,0.5c-0.5,0-1-0.3-1.3-0.7c-0.3-0.4-0.5-0.8-0.4-1.3
				c0-0.5,0.3-0.9,0.6-1.3c0.4-0.3,0.9-0.5,1.4-0.4s1,0.3,1.3,0.6C56.5,37.8,56.6,38.2,56.6,38.7z"/>
		</g>
	</g>
</g>
</svg>
