<?xml version="1.0" encoding="utf-8"?>
<!-- Generator: Adobe Illustrator 19.1.0, SVG Export Plug-In . SVG Version: 6.00 Build 0)  -->
<svg version="1.1" id="Layer_1" xmlns="http://www.w3.org/2000/svg" xmlns:xlink="http://www.w3.org/1999/xlink" x="0px" y="0px"
	 viewBox="0 0 100 100" style="enable-background:new 0 0 100 100;" xml:space="preserve">
<style type="text/css">
	.st0{opacity:0.2;fill:url(#SVGID_1_);}
	.st1{opacity:1.000000e-02;fill:#FFFFFF;stroke:#D1D3D4;stroke-miterlimit:10;}
	.st2{fill:#E6E7E8;}
	.st3{fill:#FFFFFF;}
	.st4{fill:#010101;fill-opacity:0;stroke:#E12826;stroke-width:0.3201;stroke-linejoin:bevel;}
	.st5{fill:#E12826;}
	.st6{fill:#010101;fill-opacity:0;stroke:#E12826;stroke-width:0.3201;}
	.st7{fill:url(#SVGID_2_);}
	.st8{fill:#010101;}
	.st9{fill:none;stroke:#A7A9AC;stroke-width:0.5;stroke-miterlimit:10;}
	.st10{fill:#808285;}
	.st11{fill:none;}
	.st12{fill:#939598;}
	.st13{fill:#3B599D;}
	.st14{fill:#41C6F3;}
	.st15{fill:none;stroke:#D92129;stroke-width:0.5;stroke-miterlimit:10;}
	.st16{fill:url(#SVGID_3_);}
	.st17{opacity:0.5;fill:url(#SVGID_4_);}
	.st18{fill:none;stroke:#6D6E71;stroke-width:0.5;stroke-miterlimit:10;}
	.st19{fill:#F1F2F2;}
	.st20{fill:#BCBEC0;}
	.st21{fill:none;stroke:#000000;stroke-miterlimit:10;}
	.st22{fill:#D1D3D4;}
	.st23{fill:none;stroke:#D92129;stroke-width:2;stroke-miterlimit:10;}
	.st24{fill:#F1F2F2;stroke:#939598;stroke-miterlimit:10;}
	.st25{fill:#F2F2F2;}
	.st26{fill:#D2D3D4;}
	.st27{opacity:0.7;}
	.st28{fill:#E12B27;}
	.st29{fill:#E7E7E7;}
	.st30{fill:#A8AAAD;}
	.st31{fill:#8DC63F;}
	.st32{fill:#D92129;}
	.st33{fill:#6D6E71;}
	.st34{fill:#FFFFFF;stroke:#000000;stroke-miterlimit:10;}
	.st35{opacity:0.7;fill:#E12826;}
	.st36{fill:none;stroke:#6D6E71;stroke-width:3;stroke-miterlimit:10;}
	.st37{opacity:0.5;}
	.st38{opacity:0.8;}
	.st39{fill:#F1F2F2;stroke:#000000;stroke-miterlimit:10;}
	.st40{clip-path:url(#SVGID_6_);}
	.st41{fill:none;stroke:#6D6E71;stroke-miterlimit:10;}
	.st42{fill:#F1F2F2;stroke:#6D6E71;stroke-miterlimit:10;}
	.st43{fill:#A7A9AC;}
	.st44{opacity:0.6;}
</style>
<g>
	<g>
		<g>
			<circle class="st25" cx="53.1" cy="50.4" r="38.2"/>
		</g>
		<g>
			<path class="st26" d="M62.5,12.3C41.4,7.1,20.2,20,15,41s7.7,42.3,28.7,47.5s42.3-7.7,47.5-28.7C96.5,38.7,83.6,17.4,62.5,12.3z
				 M60.2,86.5c-3.8,0.8-7.7,0.9-11.6,0.4c-0.9-0.1-0.9-0.3-0.4-0.9c0.3-0.4,1.2-0.6,0.6-1.3c-0.1-0.1,0.2-0.4,0.2-0.4
				c1.2,0.3,1.7-1.6,3.2-1c0.6,0.2,1.6-0.3,1.2-1.5c-0.2-0.5,0-0.8,0.6-0.5c0.8,0.4,1.4,0.1,2-0.5c1-1.1,2.4-1.8,2.9-3.4
				c0.2-0.8,1.2-0.8,1.9-0.8c1.9,0.1,2.9-1.1,3.4-2.6c0.4-1.4,1.5-2.2,2.4-3c1.4-1.2,1.3-1.4,0.1-2.8c-1.2-1.3-3-1.9-4.5-3
				c-0.6-0.4-0.9-0.8-0.9-1.5c-0.1-1.3-0.6-2.4-2.1-2.6c-0.5-0.1-0.8-0.4-1-0.8c-0.4-0.5-0.7-0.9-0.9-1.5c-0.7-1.5-2.6-0.7-3.6-1.8
				c-0.9-1-2.3-1-3.5-0.1c-0.2,0.2-0.5,0.5-0.8,0.2c-0.6-0.5-0.6-0.2-0.4,0.3c0.4,1.2,0,2-1,2.7c-1.6,1.2-1.9,2.8-1.3,4.6
				c0.3,0.8,0.6,1.6,0.6,2.5c0,1.1,0.5,1.8,1.3,2.5c0.8,0.8,1.1,1.6,0.6,2.8c-1.1,2.8-1.9,5.6-3.5,8.3c-0.6,0.9-1.3,2.3-1,3.9
				c0.2,1-1,1.2-2.1,0.9c-5.2-1.6-9.8-4.2-13.8-7.7c-11.4-10.3-15.4-26-10.1-40.5c2.1-5.6,5.5-10.5,10-14.5c0.4-0.3,0.7-0.8,1.2-0.5
				c0.7,0.4-0.2,0.5-0.1,0.9c0.1,0.7,1.5-0.1,1.2,1c-0.2,0.7,0.4,1.2,0.4,1.8c0,1.6,1.1,3,1.2,4.6c0.1,1.3-0.7,2.5-0.9,3.7
				c-0.2,1.8,0.2,3.5,1.2,4.8c0.9,1.2,1.1,2.5,1.5,3.8c0.4,1.2,1,2.2,1.5,3.2c-0.1-1.4-0.4-2.7-1.1-3.9c-0.4-0.2-0.5-0.6-0.1-0.8
				c0.4-0.1,0.5,0.4,0.5,0.6c0.5,1.9,2.1,3.5,2.3,5.2c0.2,2.5,2.1,3.1,3.5,4.2c0.6,0.5,1.5,0.6,2.3,1.2c1.3,1.1,2.2,2.3,3.2,3.7
				c0.2,0.4,0.7,0.6,1.1,0.9c0.1,0.1,0.4-0.1,0.5-0.2c0.2-0.2,0-0.4-0.2-0.4c-1.3-0.4-1.3-1.2-0.9-2.3c0.4-0.9,0.1-1.6-1-1.6
				c-1-0.1-1.2-0.4-0.5-1.2c0.1-0.1,0.2-0.3,0.2-0.4c0.2-0.5,0.9-0.9,0.4-1.3c-0.5-0.4-1-0.2-1.5,0.4c-1.2,1.1-2.4,0.5-2.9-1
				c-0.5-1.6,0.6-2.6,1.1-3.9c0.1-0.3,0.9-0.6,1.1-0.5c1.3,0.7,2.9,0,4.2,0.6c0.8,0.4,1.6,0.7,1.3,1.9c-0.1,0.4,0.1,1.2,0.6,1.2
				c0.7,0,0.4-0.8,0.4-1.2c-0.4-1.8,0.5-2.6,2-3.1c0.8-0.3,1.4-0.6,1.3-1.7c0-0.3,0.6-0.8,1.1-1c1.6-0.8,2.7-2.5,4.6-2.8
				c0.2-0.1,0.6-0.2,0.7,0.1c0.2,0.5,0.5,0.6,1.2,0.5c0.2-0.1,0.5-0.1,0.8-0.3c0.2-0.1,0.6-0.1,0.4-0.5c-0.2-0.5-0.4,0.1-0.6,0.1
				c-0.5-0.2-1.2-0.2-1.3-0.8c-0.1-0.4-0.8-0.9,0.2-1.2c0.4-0.2,0.1-0.6-0.2-0.6c-0.5-0.1-0.9,0-1.4,0c0.8-0.8,1.7-0.9,2.7-0.5
				c0.5,0.2,1.1,0.3,1.6,0.3c0.5,0,1.1-0.7,1.3-0.3c0.2,0.4-0.4,1-0.8,1.4c-0.6,0.7-0.5,1.1,0.4,1.2c0.2,0.1,0.5,0.4,0.7,0.3
				c0.5-0.1,0.8,1,1.1,0.4c0.2-0.4,0.2-1.4-0.3-1.6c-1.3-0.6-0.6-1.8-0.4-2.1c0.6-0.8,0.3-1.4-0.2-1.9C64,31.7,64,30,63.6,28.3
				c-0.1-0.7-0.2-1.9-1.2-0.4c-0.2,0.3-0.6,0.5-1,0.4c-0.5-0.3-0.7-0.8-0.7-1.3c-0.1-2.1-0.8-3-2.6-3.5c-0.3-0.1-0.7-0.2-0.7,0.1
				c0.1,1.4-1.3,2.6-0.7,4c0.4,0.9,0.2,1.8-0.6,2.1c-0.9,0.5-1.2,1.1-1.1,2c0.1,0.6-0.2,1.1-0.7,1.1c-0.6,0-0.5-0.7-0.5-1.1
				c0.2-2.6-1.9-3.5-3.5-4.7c-1.1-0.8-1.9-2.9-0.9-3.9c1.1-1.2,2.1-2.4,3.7-2.8c0.9-0.2,0.8-1.5,1.8-1.6C54.4,18,54.5,17.8,55,18
				c1.2,0.5,2,0.1,2-1.2c0-0.9,1-1.5,0.4-2.4c-0.1-0.2,0.1-0.4,0.4-0.4c1,0.3,2.5-0.3,2.6,1.5c0,0.5,0.5,0.8,0.7,1.2
				c0.4,0.9,0.6,1.5-0.3,2.4c-0.7,0.6-0.9,1.6-2.1,1.1c-0.4-0.1-0.6,0.2-0.6,0.6c-0.1,0.4,0.2,0.7,0.6,0.6c1.2-0.3,1.6,0.6,1.9,1.3
				c0.5,1.2,1.5,1.6,2.4,2.3c0.2-0.6-0.5-0.9-0.4-1.4c0.1,0,0.2-0.1,0.3-0.1c0.4,0.2,0.4,0.8,1,0.4c0.5-0.4,0.3-0.7,0.2-1.1
				c-0.2-0.5-0.4-1.1-0.6-1.6c-0.2-0.4,0-0.7,0.4-1c0.1,0.4,1,0.1,0.7,0.9c-0.2,0.4,0.1,1,0.4,0.9c0.5-0.2,0.8-0.8,1.2-1.1
				c0.3-0.2,0.5-0.5,0.1-0.8c-0.6-0.4-0.8-1.2-1.5-1.7c-0.8-0.6-1-1.3-0.4-2.3c0.6-0.9,1.2-0.2,1.8-0.1c1.8,0.5,3.5,1.5,5.2,2.3
				c0.6,0.4,0.6,0.4-0.1,0.8c-1.2,0.8-1.3,2.1-1.1,3.1c0.2,1.3,0.2,2.8,0.5,4.1c0.3,1.4,1.3,2.1,2.1,3c0.4,0.5,0.6,0.1,0.8-0.3
				c0.7-1.2,1.4-2.3,2-3.5c0.8-1.6,3-2,4.2-0.7c3.5,3.6,6,7.7,7.8,12.4c0.4,0.9,0.4,1.8-0.1,2.7c-0.2,0.4-0.3,0.8,0.3,0.7
				c1.1-0.2,1.1,0.5,1.2,1.2c0.3,1.4,0.5,2.9,0.8,4.3c0.2,0.9,0,1.2-0.9,0.9c-0.5-0.2-0.9-0.2-1.4-0.4c-0.8-0.3-1.3-0.2-1.2,0.8
				c0,0.2,0,0.5-0.1,0.6c-0.9,1.3-0.8,2.3,0.6,3.2c0.1,0.1,0.1,0.1,0.1,0.2c-0.1,0.1-0.1,0.1-0.1,0.1c-1.8,1-2.5,3-4.5,3.9
				c-1.4,0.6-2.8,1.9-2.7,3.9c0,0.9-0.7,1.5-0.8,2.3c-0.1,1.5,1,2.7,1.6,4c0.6,1.5,1.9,2.1,3.5,1.9c0.6-0.4,1.1,0.1,1.7,0.2
				c0.2,0.2,0.1,0.4,0.1,0.6c-0.3,1-0.6,2-1.6,2.6C78,79.1,70.2,84.5,60.2,86.5z"/>
		</g>
	</g>
	<g>
		<g class="st27">
			<g>
				<circle class="st3" cx="7.4" cy="30.7" r="4.3"/>
			</g>
			<g>
				<path class="st3" d="M9.6,36.4H5.3c-2.9,0-5.3,2.2-5.3,4.9l0,0l0,0v2.8c0,0.8,0.6,1.3,1.3,1.3h12.1c0.8,0,1.3-0.6,1.3-1.3v-2.8
					l0,0l0,0C14.8,38.6,12.5,36.4,9.6,36.4z"/>
			</g>
		</g>
		<g class="st27">
			<g>
				<circle class="st28" cx="7.4" cy="30.7" r="4.3"/>
			</g>
			<g>
				<path class="st28" d="M9.6,36.4H5.3c-2.9,0-5.3,2.2-5.3,4.9l0,0l0,0v2.8c0,0.8,0.6,1.3,1.3,1.3h12.1c0.8,0,1.3-0.6,1.3-1.3v-2.8
					l0,0l0,0C14.8,38.6,12.5,36.4,9.6,36.4z"/>
			</g>
		</g>
		<g>
			<polygon class="st29" points="20.9,40.2 75,40.2 75,28.6 20.9,28.6 20.9,32.3 18.1,34.4 20.9,36.4 			"/>
			<path class="st8" d="M75,40.8H20.9c-0.3,0-0.6-0.3-0.6-0.6v-3.5l-2.6-1.9c-0.2-0.1-0.2-0.3-0.2-0.5c0-0.2,0.1-0.4,0.2-0.5
				l2.6-1.9v-3.4c0-0.3,0.3-0.6,0.6-0.6H75c0.3,0,0.6,0.3,0.6,0.6v11.7C75.6,40.6,75.3,40.8,75,40.8z M21.5,39.7h53V29.2h-53v3.1
				c0,0.2-0.1,0.4-0.2,0.5L19,34.4l2.2,1.6c0.2,0.1,0.2,0.3,0.2,0.5V39.7z"/>
		</g>
		<g>
			<rect x="24.1" y="32.6" class="st30" width="47.2" height="3"/>
		</g>
	</g>
	<g>
		<g class="st27">
			<g>
				<circle class="st3" cx="92.6" cy="63.8" r="4.3"/>
			</g>
			<g>
				<path class="st3" d="M90.4,69.5h4.3c2.9,0,5.3,2.2,5.3,4.9l0,0l0,0v2.8c0,0.8-0.6,1.3-1.3,1.3H86.5c-0.8,0-1.3-0.6-1.3-1.3v-2.8
					l0,0l0,0C85.2,71.7,87.5,69.5,90.4,69.5z"/>
			</g>
		</g>
		<g class="st27">
			<g>
				<circle class="st28" cx="92.6" cy="63.8" r="4.3"/>
			</g>
			<g>
				<path class="st28" d="M90.4,69.5h4.3c2.9,0,5.3,2.2,5.3,4.9l0,0l0,0v2.8c0,0.8-0.6,1.3-1.3,1.3H86.5c-0.8,0-1.3-0.6-1.3-1.3
					v-2.8l0,0l0,0C85.2,71.7,87.5,69.5,90.4,69.5z"/>
			</g>
		</g>
		<g>
			<polygon class="st29" points="79.1,75 25,75 25,60 79.1,60 79.1,64.8 82.4,67.5 79.1,70 			"/>
			<path class="st8" d="M79.1,75.6H25c-0.3,0-0.6-0.3-0.6-0.6V60c0-0.3,0.3-0.6,0.6-0.6h54.1c0.3,0,0.6,0.3,0.6,0.6v4.5l3.1,2.6
				c0.1,0.1,0.2,0.3,0.2,0.5c0,0.2-0.1,0.3-0.2,0.5l-3.1,2.3V75C79.7,75.3,79.4,75.6,79.1,75.6z M25.6,74.4h53V70
				c0-0.2,0.1-0.4,0.2-0.5l2.7-2.1l-2.7-2.3c-0.1-0.1-0.2-0.3-0.2-0.4v-4.2h-53V74.4z"/>
		</g>
		<g>
			<rect x="28.3" y="63.2" class="st30" width="47.2" height="3"/>
		</g>
		<g>
			<rect x="39.8" y="68.3" class="st30" width="35.6" height="3"/>
		</g>
	</g>
</g>
</svg>
