<?xml version="1.0" encoding="utf-8"?>
<!-- Generator: Adobe Illustrator 19.1.0, SVG Export Plug-In . SVG Version: 6.00 Build 0)  -->
<svg version="1.1" id="Layer_1" xmlns="http://www.w3.org/2000/svg" xmlns:xlink="http://www.w3.org/1999/xlink" x="0px" y="0px"
	 viewBox="0 0 100 100" style="enable-background:new 0 0 100 100;" xml:space="preserve">
<style type="text/css">
	.st0{opacity:0.2;fill:url(#SVGID_1_);}
	.st1{opacity:1.000000e-02;fill:#FFFFFF;stroke:#D1D3D4;stroke-miterlimit:10;}
	.st2{fill:#E6E7E8;}
	.st3{fill:#FFFFFF;}
	.st4{fill:#010101;fill-opacity:0;stroke:#E12826;stroke-width:0.3201;stroke-linejoin:bevel;}
	.st5{fill:#E12826;}
	.st6{fill:#010101;fill-opacity:0;stroke:#E12826;stroke-width:0.3201;}
	.st7{fill:url(#SVGID_2_);}
	.st8{fill:#010101;}
	.st9{fill:none;stroke:#A7A9AC;stroke-width:0.5;stroke-miterlimit:10;}
	.st10{fill:#808285;}
	.st11{fill:none;}
	.st12{fill:#939598;}
	.st13{fill:#3B599D;}
	.st14{fill:#41C6F3;}
	.st15{fill:none;stroke:#D92129;stroke-width:0.5;stroke-miterlimit:10;}
	.st16{fill:url(#SVGID_3_);}
	.st17{opacity:0.5;fill:url(#SVGID_4_);}
	.st18{fill:none;stroke:#6D6E71;stroke-width:0.5;stroke-miterlimit:10;}
	.st19{fill:#F1F2F2;}
	.st20{fill:#BCBEC0;}
	.st21{fill:none;stroke:#000000;stroke-miterlimit:10;}
	.st22{fill:#D1D3D4;}
	.st23{fill:none;stroke:#D92129;stroke-width:2;stroke-miterlimit:10;}
	.st24{fill:#F1F2F2;stroke:#939598;stroke-miterlimit:10;}
	.st25{fill:#F2F2F2;}
	.st26{fill:#D2D3D4;}
	.st27{opacity:0.7;}
	.st28{fill:#E12B27;}
	.st29{fill:#E7E7E7;}
	.st30{fill:#A8AAAD;}
	.st31{fill:#8DC63F;}
	.st32{fill:#D92129;}
	.st33{fill:#6D6E71;}
	.st34{fill:#FFFFFF;stroke:#000000;stroke-miterlimit:10;}
	.st35{opacity:0.7;fill:#E12826;}
	.st36{fill:none;stroke:#6D6E71;stroke-width:3;stroke-miterlimit:10;}
	.st37{opacity:0.5;}
	.st38{opacity:0.8;}
	.st39{fill:#F1F2F2;stroke:#000000;stroke-miterlimit:10;}
	.st40{clip-path:url(#SVGID_6_);}
	.st41{fill:none;stroke:#6D6E71;stroke-miterlimit:10;}
	.st42{fill:#F1F2F2;stroke:#6D6E71;stroke-miterlimit:10;}
	.st43{fill:#A7A9AC;}
	.st44{opacity:0.6;}
</style>
<g>
	<g class="st44">
		<g>
			<g>
				<g>
					<path class="st3" d="M52.8,85.6H2c-0.6,0-1.2-0.5-1.2-1.2V15.5c0-0.6,0.5-1.2,1.2-1.2h50.8c0.6,0,1.2,0.5,1.2,1.2v68.9
						C54,85.1,53.5,85.6,52.8,85.6z"/>
				</g>
				<g>
					<path d="M53,86.1H1.9c-0.8,0-1.5-0.7-1.5-1.6v-69c0-0.9,0.7-1.6,1.5-1.6H53c0.8,0,1.5,0.7,1.5,1.6v69
						C54.4,85.4,53.8,86.1,53,86.1z M1.9,14.9c-0.3,0-0.6,0.3-0.6,0.6v69c0,0.4,0.3,0.6,0.6,0.6H53c0.3,0,0.6-0.3,0.6-0.6v-69
						c0-0.4-0.3-0.6-0.6-0.6H1.9z"/>
				</g>
			</g>
			<g>
				<g>
					<rect x="3.8" y="17.4" class="st22" width="47.3" height="5"/>
				</g>
			</g>
			<g>
				<g>
					<rect x="7.9" y="24.6" class="st20" width="43.1" height="2.4"/>
				</g>
			</g>
			<g>
				<g>
					<rect x="7.9" y="28.1" class="st20" width="43.1" height="2.4"/>
				</g>
			</g>
			<g>
				<g>
					<rect x="7.9" y="31.6" class="st20" width="43.1" height="2.4"/>
				</g>
			</g>
			<g>
				<g>
					<rect x="7.9" y="35.3" class="st20" width="43.1" height="2.4"/>
				</g>
			</g>
			<g>
				<g>
					<circle class="st31" cx="5" cy="25.8" r="1.2"/>
				</g>
			</g>
			<g>
				<g>
					<circle class="st32" cx="5" cy="29.3" r="1.2"/>
				</g>
			</g>
			<g>
				<g>
					<circle class="st2" cx="5" cy="32.8" r="1.2"/>
				</g>
			</g>
			<g>
				<g>
					<circle class="st2" cx="5" cy="36.5" r="1.2"/>
				</g>
			</g>
			<g>
				<g>
					<rect x="3.8" y="40.3" class="st22" width="47.3" height="5"/>
				</g>
			</g>
			<g>
				<g>
					<rect x="7.9" y="47.5" class="st20" width="43.1" height="2.4"/>
				</g>
			</g>
			<g>
				<g>
					<rect x="7.9" y="51" class="st20" width="43.1" height="2.4"/>
				</g>
			</g>
			<g>
				<g>
					<rect x="7.9" y="54.5" class="st20" width="43.1" height="2.4"/>
				</g>
			</g>
			<g>
				<g>
					<rect x="7.9" y="58.2" class="st20" width="43.1" height="2.4"/>
				</g>
			</g>
			<g>
				<g>
					<circle class="st32" cx="5" cy="48.7" r="1.2"/>
				</g>
			</g>
			<g>
				<g>
					<circle class="st2" cx="5" cy="52.2" r="1.2"/>
				</g>
			</g>
			<g>
				<g>
					<circle class="st31" cx="5" cy="55.7" r="1.2"/>
				</g>
			</g>
			<g>
				<g>
					<circle class="st2" cx="5" cy="59.4" r="1.2"/>
				</g>
			</g>
			<g>
				<g>
					<rect x="3.8" y="62.4" class="st22" width="47.3" height="5"/>
				</g>
			</g>
			<g>
				<g>
					<rect x="7.9" y="69.6" class="st20" width="43.1" height="2.4"/>
				</g>
			</g>
			<g>
				<g>
					<rect x="7.9" y="73.1" class="st20" width="43.1" height="2.4"/>
				</g>
			</g>
			<g>
				<g>
					<rect x="7.9" y="76.6" class="st20" width="43.1" height="2.4"/>
				</g>
			</g>
			<g>
				<g>
					<rect x="7.9" y="80.3" class="st20" width="43.1" height="2.4"/>
				</g>
			</g>
			<g>
				<g>
					<circle class="st2" cx="5" cy="70.9" r="1.2"/>
				</g>
			</g>
			<g>
				<g>
					<circle class="st31" cx="5" cy="74.4" r="1.2"/>
				</g>
			</g>
			<g>
				<g>
					<circle class="st2" cx="5" cy="77.9" r="1.2"/>
				</g>
			</g>
			<g>
				<g>
					<circle class="st32" cx="5" cy="81.5" r="1.2"/>
				</g>
			</g>
		</g>
		<g>
			<g>
				<path class="st32" d="M4,17l0.8,1.2c0.2,0.3,0.4,0.6,0.6,0.9h0c0.2-0.3,0.4-0.6,0.6-0.9L6.8,17h1.1L6,19.8l2,2.9H6.8L6,21.4
					c-0.2-0.3-0.4-0.6-0.6-1h0c-0.2,0.3-0.4,0.6-0.6,1l-0.8,1.3H2.8l2-2.9L2.9,17H4z"/>
			</g>
		</g>
		<g>
			<g>
				<path class="st32" d="M3.7,39.9l0.8,1.2c0.2,0.3,0.4,0.6,0.6,0.9h0c0.2-0.3,0.4-0.6,0.6-0.9l0.8-1.2h1.1l-1.9,2.7l2,2.9H6.4
					l-0.8-1.3c-0.2-0.3-0.4-0.6-0.6-1h0c-0.2,0.3-0.4,0.6-0.6,1l-0.8,1.3H2.4l2-2.9l-1.9-2.8H3.7z"/>
			</g>
		</g>
		<g>
			<g>
				<path class="st32" d="M3.7,62.1l0.8,1.2c0.2,0.3,0.4,0.6,0.6,0.9h0c0.2-0.3,0.4-0.6,0.6-0.9l0.8-1.2h1.1l-1.9,2.7l2,2.9H6.4
					l-0.8-1.3c-0.2-0.3-0.4-0.6-0.6-1h0c-0.2,0.3-0.4,0.6-0.6,1l-0.8,1.3H2.4l2-2.9l-1.9-2.8H3.7z"/>
			</g>
		</g>
	</g>
	<g>
		<g>
			<g>
				<path class="st3" d="M97.9,95H33c-0.6,0-1.2-0.5-1.2-1.2V6.1C31.9,5.5,32.4,5,33,5h64.9C98.5,5,99,5.5,99,6.1v87.7
					C99,94.5,98.5,95,97.9,95z"/>
			</g>
			<g>
				<path d="M97.8,95.6H33.1c-1,0-1.9-0.9-1.9-2V6.4c0-1.1,0.8-2,1.9-2h64.6c1,0,1.9,0.9,1.9,2v87.2C99.6,94.7,98.8,95.6,97.8,95.6z
					 M33.1,5.6c-0.4,0-0.7,0.4-0.7,0.8v87.2c0,0.4,0.3,0.8,0.7,0.8h64.6c0.4,0,0.7-0.4,0.7-0.8V6.4c0-0.4-0.3-0.8-0.7-0.8H33.1z"/>
			</g>
		</g>
		<g>
			<g>
				<rect x="35.6" y="8.8" class="st22" width="59.8" height="6.3"/>
			</g>
		</g>
		<g>
			<g>
				<rect x="40.8" y="17.9" class="st20" width="54.5" height="3.1"/>
			</g>
		</g>
		<g>
			<g>
				<rect x="40.8" y="22.4" class="st20" width="54.5" height="3.1"/>
			</g>
		</g>
		<g>
			<g>
				<rect x="40.8" y="26.8" class="st20" width="54.5" height="3.1"/>
			</g>
		</g>
		<g>
			<g>
				<rect x="40.8" y="31.4" class="st20" width="54.5" height="3.1"/>
			</g>
		</g>
		<g>
			<g>
				<circle class="st31" cx="37.1" cy="19.5" r="1.5"/>
			</g>
		</g>
		<g>
			<g>
				<circle class="st2" cx="37.1" cy="23.9" r="1.5"/>
			</g>
		</g>
		<g>
			<g>
				<circle class="st2" cx="37.1" cy="28.3" r="1.5"/>
			</g>
		</g>
		<g>
			<g>
				<circle class="st2" cx="37.1" cy="32.9" r="1.5"/>
			</g>
		</g>
		<g>
			<g>
				<rect x="35.6" y="37.7" class="st22" width="59.8" height="6.3"/>
			</g>
		</g>
		<g>
			<g>
				<rect x="40.8" y="46.9" class="st20" width="54.5" height="3.1"/>
			</g>
		</g>
		<g>
			<g>
				<rect x="40.8" y="51.3" class="st20" width="54.5" height="3.1"/>
			</g>
		</g>
		<g>
			<g>
				<rect x="40.8" y="55.7" class="st20" width="54.5" height="3.1"/>
			</g>
		</g>
		<g>
			<g>
				<rect x="40.8" y="60.3" class="st20" width="54.5" height="3.1"/>
			</g>
		</g>
		<g>
			<g>
				<circle class="st2" cx="37.1" cy="48.4" r="1.5"/>
			</g>
		</g>
		<g>
			<g>
				<circle class="st2" cx="37.1" cy="52.8" r="1.5"/>
			</g>
		</g>
		<g>
			<g>
				<circle class="st31" cx="37.1" cy="57.2" r="1.5"/>
			</g>
		</g>
		<g>
			<g>
				<circle class="st2" cx="37.1" cy="61.9" r="1.5"/>
			</g>
		</g>
		<g>
			<g>
				<rect x="35.6" y="65.7" class="st22" width="59.8" height="6.3"/>
			</g>
		</g>
		<g>
			<g>
				<rect x="40.8" y="74.8" class="st20" width="54.5" height="3.1"/>
			</g>
		</g>
		<g>
			<g>
				<rect x="40.8" y="79.2" class="st20" width="54.5" height="3.1"/>
			</g>
		</g>
		<g>
			<g>
				<rect x="40.8" y="83.7" class="st20" width="54.5" height="3.1"/>
			</g>
		</g>
		<g>
			<g>
				<rect x="40.8" y="88.3" class="st20" width="54.5" height="3.1"/>
			</g>
		</g>
		<g>
			<g>
				<circle class="st2" cx="37.1" cy="76.4" r="1.5"/>
			</g>
		</g>
		<g>
			<g>
				<circle class="st31" cx="37.1" cy="80.8" r="1.5"/>
			</g>
		</g>
		<g>
			<g>
				<circle class="st2" cx="37.1" cy="85.2" r="1.5"/>
			</g>
		</g>
		<g>
			<g>
				<circle class="st2" cx="37.1" cy="89.8" r="1.5"/>
			</g>
		</g>
	</g>
	<g>
		<polygon class="st33" points="37.7,14.7 34.9,12.5 35.5,11.7 37.3,13.1 40,8 40.9,8.4 		"/>
	</g>
	<g>
		<polygon class="st33" points="36.9,43.5 34.2,41.4 34.8,40.6 36.6,42 39.3,36.9 40.2,37.3 		"/>
	</g>
	<g>
		<polygon class="st33" points="36.9,71.6 34.2,69.5 34.8,68.7 36.6,70.1 39.3,64.9 40.2,65.4 		"/>
	</g>
</g>
</svg>
