<?xml version="1.0" encoding="utf-8"?>
<!-- Generator: Adobe Illustrator 19.1.0, SVG Export Plug-In . SVG Version: 6.00 Build 0)  -->
<svg version="1.1" id="Layer_1" xmlns="http://www.w3.org/2000/svg" xmlns:xlink="http://www.w3.org/1999/xlink" x="0px" y="0px"
	 viewBox="0 0 100 100" style="enable-background:new 0 0 100 100;" xml:space="preserve">
<style type="text/css">
	.st0{opacity:0.2;fill:url(#SVGID_1_);}
	.st1{opacity:1.000000e-02;fill:#FFFFFF;stroke:#D1D3D4;stroke-miterlimit:10;}
	.st2{fill:#E6E7E8;}
	.st3{fill:#FFFFFF;}
	.st4{fill:#010101;fill-opacity:0;stroke:#E12826;stroke-width:0.3201;stroke-linejoin:bevel;}
	.st5{fill:#E12826;}
	.st6{fill:#010101;fill-opacity:0;stroke:#E12826;stroke-width:0.3201;}
	.st7{fill:url(#SVGID_2_);}
	.st8{fill:#010101;}
	.st9{fill:none;stroke:#A7A9AC;stroke-width:0.5;stroke-miterlimit:10;}
	.st10{fill:#808285;}
	.st11{fill:none;}
	.st12{fill:#939598;}
	.st13{fill:#3B599D;}
	.st14{fill:#41C6F3;}
	.st15{fill:none;stroke:#D92129;stroke-width:0.5;stroke-miterlimit:10;}
	.st16{fill:url(#SVGID_3_);}
	.st17{opacity:0.5;fill:url(#SVGID_4_);}
	.st18{fill:none;stroke:#6D6E71;stroke-width:0.5;stroke-miterlimit:10;}
	.st19{fill:#F1F2F2;}
	.st20{fill:#BCBEC0;}
	.st21{fill:none;stroke:#000000;stroke-miterlimit:10;}
	.st22{fill:#D1D3D4;}
	.st23{fill:none;stroke:#D92129;stroke-width:2;stroke-miterlimit:10;}
	.st24{fill:#F1F2F2;stroke:#939598;stroke-miterlimit:10;}
	.st25{fill:#F2F2F2;}
	.st26{fill:#D2D3D4;}
	.st27{opacity:0.7;}
	.st28{fill:#E12B27;}
	.st29{fill:#E7E7E7;}
	.st30{fill:#A8AAAD;}
	.st31{fill:#8DC63F;}
	.st32{fill:#D92129;}
	.st33{fill:#6D6E71;}
	.st34{fill:#FFFFFF;stroke:#000000;stroke-miterlimit:10;}
	.st35{opacity:0.7;fill:#E12826;}
	.st36{fill:none;stroke:#6D6E71;stroke-width:3;stroke-miterlimit:10;}
	.st37{opacity:0.5;}
	.st38{opacity:0.8;}
	.st39{fill:#F1F2F2;stroke:#000000;stroke-miterlimit:10;}
	.st40{clip-path:url(#SVGID_6_);}
	.st41{fill:none;stroke:#6D6E71;stroke-miterlimit:10;}
	.st42{fill:#F1F2F2;stroke:#6D6E71;stroke-miterlimit:10;}
	.st43{fill:#A7A9AC;}
	.st44{opacity:0.6;}
</style>
<g>
	<g>
		<g>
			
				<rect x="42.7" y="59.2" transform="matrix(0.7061 0.7081 -0.7081 0.7061 59.6348 -24.3719)" class="st33" width="32.9" height="1"/>
		</g>
		<g>
			<g>
				<polygon class="st33" points="49.4,47 45.5,46 46.6,49.8 				"/>
			</g>
		</g>
	</g>
	<g>
		<g>
			<path class="st19" d="M96.1,96l-0.4,0.4c-3.8,3.8-10,3.8-13.8,0L69,83.4c-3.8-3.8-3.8-10,0-13.8l0.4-0.4c3.8-3.8,10-3.8,13.8,0
				l12.9,13C100,86,99.9,92.2,96.1,96z"/>
			<path class="st20" d="M88.9,99.7C88.9,99.7,88.9,99.7,88.9,99.7c-2.8,0-5.3-1.1-7.3-3l-12.9-13c-4-4-4-10.5,0-14.5l0.4-0.4
				c4-4,10.5-4,14.5,0l12.9,13c4,4,4,10.5,0,14.5l-0.4,0.4C94.2,98.6,91.6,99.7,88.9,99.7z M76.3,66.9c-2.4,0-4.7,0.9-6.5,2.7
				L69.4,70c-3.6,3.6-3.6,9.5,0,13.1l12.9,13c1.7,1.7,4.1,2.7,6.5,2.7c0,0,0,0,0,0c2.5,0,4.8-1,6.5-2.7l0.4-0.4
				c3.6-3.6,3.6-9.5,0-13.1l-12.9-13C81.1,67.8,78.7,66.9,76.3,66.9z"/>
		</g>
		<g>
			<circle class="st22" cx="75.6" cy="75.7" r="1.7"/>
		</g>
	</g>
	<g>
		<g>
			<g>
				<path class="st3" d="M59.5,35.2l-25.9,6.9c-0.6,0.2-1.3-0.2-1.4-0.8L23.6,9.1c-0.2-0.6,0.2-1.3,0.8-1.4l25.9-6.9
					C51,0.6,51.6,1,51.8,1.6l8.6,32.2C60.5,34.4,60.1,35,59.5,35.2z"/>
				<path d="M33.3,42.7c-0.3,0-0.6-0.1-0.8-0.2c-0.4-0.2-0.7-0.6-0.8-1L23.1,9.3C23,8.8,23.1,8.4,23.3,8c0.2-0.4,0.6-0.7,1-0.8
					l25.9-6.9c0.4-0.1,0.9-0.1,1.3,0.2c0.4,0.2,0.7,0.6,0.8,1l8.6,32.2c0.1,0.4,0.1,0.9-0.2,1.3c-0.2,0.4-0.6,0.7-1,0.8l-25.9,6.9
					C33.6,42.6,33.4,42.7,33.3,42.7z M50.7,1.3c-0.1,0-0.1,0-0.2,0L24.5,8.2c-0.2,0-0.3,0.2-0.4,0.3C24.1,8.7,24,8.8,24.1,9
					l8.6,32.2c0,0.2,0.2,0.3,0.3,0.4c0.2,0.1,0.3,0.1,0.5,0.1l25.9-6.9c0.2,0,0.3-0.2,0.4-0.3c0.1-0.2,0.1-0.3,0.1-0.5L51.3,1.8
					c0-0.2-0.2-0.3-0.3-0.4C50.9,1.3,50.8,1.3,50.7,1.3z"/>
			</g>
			<g>
				<g>
					
						<rect x="26.7" y="9.8" transform="matrix(0.9663 -0.2575 0.2575 0.9663 -1.8821 10.6118)" class="st22" width="25.7" height="5.4"/>
				</g>
				<g class="st27">
					
						<rect x="25.3" y="6.1" transform="matrix(0.9663 -0.2575 0.2575 0.9663 -0.5706 10.0718)" class="st5" width="25.7" height="2.2"/>
				</g>
				<g>
					
						<rect x="30.1" y="15.7" transform="matrix(0.9663 -0.2575 0.2575 0.9663 -2.8075 11.3105)" class="st20" width="23.4" height="1.3"/>
				</g>
				<g>
					
						<rect x="30.6" y="17.6" transform="matrix(0.9663 -0.2575 0.2575 0.9663 -3.2636 11.4983)" class="st20" width="23.4" height="1.3"/>
				</g>
				<g>
					
						<rect x="31.1" y="19.4" transform="matrix(0.9663 -0.2575 0.2575 0.9663 -3.7197 11.6861)" class="st20" width="23.4" height="1.3"/>
				</g>
				<g>
					
						<rect x="31.6" y="21.3" transform="matrix(0.9663 -0.2575 0.2575 0.9663 -4.1957 11.8821)" class="st20" width="23.4" height="1.3"/>
				</g>
				<g>
					<circle class="st2" cx="28.9" cy="19.8" r="0.7"/>
				</g>
				<g>
					<circle class="st2" cx="29.4" cy="21.6" r="0.7"/>
				</g>
				<g>
					<circle class="st2" cx="29.9" cy="23.5" r="0.7"/>
				</g>
				<g>
					<circle class="st2" cx="30.4" cy="25.4" r="0.7"/>
				</g>
				<g>
					
						<rect x="30.5" y="24.1" transform="matrix(0.9663 -0.2575 0.2575 0.9663 -5.4302 12.0727)" class="st22" width="25.7" height="5.4"/>
				</g>
				<g>
					
						<rect x="33.9" y="30" transform="matrix(0.9663 -0.2575 0.2575 0.9663 -6.3556 12.7715)" class="st20" width="23.4" height="1.3"/>
				</g>
				<g>
					
						<rect x="34.4" y="31.8" transform="matrix(0.9663 -0.2575 0.2575 0.9663 -6.8118 12.9593)" class="st20" width="23.4" height="1.3"/>
				</g>
				<g>
					
						<rect x="34.9" y="33.7" transform="matrix(0.9663 -0.2575 0.2575 0.9663 -7.2679 13.1471)" class="st20" width="23.4" height="1.3"/>
				</g>
				<g>
					
						<rect x="35.4" y="35.6" transform="matrix(0.9663 -0.2575 0.2575 0.9663 -7.7438 13.3431)" class="st20" width="23.4" height="1.3"/>
				</g>
				<g>
					<circle class="st2" cx="32.7" cy="34.1" r="0.7"/>
				</g>
				<g>
					<circle class="st2" cx="33.2" cy="35.9" r="0.7"/>
				</g>
				<g>
					<circle class="st2" cx="33.7" cy="37.8" r="0.7"/>
				</g>
				<g>
					<circle class="st2" cx="34.2" cy="39.7" r="0.7"/>
				</g>
			</g>
		</g>
		<g>
			<g>
				<path class="st3" d="M52.5,29.9l-19,19c-0.5,0.5-1.2,0.5-1.6,0L8.3,25.2c-0.5-0.5-0.5-1.2,0-1.6l19-19c0.5-0.5,1.2-0.5,1.6,0
					l23.5,23.6C53,28.7,53,29.4,52.5,29.9z"/>
				<path d="M32.7,49.7c-0.4,0-0.9-0.2-1.2-0.5L8,25.6c-0.6-0.6-0.6-1.7,0-2.3l19-19c0.6-0.6,1.7-0.6,2.3,0l23.5,23.6
					c0.6,0.6,0.6,1.7,0,2.3l-19,19C33.5,49.5,33.1,49.7,32.7,49.7z M28.2,4.8c-0.2,0-0.3,0.1-0.5,0.2l-19,19c-0.3,0.3-0.3,0.7,0,0.9
					l23.5,23.6c0.3,0.3,0.7,0.3,0.9,0l19-19c0.3-0.3,0.3-0.7,0-0.9L28.6,5C28.5,4.9,28.3,4.8,28.2,4.8z"/>
			</g>
			<g>
				<g>
					
						<rect x="11" y="17.5" transform="matrix(0.7081 -0.7061 0.7061 0.7081 -7.2642 22.7396)" class="st22" width="25.7" height="5.4"/>
				</g>
				<g class="st27">
					
						<rect x="7.2" y="15.2" transform="matrix(0.7081 -0.7061 0.7061 0.7081 -5.659 18.8872)" class="st5" width="25.7" height="2.2"/>
				</g>
				<g>
					
						<rect x="16" y="21.8" transform="matrix(0.7081 -0.7061 0.7061 0.7081 -7.7358 26.119)" class="st20" width="23.4" height="1.3"/>
				</g>
				<g>
					
						<rect x="17.4" y="23.1" transform="matrix(0.7081 -0.7061 0.7061 0.7081 -8.2941 27.4588)" class="st20" width="23.4" height="1.3"/>
				</g>
				<g>
					
						<rect x="18.7" y="24.4" transform="matrix(0.7081 -0.7061 0.7061 0.7081 -8.8524 28.7986)" class="st20" width="23.4" height="1.3"/>
				</g>
				<g>
					
						<rect x="20.1" y="25.8" transform="matrix(0.7081 -0.7061 0.7061 0.7081 -9.4349 30.1967)" class="st20" width="23.4" height="1.3"/>
				</g>
				<g>
					<circle class="st2" cx="18.3" cy="31.8" r="0.7"/>
				</g>
				<g>
					<circle class="st2" cx="19.6" cy="33.2" r="0.7"/>
				</g>
				<g>
					<circle class="st2" cx="21" cy="34.5" r="0.7"/>
				</g>
				<g>
					<circle class="st2" cx="22.4" cy="35.9" r="0.7"/>
				</g>
				<g>
					
						<rect x="21.5" y="27.9" transform="matrix(0.7081 -0.7061 0.7061 0.7081 -11.607 33.162)" class="st22" width="25.7" height="5.4"/>
				</g>
				<g>
					
						<rect x="26.5" y="32.2" transform="matrix(0.7081 -0.7061 0.7061 0.7081 -12.0787 36.5415)" class="st20" width="23.4" height="1.3"/>
				</g>
				<g>
					
						<rect x="27.8" y="33.6" transform="matrix(0.7081 -0.7061 0.7061 0.7081 -12.6369 37.8813)" class="st20" width="23.4" height="1.3"/>
				</g>
				<g>
					
						<rect x="29.1" y="34.9" transform="matrix(0.7081 -0.7061 0.7061 0.7081 -13.1952 39.2211)" class="st20" width="23.4" height="1.3"/>
				</g>
				<g>
					
						<rect x="30.5" y="36.3" transform="matrix(0.7081 -0.7061 0.7061 0.7081 -13.7778 40.6192)" class="st20" width="23.4" height="1.3"/>
				</g>
				<g>
					<circle class="st2" cx="28.7" cy="42.3" r="0.7"/>
				</g>
				<g>
					<circle class="st2" cx="30.1" cy="43.6" r="0.7"/>
				</g>
				<g>
					<circle class="st2" cx="31.4" cy="45" r="0.7"/>
				</g>
				<g>
					<circle class="st2" cx="32.8" cy="46.4" r="0.7"/>
				</g>
			</g>
		</g>
		<g>
			<g>
				<path class="st3" d="M42.4,34l-7,25.9c-0.2,0.6-0.8,1-1.4,0.8L1.9,52.1c-0.6-0.2-1-0.8-0.8-1.4l7-25.9c0.2-0.6,0.8-1,1.4-0.8
					l32.2,8.7C42.2,32.8,42.6,33.4,42.4,34z"/>
				<path d="M34.3,61.3c-0.1,0-0.3,0-0.4-0.1L1.8,52.6c-0.9-0.2-1.4-1.1-1.2-2l7-25.9c0.1-0.4,0.4-0.8,0.8-1
					c0.4-0.2,0.8-0.3,1.3-0.2l32.2,8.7c0.4,0.1,0.8,0.4,1,0.8c0.2,0.4,0.3,0.8,0.2,1.3l-7,25.9C35.7,60.8,35.1,61.3,34.3,61.3z
					 M9.2,24.4c-0.1,0-0.2,0-0.3,0.1c-0.2,0.1-0.3,0.2-0.3,0.4l-7,25.9c-0.1,0.3,0.1,0.7,0.5,0.8l32.2,8.7c0.4,0.1,0.7-0.1,0.8-0.5
					l7-25.9c0-0.2,0-0.3-0.1-0.5c-0.1-0.2-0.2-0.3-0.4-0.3L9.3,24.4C9.3,24.4,9.2,24.4,9.2,24.4z"/>
			</g>
			<g>
				<g>
					
						<rect x="-0.1" y="37.2" transform="matrix(0.2602 -0.9656 0.9656 0.2602 -29.0889 41.882)" class="st22" width="25.7" height="5.4"/>
				</g>
				<g class="st27">
					
						<rect x="-5.3" y="37.4" transform="matrix(0.2602 -0.9656 0.9656 0.2602 -31.6185 35.7383)" class="st5" width="25.7" height="2.2"/>
				</g>
				<g>
					
						<rect x="5.5" y="39.3" transform="matrix(0.2602 -0.9656 0.9656 0.2602 -25.8154 46.2173)" class="st20" width="23.4" height="1.3"/>
				</g>
				<g>
					
						<rect x="7.4" y="39.8" transform="matrix(0.2602 -0.9656 0.9656 0.2602 -24.9356 48.354)" class="st20" width="23.4" height="1.3"/>
				</g>
				<g>
					
						<rect x="9.2" y="40.3" transform="matrix(0.2602 -0.9656 0.9656 0.2602 -24.0558 50.4907)" class="st20" width="23.4" height="1.3"/>
				</g>
				<g>
					
						<rect x="11.1" y="40.8" transform="matrix(0.2602 -0.9656 0.9656 0.2602 -23.1378 52.7203)" class="st20" width="23.4" height="1.3"/>
				</g>
				<g>
					<circle class="st2" cx="13.8" cy="52.8" r="0.7"/>
				</g>
				<g>
					<circle class="st2" cx="15.6" cy="53.3" r="0.7"/>
				</g>
				<g>
					<circle class="st2" cx="17.5" cy="53.8" r="0.7"/>
				</g>
				<g>
					<circle class="st2" cx="19.4" cy="54.3" r="0.7"/>
				</g>
				<g>
					
						<rect x="14.2" y="41.1" transform="matrix(0.2602 -0.9656 0.9656 0.2602 -22.2449 58.5036)" class="st22" width="25.7" height="5.4"/>
				</g>
				<g>
					
						<rect x="19.8" y="43.1" transform="matrix(0.2602 -0.9656 0.9656 0.2602 -18.9714 62.8389)" class="st20" width="23.4" height="1.3"/>
				</g>
				<g>
					
						<rect x="21.6" y="43.6" transform="matrix(0.2602 -0.9656 0.9656 0.2602 -18.0917 64.9756)" class="st20" width="23.4" height="1.3"/>
				</g>
				<g>
					
						<rect x="23.5" y="44.1" transform="matrix(0.2602 -0.9656 0.9656 0.2602 -17.2119 67.1123)" class="st20" width="23.4" height="1.3"/>
				</g>
				<g>
					
						<rect x="25.4" y="44.6" transform="matrix(0.2602 -0.9656 0.9656 0.2602 -16.2938 69.3419)" class="st20" width="23.4" height="1.3"/>
				</g>
				<g>
					<circle class="st2" cx="28.1" cy="56.6" r="0.7"/>
				</g>
				<g>
					<circle class="st2" cx="29.9" cy="57.1" r="0.7"/>
				</g>
				<g>
					<circle class="st2" cx="31.7" cy="57.6" r="0.7"/>
				</g>
				<g>
					<circle class="st2" cx="33.6" cy="58.1" r="0.7"/>
				</g>
			</g>
		</g>
	</g>
</g>
</svg>
