<?xml version="1.0" encoding="utf-8"?>
<!-- Generator: Adobe Illustrator 19.1.0, SVG Export Plug-In . SVG Version: 6.00 Build 0)  -->
<svg version="1.1" id="Layer_1" xmlns="http://www.w3.org/2000/svg" xmlns:xlink="http://www.w3.org/1999/xlink" x="0px" y="0px"
	 viewBox="0 0 100 100" style="enable-background:new 0 0 100 100;" xml:space="preserve">
<style type="text/css">
	.st0{opacity:0.2;fill:url(#SVGID_1_);}
	.st1{opacity:1.000000e-02;fill:#FFFFFF;stroke:#D1D3D4;stroke-miterlimit:10;}
	.st2{fill:#E6E7E8;}
	.st3{fill:#FFFFFF;}
	.st4{fill:#010101;fill-opacity:0;stroke:#E12826;stroke-width:0.3201;stroke-linejoin:bevel;}
	.st5{fill:#E12826;}
	.st6{fill:#010101;fill-opacity:0;stroke:#E12826;stroke-width:0.3201;}
	.st7{fill:url(#SVGID_2_);}
	.st8{fill:#010101;}
	.st9{fill:none;stroke:#A7A9AC;stroke-width:0.5;stroke-miterlimit:10;}
	.st10{fill:#808285;}
	.st11{fill:none;}
	.st12{fill:#939598;}
	.st13{fill:#3B599D;}
	.st14{fill:#41C6F3;}
	.st15{fill:none;stroke:#D92129;stroke-width:0.5;stroke-miterlimit:10;}
	.st16{fill:url(#SVGID_3_);}
	.st17{opacity:0.5;fill:url(#SVGID_4_);}
	.st18{fill:none;stroke:#6D6E71;stroke-width:0.5;stroke-miterlimit:10;}
	.st19{fill:#F1F2F2;}
	.st20{fill:#BCBEC0;}
	.st21{fill:none;stroke:#000000;stroke-miterlimit:10;}
	.st22{fill:#D1D3D4;}
	.st23{fill:none;stroke:#D92129;stroke-width:2;stroke-miterlimit:10;}
	.st24{fill:#F1F2F2;stroke:#939598;stroke-miterlimit:10;}
	.st25{fill:#F2F2F2;}
	.st26{fill:#D2D3D4;}
	.st27{opacity:0.7;}
	.st28{fill:#E12B27;}
	.st29{fill:#E7E7E7;}
	.st30{fill:#A8AAAD;}
	.st31{fill:#8DC63F;}
	.st32{fill:#D92129;}
	.st33{fill:#6D6E71;}
	.st34{fill:#FFFFFF;stroke:#000000;stroke-miterlimit:10;}
	.st35{opacity:0.7;fill:#E12826;}
	.st36{fill:none;stroke:#6D6E71;stroke-width:3;stroke-miterlimit:10;}
	.st37{opacity:0.5;}
	.st38{opacity:0.8;}
	.st39{fill:#F1F2F2;stroke:#000000;stroke-miterlimit:10;}
	.st40{clip-path:url(#SVGID_6_);}
	.st41{fill:none;stroke:#6D6E71;stroke-miterlimit:10;}
	.st42{fill:#F1F2F2;stroke:#6D6E71;stroke-miterlimit:10;}
	.st43{fill:#A7A9AC;}
	.st44{opacity:0.6;}
</style>
<g>
	<path class="st21" d="M95.1,43.4v43.8c0,1.6-1.3,3-3,3h-4.9l-5.3,6l-5.4-6H7.9c-1.7,0-3-1.3-3-3V43.4c0-1.7,1.4-3,3-3h6.9"/>
	<g>
		<rect x="11.6" y="80.6" class="st22" width="76.9" height="3.7"/>
	</g>
	<g>
		<rect x="11.6" y="74.4" class="st22" width="76.9" height="3.7"/>
	</g>
	<g>
		<rect x="11.6" y="68.3" class="st22" width="76.9" height="3.7"/>
	</g>
	<rect x="17.4" y="51.4" class="st20" width="7.9" height="13.8"/>
	<rect x="28.8" y="40.8" class="st20" width="7.9" height="24.3"/>
	<rect x="40.2" y="47.5" class="st20" width="7.9" height="17.7"/>
	<rect x="51.6" y="29.9" class="st20" width="7.9" height="35.3"/>
	<rect x="63" y="36.7" class="st20" width="7.9" height="28.4"/>
	<rect x="74.4" y="20.9" class="st20" width="7.9" height="44.2"/>
	<polyline class="st23" points="17.4,59.3 27.6,43 34.5,51.2 53.2,16.3 69.2,41.3 90.2,4.3 	"/>
	<ellipse class="st24" cx="27.6" cy="43" rx="1.8" ry="1.7"/>
	<ellipse class="st24" cx="53.4" cy="16" rx="1.8" ry="1.7"/>
	<ellipse class="st24" cx="69.1" cy="41.3" rx="1.8" ry="1.7"/>
	<ellipse class="st24" cx="90.1" cy="5.6" rx="1.8" ry="1.7"/>
	<ellipse class="st24" cx="34.5" cy="51.4" rx="1.8" ry="1.7"/>
	<ellipse class="st24" cx="17.4" cy="59.5" rx="1.8" ry="1.7"/>
</g>
</svg>
