<?xml version="1.0" encoding="utf-8"?>
<!-- Generator: Adobe Illustrator 19.1.0, SVG Export Plug-In . SVG Version: 6.00 Build 0)  -->
<svg version="1.1" id="Layer_1" xmlns="http://www.w3.org/2000/svg" xmlns:xlink="http://www.w3.org/1999/xlink" x="0px" y="0px"
	 viewBox="0 0 100 100" style="enable-background:new 0 0 100 100;" xml:space="preserve">
<style type="text/css">
	.st0{opacity:0.2;fill:url(#SVGID_1_);}
	.st1{opacity:1.000000e-02;fill:#FFFFFF;stroke:#D1D3D4;stroke-miterlimit:10;}
	.st2{fill:#E6E7E8;}
	.st3{fill:#FFFFFF;}
	.st4{fill:#010101;fill-opacity:0;stroke:#E12826;stroke-width:0.3201;stroke-linejoin:bevel;}
	.st5{fill:#E12826;}
	.st6{fill:#010101;fill-opacity:0;stroke:#E12826;stroke-width:0.3201;}
	.st7{fill:url(#SVGID_2_);}
	.st8{fill:#010101;}
	.st9{fill:none;stroke:#A7A9AC;stroke-width:0.5;stroke-miterlimit:10;}
	.st10{fill:#808285;}
	.st11{fill:none;}
	.st12{fill:#939598;}
	.st13{fill:#3B599D;}
	.st14{fill:#41C6F3;}
	.st15{fill:none;stroke:#D92129;stroke-width:0.5;stroke-miterlimit:10;}
	.st16{fill:url(#SVGID_3_);}
	.st17{opacity:0.5;fill:url(#SVGID_4_);}
	.st18{fill:none;stroke:#6D6E71;stroke-width:0.5;stroke-miterlimit:10;}
	.st19{fill:#F1F2F2;}
	.st20{fill:#BCBEC0;}
	.st21{fill:none;stroke:#000000;stroke-miterlimit:10;}
	.st22{fill:#D1D3D4;}
	.st23{fill:none;stroke:#D92129;stroke-width:2;stroke-miterlimit:10;}
	.st24{fill:#F1F2F2;stroke:#939598;stroke-miterlimit:10;}
	.st25{fill:#F2F2F2;}
	.st26{fill:#D2D3D4;}
	.st27{opacity:0.7;}
	.st28{fill:#E12B27;}
	.st29{fill:#E7E7E7;}
	.st30{fill:#A8AAAD;}
	.st31{fill:#8DC63F;}
	.st32{fill:#D92129;}
	.st33{fill:#6D6E71;}
	.st34{fill:#FFFFFF;stroke:#000000;stroke-miterlimit:10;}
	.st35{opacity:0.7;fill:#E12826;}
	.st36{fill:none;stroke:#6D6E71;stroke-width:3;stroke-miterlimit:10;}
	.st37{opacity:0.5;}
	.st38{opacity:0.8;}
	.st39{fill:#F1F2F2;stroke:#000000;stroke-miterlimit:10;}
	.st40{clip-path:url(#SVGID_6_);}
	.st41{fill:none;stroke:#6D6E71;stroke-miterlimit:10;}
	.st42{fill:#F1F2F2;stroke:#6D6E71;stroke-miterlimit:10;}
	.st43{fill:#A7A9AC;}
	.st44{opacity:0.6;}
</style>
<g>
	<g class="st27">
		<g>
			<path class="st3" d="M45.5,55.9H6c-0.6,0-1.2-0.5-1.2-1.2V6c0-0.6,0.5-1.2,1.2-1.2h39.4c0.6,0,1.2,0.5,1.2,1.2v48.7
				C46.6,55.4,46.1,55.9,45.5,55.9z"/>
			<path d="M45.5,56.4H6c-0.9,0-1.7-0.7-1.7-1.7V6c0-0.9,0.7-1.7,1.7-1.7h39.4c0.9,0,1.7,0.7,1.7,1.7v48.7
				C47.1,55.6,46.4,56.4,45.5,56.4z M6,5.4C5.7,5.4,5.4,5.7,5.4,6v48.7c0,0.4,0.3,0.7,0.7,0.7h39.4c0.4,0,0.7-0.3,0.7-0.7V6
				c0-0.4-0.3-0.7-0.7-0.7H6z"/>
		</g>
		<g>
			<g>
				<rect x="7.4" y="13.2" class="st22" width="36.8" height="7.7"/>
			</g>
			<g class="st27">
				<rect x="7.4" y="7.1" class="st5" width="36.8" height="3.2"/>
			</g>
			<g>
				<rect x="10.6" y="22.3" class="st20" width="33.5" height="1.9"/>
			</g>
			<g>
				<rect x="10.6" y="25" class="st20" width="33.5" height="1.9"/>
			</g>
			<g>
				<rect x="10.6" y="27.8" class="st20" width="33.5" height="1.9"/>
			</g>
			<g>
				<rect x="10.6" y="30.6" class="st20" width="33.5" height="1.9"/>
			</g>
			<g>
				<circle class="st2" cx="8.3" cy="23.3" r="1"/>
			</g>
			<g>
				<circle class="st20" cx="8.3" cy="26" r="1"/>
			</g>
			<g>
				<circle class="st2" cx="8.3" cy="28.7" r="1"/>
			</g>
			<g>
				<circle class="st2" cx="8.3" cy="31.5" r="1"/>
			</g>
			<g>
				<rect x="7.4" y="34.4" class="st22" width="36.8" height="7.7"/>
			</g>
			<g>
				<rect x="10.6" y="43.5" class="st20" width="33.5" height="1.9"/>
			</g>
			<g>
				<rect x="10.6" y="46.2" class="st20" width="33.5" height="1.9"/>
			</g>
			<g>
				<rect x="10.6" y="48.9" class="st20" width="33.5" height="1.9"/>
			</g>
			<g>
				<rect x="10.6" y="51.8" class="st20" width="33.5" height="1.9"/>
			</g>
			<g>
				<circle class="st2" cx="8.3" cy="44.4" r="1"/>
			</g>
			<g>
				<circle class="st2" cx="8.3" cy="47.1" r="1"/>
			</g>
			<g>
				<circle class="st20" cx="8.3" cy="49.9" r="1"/>
			</g>
			<g>
				<circle class="st2" cx="8.3" cy="52.7" r="1"/>
			</g>
		</g>
	</g>
	<g>
		<g>
			<path class="st3" d="M93,94.1H35.1c-0.6,0-1.2-0.5-1.2-1.2V21.7c0-0.6,0.5-1.2,1.2-1.2H93c0.6,0,1.2,0.5,1.2,1.2V93
				C94.1,93.6,93.6,94.1,93,94.1z"/>
			<path d="M93,94.6H35.1c-0.9,0-1.7-0.7-1.7-1.7V21.7c0-0.9,0.7-1.7,1.7-1.7H93c0.9,0,1.7,0.7,1.7,1.7V93
				C94.6,93.9,93.9,94.6,93,94.6z M35.1,21.1c-0.4,0-0.7,0.3-0.7,0.7V93c0,0.4,0.3,0.7,0.7,0.7H93c0.4,0,0.7-0.3,0.7-0.7V21.7
				c0-0.4-0.3-0.7-0.7-0.7H35.1z"/>
		</g>
		<g>
			<g>
				<rect x="37.5" y="32.6" class="st22" width="53" height="11.2"/>
			</g>
			<g class="st27">
				<rect x="37.5" y="23.8" class="st5" width="53" height="4.6"/>
			</g>
			<g>
				<rect x="42.2" y="45.7" class="st20" width="48.3" height="2.7"/>
			</g>
			<g>
				<rect x="42.2" y="49.7" class="st20" width="48.3" height="2.7"/>
			</g>
			<g>
				<rect x="42.2" y="53.6" class="st20" width="48.3" height="2.7"/>
			</g>
			<g>
				<rect x="42.2" y="57.7" class="st20" width="48.3" height="2.7"/>
			</g>
			<g>
				<circle class="st31" cx="38.9" cy="47.1" r="1.4"/>
			</g>
			<g>
				<circle class="st32" cx="38.9" cy="51" r="1.4"/>
			</g>
			<g>
				<circle class="st2" cx="38.9" cy="54.9" r="1.4"/>
			</g>
			<g>
				<circle class="st2" cx="38.9" cy="59" r="1.4"/>
			</g>
			<g>
				<rect x="37.5" y="63.1" class="st22" width="53" height="11.2"/>
			</g>
			<g>
				<rect x="42.2" y="76.3" class="st20" width="48.3" height="2.7"/>
			</g>
			<g>
				<rect x="42.2" y="80.2" class="st20" width="48.3" height="2.7"/>
			</g>
			<g>
				<rect x="42.2" y="84.1" class="st20" width="48.3" height="2.7"/>
			</g>
			<g>
				<rect x="42.2" y="88.2" class="st20" width="48.3" height="2.7"/>
			</g>
			<g>
				<circle class="st2" cx="38.9" cy="77.6" r="1.4"/>
			</g>
			<g>
				<circle class="st2" cx="38.9" cy="81.5" r="1.4"/>
			</g>
			<g>
				<circle class="st31" cx="38.9" cy="85.5" r="1.4"/>
			</g>
			<g>
				<circle class="st2" cx="38.9" cy="89.6" r="1.4"/>
			</g>
		</g>
	</g>
	<g>
		<g>
			<path class="st33" d="M32.7,78.9c-11.9-6.2-19.4-18.4-19.4-31.8c0-19.8,16.1-35.9,35.9-35.9S85,27.3,85,47.1c0,2.8-0.3,5.6-1,8.3
				l-2.9-0.7c0.6-2.5,0.9-5,0.9-7.6C82,29,67.3,14.2,49.2,14.2S16.3,29,16.3,47.1c0,12.3,6.8,23.5,17.7,29.2L32.7,78.9z"/>
		</g>
		<g>
			<g>
				<polygon class="st33" points="88.7,55.3 79.6,63.1 77.4,51.4 				"/>
			</g>
		</g>
	</g>
</g>
</svg>
