<?xml version="1.0" encoding="UTF-8"?>
<!DOCTYPE svg PUBLIC "-//W3C//DTD SVG 1.1//EN" "http://www.w3.org/Graphics/SVG/1.1/DTD/svg11.dtd">
<svg xmlns="http://www.w3.org/2000/svg" id="svg2" version="1.1" xml:space="preserve">
<defs id="defs6">
 <clipPath clipPathUnits="userSpaceOnUse" id="clipPath18">
  <path d="M 0,2221.78 0,0 l 2733.9,0 0,2221.78 -2733.9,0 z" id="path20"/>
 </clipPath>
</defs>
<g id="g10" transform="matrix(1.25,0,0,-1.25,0,277.725)">
 <g id="g12" transform="scale(0.1,0.1)">
  <g id="g14">
   <g id="g16" clip-path="url(#clipPath18)">
    <path d="M 859.797,0 C 543.047,0 248.223,92.8516 0,251.988 c 43.8789,-5.179 88.5273,-7.828 133.801,-7.828 262.781,0 504.629,89.672 696.59,240.102 -245.442,4.527 -452.578,166.687 -523.953,389.527 34.246,-6.551 69.382,-10.059 105.527,-10.059 51.148,0 100.703,6.852 147.769,19.668 -256.589,51.524 -449.929,278.222 -449.929,549.982 0,2.37 0.008,4.71 0.047,7.05 75.628,-42.01 162.113,-67.24 254.054,-70.15 -150.5,100.58 -249.519,272.26 -249.519,466.85 0,102.8 27.652,199.14 75.933,281.98 276.645,-339.34 689.934,-562.64 1156.09,-586.03 -9.56,41.05 -14.53,83.86 -14.53,127.82 0,309.75 251.14,560.88 560.91,560.88 161.32,0 307.09,-68.12 409.41,-177.13 127.76,25.16 247.8,71.84 356.17,136.12 -41.88,-130.98 -130.81,-240.9 -246.62,-310.32 113.46,13.56 221.56,43.71 322.15,88.32 -75.2,-112.48 -170.3,-211.27 -279.88,-290.35 1.08,-24.05 1.62,-48.24 1.62,-72.56 C 2455.64,854.672 1891.48,0 859.797,0" style="fill:#6babe1;fill-opacity:1;fill-rule:nonzero;stroke:none" id="path22"/>
   </g>
  </g>
 </g>
</g>
</svg>