<svg xmlns="http://www.w3.org/2000/svg" xmlns:xlink="http://www.w3.org/1999/xlink" width="0" height="0" style="position:absolute">

    <symbol id="icon-angleR" viewBox="0 0 22 34">
        <path d="M.877 2.96C.24 2.43.15 1.486.677.85 1.206.212 2.15.123 2.788.65L21.18 15.846c.64.527.728 1.472.2 2.11-.136.163-.3.29-.478.38L2.73 33.35c-.637.527-1.582.438-2.11-.2-.526-.636-.437-1.58.2-2.107L17.846 16.98.876 2.96z"/>
    </symbol>

    <symbol id="icon-facebook" viewBox="0 0 65 65">
        <path d="M42.67 20.974h-7.14c-.015 0-.025.077-.112.204-.166.24-.28.586-.28.998v3.762h7.533c.77 0 1.395.624 1.395 1.394v7.347c0 .77-.624 1.394-1.394 1.394h-7.53v20.673c0 .77-.625 1.395-1.395 1.395H25.32c-.77 0-1.396-.624-1.396-1.395V36.073h-6.246c-.77 0-1.395-.624-1.395-1.394v-7.35c0-.77.625-1.393 1.395-1.393h6.246v-2.932c0-3.49 1.238-6.665 3.32-8.958 2.068-2.276 4.954-3.682 8.286-3.682h7.14c.77 0 1.394.625 1.394 1.394v7.82c0 .77-.624 1.394-1.393 1.394zM4.055.5h56.89c.975 0 1.862.4 2.507 1.043l.004.002.003.003.004.003c.642.647 1.04 1.533 1.04 2.504v56.89c0 .975-.4 1.862-1.043 2.508l-.003.002-.003.003-.002.004c-.646.642-1.53 1.04-2.503 1.04H4.055c-.974 0-1.86-.4-2.507-1.043l-.002-.003-.003-.002-.003-.004C.898 62.803.5 61.918.5 60.945V4.055c0-.974.4-1.86 1.042-2.506l.003-.004.002-.002.005-.004C2.197.898 3.082.5 4.054.5zm56.89 2.787H4.055c-.213 0-.405.085-.54.22l-.006.007c-.136.135-.22.327-.22.54v56.89c0 .215.084.407.22.543l.006.005c.136.137.328.22.54.22h56.892c.213 0 .405-.083.54-.22l.007-.005c.137-.136.22-.328.22-.542V4.055c0-.214-.083-.406-.22-.542l-.006-.005c-.136-.136-.33-.22-.542-.22zm-25.413 14.9h5.747v-5.033H35.53c-2.503 0-4.673 1.057-6.226 2.767-1.625 1.79-2.59 4.3-2.59 7.085v4.326c0 .77-.625 1.395-1.395 1.395h-6.247v4.56h6.246c.77 0 1.393.625 1.393 1.395v20.672h5.638V34.678c0-.77.626-1.394 1.395-1.394h7.532v-4.56h-7.532c-.77 0-1.394-.624-1.394-1.394v-5.155c0-1.003.316-1.902.78-2.577.605-.88 1.5-1.412 2.4-1.412z"/>
    </symbol>

    <symbol id="icon-filter" viewBox="0 0 4300000 4799976">
        <defs></defs><g id="acСлой_x0020_1"><path class="fil0" d="M192388 84870h3914175c58734 0 106356 47622 106356 106384l1106 18227c0 58706-47594 106413-106385 106413H193465c-58706 0-106384-47707-106384-106413l-1106-18227c0-58762 47707-106384 106413-106384zm2179452 2919013l663479-932686 834154-1172924H466584l834125 1172924 654720 920412c13323 18623 19645 40195 19645 61455h311v926819l371964 371963V3071801c0-25852 9241-49521 24491-67918zm836336-809606l-648002 911001v1503444c0 27241-10374 54397-31152 75260-41585 41500-108908 41500-150464 0l-584846-584874c-19190-19219-31096-45865-31096-75232v-937335l-634764-892264L178725 859836c-15251-18426-24435-42123-24435-67890 0-58819 47651-106385 106385-106385h3814735v255c21317 0 42775 6378 61456 19644 47764 33931 58875 100290 25001 147969l-953691 1340848zM192388 34866h3914175c43144 0 82290 17547 110552 45808 28261 28262 45808 67437 45808 110580h-29l936 15307 198 2920c0 42917-17518 82035-45836 110381l-199 199c-28346 28318-67379 45836-110353 45836H193465c-43115 0-82290-17575-110551-45836v-199c-28262-28318-45837-67379-45837-110381h29l-936-15307-198-2920c0-42917 17518-82006 45836-110353l199-198c28346-28319 67464-45837 110381-45837zm3914175 100007H192388c-15676 0-29821 6264-39884 16327l-198 199c-10063 10063-16328 24179-16328 39855h-28l935 15307 199 2920c0 15647 6321 29792 16441 39997l85-113c10176 10176 24321 16526 39855 16526h3914175c15676 0 29793-6265 39856-16328l198-198c10063-10064 16328-24208 16328-39884h28l-935-15307-199-2920c0-15562-6321-29707-16498-39883-10176-10177-24293-16498-39855-16498zM2332778 2972758l661921-930475 778027-1094006H563331l777999 1094006 654720 920412c8986 12586 15874 26249 20665 40366h8674v956129l271956 271956V3071801c0-18340 3317-36255 9411-53065l57 29c6180-17093 15080-32655 25965-46007zm743162-872648l-663479 932686-2155 2920c-4280 5159-7653 10913-9779 16809v171c-2041 5641-3175 12104-3175 19105v1400744l-85352-85351-371963-371963-14655-14655v-897509h-312v-50003c0-6179-793-12019-2409-17150l-57 29c-1672-5273-4309-10517-7795-15421l-654720-920412L425963 927187l-56126-78917h3596354l-56098 78917-834153 1172923zm172857 123081l-638619 897820v1487711c0 20070-4025 40394-11991 59670-7653 18510-18964 35830-33817 50740l-199 198c-30529 30501-70526 45780-110381 45780-39884 0-79852-15279-110382-45780h-198l-584846-584874c-14173-14173-25767-31549-33789-50939-7682-18652-11962-38834-11962-59641v-921602l-625381-879083L139663 890960c-10913-13379-19814-28998-25993-46148-6038-16810-9383-34696-9383-52866 0-43172 17546-82319 45808-110580 28261-28262 67436-45808 110580-45808h3864739v8645c14060 4791 27723 11651 40365 20637 35093 24916 56807 61852 63411 101254 6577 39231-1757 81184-26702 116249l-953691 1340848zm-729243 853174l648002-911001 953691-1340848c8929-12558 11905-27780 9524-42038-2353-14117-10205-27440-22819-36397-4904-3487-10176-6095-15505-7795l28-57c-5102-1616-10913-2410-17065-2410h-50003v-255H260675c-15562 0-29707 6322-39884 16498-10176 10176-16497 24293-16497 39884 0 7058 1133 13606 3146 19247 2126 5924 5499 11679 9751 16809l2155 2920 949127 1334442 634764 892264 9382 13181v953067c0 7966 1503 15336 4139 21770 2693 6520 6945 12756 12302 18114l584846 584874-85 113c10942 10857 25455 16356 39969 16356 14457 0 28942-5442 39883-16270l199-199c5414-5442 9468-11679 12132-18113 2750-6690 4167-14174 4167-21799V3089546l9383-13181z"/></g>
    </symbol>

    <symbol id="icon-gear" viewBox="0 0 65 65">
        <path d="M52.94 36.25v-.004c.1-.63.646-1.11 1.302-1.11h7.234v-5.27H54.24c-.657 0-1.203-.482-1.3-1.112l-.002-.003c-.27-1.11-.617-2.48-1.03-3.778h-.004c-.406-1.28-.875-2.504-1.387-3.368-.358-.513-.31-1.226.15-1.684l5.118-5.12-5.59-5.587-5.12 5.12c-.46.458-1.172.508-1.686.15-.876-.52-2.1-.99-3.365-1.392-1.31-.415-2.665-.76-3.765-1.027-.637-.092-1.127-.64-1.127-1.303V3.523h-5.27v7.236c0 .662-.49 1.21-1.126 1.302-1.1.266-2.457.612-3.767 1.028-1.294.41-2.542.89-3.42 1.424l-.013.01-.014.007-.013.01-.013.007-.016.01-.01.006-.03.014-.02.01-.01.004-.02.01-.008.004-.02.01-.01.002-.02.01h-.008c-.212.082-.437.105-.653.074l-.03-.004-.032-.005-.03-.005-.032-.006-.03-.008-.03-.008-.06-.02-.03-.01-.03-.01v-.002l-.028-.01-.002-.002-.026-.012h-.002l-.026-.013h-.003l-.026-.014h-.003c-.13-.067-.25-.158-.352-.27L14.81 9.217l-5.59 5.59 5.117 5.12c.458.458.508 1.17.15 1.684-.522.875-.99 2.097-1.394 3.365-.413 1.3-.762 2.667-1.032 3.777v.005c-.097.63-.643 1.112-1.3 1.112H3.524v5.268h7.232c.658 0 1.203.48 1.3 1.11v.005c.272 1.11.62 2.48 1.033 3.777.402 1.268.87 2.49 1.392 3.365.36.514.31 1.227-.15 1.685l-5.12 5.12 5.59 5.592 5.088-5.09c.116-.124.252-.222.4-.292h.004l.01-.006.02-.01.03-.012.007-.003.023-.01.03-.01.008-.004.023-.008.007-.003.023-.006.007-.003.023-.007.007-.003.024-.006h.006l.024-.006c.233-.052.48-.04.716.042l.013.004.018.006.015.006.016.006.016.006.015.007.016.008.014.006.016.008.013.006.016.01.01.006.02.01.01.006.02.01.01.006.02.012c.88.537 2.133 1.02 3.435 1.435 1.3.413 2.667.762 3.778 1.032h.004c.63.1 1.112.645 1.112 1.3v7.235h5.27v-7.234c0-.656.48-1.202 1.11-1.3h.004c1.11-.272 2.48-.62 3.777-1.033 1.295-.41 2.54-.89 3.42-1.424l.013-.01.015-.008.015-.01.013-.006.02-.01.01-.006.03-.016.018-.01.01-.004.02-.01.01-.004.02-.01.01-.002.022-.01.007-.002c.212-.08.437-.104.653-.074v.002l.03.004.032.006.03.006.03.008.03.007v.002l.03.008h.002l.06.02.03.01.028.012h.002l.027.012.004.002.025.012h.003l.025.014h.003l.026.014.003.002c.13.066.25.157.353.268l5.088 5.085 5.595-5.592L50.7 45.11c-.11-.103-.2-.222-.27-.352v-.004l-.014-.025v-.004L50.4 44.7v-.002l-.01-.027h-.003l-.01-.028-.002-.002-.01-.027-.002-.002-.01-.027-.02-.06v-.002l-.008-.028-.008-.03-.008-.032-.007-.03-.006-.03-.005-.032c-.03-.216-.008-.44.073-.653l.002-.008.01-.02.003-.01.01-.02.003-.01.01-.02.004-.01.01-.02.015-.028.007-.014.01-.016.005-.014.01-.015.008-.014.01-.014c.533-.878 1.012-2.125 1.424-3.42.415-1.303.764-2.67 1.034-3.78zm-8.376-3.75c0 3.33-1.352 6.348-3.533 8.53-2.183 2.183-5.2 3.533-8.53 3.533-3.332 0-6.347-1.35-8.53-3.534-2.184-2.183-3.534-5.2-3.534-8.53 0-3.33 1.35-6.347 3.534-8.53 2.183-2.183 5.198-3.533 8.53-3.533s6.347 1.35 8.53 3.533c2.183 2.183 3.534 5.2 3.534 8.53zm-5.24 6.824c1.746-1.746 2.827-4.158 2.827-6.824 0-2.665-1.08-5.078-2.826-6.824-1.746-1.746-4.158-2.827-6.824-2.827s-5.08 1.08-6.825 2.826c-1.746 1.745-2.826 4.16-2.826 6.824 0 2.666 1.08 5.08 2.825 6.824 1.746 1.746 4.16 2.826 6.825 2.826s5.078-1.08 6.824-2.826zM53.22 43.91l5.287 5.29c.024.02.048.042.07.064.515.515.515 1.35 0 1.862l-7.45 7.45-.002-.003c-.512.513-1.342.514-1.855.003l-5.36-5.358c-.92.446-1.995.844-3.09 1.19-1.05.335-2.108.622-3.05.86v7.524c0 .728-.59 1.317-1.318 1.317H28.55c-.728 0-1.317-.59-1.317-1.318V55.27c-.943-.238-2-.525-3.052-.86-1.094-.347-2.17-.745-3.09-1.192l-5.354 5.355c-.51.515-1.343.517-1.857.005l-7.387-7.384c-.024-.02-.048-.043-.07-.066-.516-.514-.516-1.348 0-1.862l5.358-5.358c-.445-.918-.842-1.993-1.19-3.086-.333-1.05-.62-2.11-.86-3.052H2.208c-.728 0-1.317-.59-1.317-1.317V28.55c0-.727.59-1.316 1.317-1.316H9.73c.24-.943.526-2 .86-3.05.347-1.094.745-2.17 1.19-3.087l-5.358-5.36c-.514-.513-.514-1.347 0-1.86l7.45-7.45h.004c.512-.51 1.34-.512 1.855 0l5.362 5.358c.92-.446 1.995-.844 3.09-1.19 1.04-.332 2.102-.618 3.05-.858v-7.53c0-.728.59-1.318 1.317-1.318h7.9c.73 0 1.318.59 1.318 1.316v7.527c.948.24 2.01.526 3.05.857 1.092.347 2.167.744 3.086 1.19l5.358-5.358.003.002c.512-.512 1.342-.513 1.854-.002l7.386 7.384c.024.02.048.042.07.066.515.514.515 1.348 0 1.862L53.22 21.09c.45.925.85 2 1.195 3.088h-.006c.333 1.052.618 2.11.856 3.05h7.526c.728 0 1.317.59 1.317 1.318v7.902c0 .728-.59 1.317-1.318 1.317H55.27c-.238.942-.525 2-.86 3.052-.347 1.097-.744 2.173-1.19 3.092z"/>
    </symbol>

    <symbol id="icon-googlep" viewBox="0 0 65 65">
        <path d="M36.283 52.353c-.926 2.768-3.215 5.07-6.167 6.552-6.562 2.47-12.186 2.438-16.036-.085-5.896-3.866-7.017-11.948 2.462-16.71 3.236-1.626 7.12-2.2 10.69-1.58-1.493-1.512-2.674-2.943-2.336-5.17-3.224.434-6.364-1.002-8.65-3.22-2.61-2.533-4.24-6.195-4.24-9.847 0-4.073 2.163-8.018 6.262-9.145 2.107-1.04 4.74-.86 7.46-.675 2.52.17 5.132.35 6.976-.55.692-.335 1.526-.048 1.862.644.337.69.05 1.526-.643 1.863-2.047.996-4.415 1.044-6.784.92 3.138 2.535 5.133 6.593 5.133 10.638 0 2.96-1.117 5.91-3.49 7.757-.655.786-1.304 1.642-1.128 2.724.125.766 1.38 1.962 2.88 3.392 1.808 1.725 3.882 3.73 5.103 5.922 1.19 2.05 1.39 4.34.645 6.57zM4.053.5h56.892c.974 0 1.86.4 2.507 1.043l.002.003.003.002.004.003c.642.647 1.04 1.533 1.04 2.504v56.89c0 .975-.4 1.862-1.043 2.508l-.003.002-.002.003-.004.004c-.646.642-1.53 1.04-2.503 1.04H4.055c-.974 0-1.86-.4-2.507-1.043l-.002-.003-.003-.002-.003-.004C.898 62.802.5 61.918.5 60.945V4.055c0-.975.4-1.86 1.043-2.507l.003-.002.002-.003.004-.003C2.197.898 3.082.5 4.054.5zm56.892 2.787H4.055c-.214 0-.406.085-.542.222l-.005.003c-.136.136-.22.328-.22.54v56.892c0 .214.084.406.22.542l.006.005c.136.137.328.22.54.22h56.892c.213 0 .406-.083.54-.22l.007-.005c.137-.136.22-.328.22-.542V27.017c-.22.035-.462.053-.724.05h-9.283v10.687c0 .77-.623 1.394-1.393 1.394s-1.395-.624-1.395-1.394V27.066H38.232c-.77 0-1.394-.625-1.394-1.394 0-.77.623-1.395 1.393-1.395H48.92V13.592c0-.77.624-1.394 1.395-1.394.77 0 1.393.625 1.393 1.394v10.686H60.858c.315-.018.6-.01.855.02V4.054c0-.213-.084-.405-.22-.54l-.007-.006c-.134-.136-.328-.22-.54-.22zm-27.707 43.9c-1.076-1.744-2.665-2.8-4.622-3.455-3.454-1.155-7.6-.763-10.833.86-2.36 1.186-4.693 3.302-5.023 6.062-.402 3.334 2.398 5.662 5.28 6.627 3.458 1.157 7.602.765 10.834-.858 2.36-1.188 4.693-3.302 5.024-6.063.135-1.124-.106-2.206-.66-3.172zm-7.142-29.05c-1.84-1.786-4.447-2.974-7.015-2.327-2.92.76-4.285 3.647-4.285 6.482 0 2.922 1.3 5.827 3.39 7.854 1.7 1.65 4.11 2.822 6.524 2.43 3.152-.516 4.775-3.505 4.775-6.587 0-2.923-1.3-5.828-3.39-7.854z"/>
    </symbol>

    <symbol id="icon-menu" viewBox="0 0 4900000 3199995">
        <defs></defs><g id="afСлой_x0020_1"><path class="fil0" d="M4685416 1492280c55248 0 100064 48105 100064 107406s-44816 107405-100064 107405H212798c-55247 0-100063-48104-100063-107405s44816-107406 100063-107406h4472618zm-7512-1386462c55248 0 100064 48104 100064 107405 0 59302-44816 107406-100064 107406H205286c-55247 0-100063-48104-100063-107406 0-59301 44816-107405 100063-107405h4472618zm16838 2773520c55248 0 100064 48104 100064 107406 0 59301-44816 107405-100064 107405H222124c-55247 0-100063-48104-100063-107405 0-59302 44816-107406 100063-107406h4472618z"/><path class="fil1" d="M4685416 1442277c41981 0 79994 18170 107292 47481 26391 28346 42775 67238 42775 109928s-16384 81581-42775 109928c-27298 29311-65311 47481-107292 47481H212798c-41981 0-79966-18142-107292-47481-26391-28347-42775-67238-42775-109928s16384-81582 42775-109928c27326-29339 65311-47481 107292-47481h4472618zm34214 115456c-8872-9525-21033-15449-34214-15449H212798c-13209 0-25342 5924-34214 15449-9751 10488-15846 25342-15846 41953s6066 31465 15846 41953c8872 9524 21005 15449 34214 15449h4472618c13181 0 25342-5925 34214-15449 9780-10488 15846-25342 15846-41953s-6094-31465-15846-41953zM4677904 55815c41981 0 79994 18170 107292 47480 26391 28347 42775 67238 42775 109928s-16384 81582-42775 109929c-27298 29310-65311 47480-107292 47480H205286c-41981 0-79966-18142-107292-47480-26390-28347-42775-67239-42775-109929s16385-81581 42775-109928c27326-29339 65311-47480 107292-47480h4472618zm34214 115455c-8872-9524-21033-15449-34214-15449H205286c-13209 0-25342 5925-34214 15449-9751 10489-15846 25342-15846 41953 0 16612 6066 31465 15846 41953 8872 9525 21005 15449 34214 15449h4472618c13181 0 25342-5924 34214-15449 9780-10488 15846-25341 15846-41953 0-16611-6094-31464-15846-41953zm-17376 2658065c41981 0 79994 18170 107292 47480 26391 28347 42775 67239 42775 109929s-16384 81581-42775 109928c-27298 29310-65311 47480-107292 47480H222124c-41981 0-79966-18141-107292-47480-26390-28347-42775-67238-42775-109928s16385-81582 42775-109929c27326-29338 65311-47480 107292-47480h4472618zm34214 115456c-8872-9525-21033-15449-34214-15449H222124c-13209 0-25342 5924-34214 15449-9751 10488-15846 25341-15846 41953 0 16611 6066 31464 15846 41953 8872 9524 21005 15449 34214 15449h4472618c13181 0 25342-5925 34214-15449 9780-10489 15846-25342 15846-41953 0-16612-6094-31465-15846-41953z"/></g>
    </symbol>

    <symbol id="icon-rss" viewBox="0 0 65 65">
        <path d="M4.054.5h56.89c.976 0 1.862.4 2.508 1.043l.002.003.003.002.004.003c.642.647 1.04 1.533 1.04 2.504v56.89c0 .975-.4 1.862-1.043 2.508l-.003.002-.002.003-.004.004c-.646.642-1.53 1.04-2.503 1.04H4.055c-.974 0-1.86-.4-2.507-1.043l-.002-.003-.003-.002-.003-.004C.898 62.802.5 61.918.5 60.945V4.055c0-.975.4-1.86 1.043-2.507l.003-.002.002-.003.004-.003C2.197.898 3.082.5 4.054.5zm13.132 43.26c1.308 0 2.494.532 3.35 1.388.855.856 1.388 2.042 1.388 3.35s-.532 2.493-1.388 3.35c-.856.855-2.042 1.388-3.35 1.388-1.31 0-2.494-.532-3.35-1.388-.856-.856-1.388-2.042-1.388-3.35s.532-2.493 1.388-3.35c.856-.856 2.04-1.388 3.35-1.388zm-6.62-14.364c-.77 0-1.396-.625-1.396-1.396 0-.77.625-1.396 1.396-1.396 7.706 0 14.683 3.124 19.732 8.174 5.05 5.048 8.173 12.025 8.173 19.73 0 .77-.624 1.396-1.395 1.396-.77 0-1.396-.625-1.396-1.396 0-6.934-2.813-13.214-7.356-17.757-4.544-4.542-10.824-7.354-17.758-7.354zm0-15.2c-.77 0-1.396-.626-1.396-1.397 0-.772.625-1.397 1.396-1.397 11.9 0 22.682 4.827 30.48 12.625 7.8 7.8 12.626 18.58 12.626 30.48 0 .77-.626 1.396-1.396 1.396-.77 0-1.396-.625-1.396-1.396 0-11.132-4.514-21.213-11.807-28.506-7.294-7.293-17.375-11.807-28.507-11.807zM18.56 47.12c-.35-.35-.838-.567-1.374-.567-.536 0-1.025.22-1.375.568-.35.353-.57.84-.57 1.377s.22 1.024.57 1.376c.352.35.84.57 1.376.57.536 0 1.025-.22 1.375-.57.352-.352.57-.84.57-1.376s-.218-1.024-.57-1.376zM60.946 3.288H4.055c-.214 0-.406.085-.542.222l-.005.003c-.136.136-.22.328-.22.54v56.892c0 .214.084.406.22.542l.006.005c.136.137.328.22.54.22h56.892c.213 0 .406-.083.54-.22l.007-.005c.137-.136.22-.328.22-.542V4.055c0-.214-.083-.406-.22-.542l-.006-.005c-.135-.136-.33-.22-.542-.22z"/>
    </symbol>

    <symbol id="icon-search" viewBox="0 0 4900000 4900000">
        <defs></defs><path class="fil0" d="M2465846 185727c203103-84133 425511-130649 658209-130649 232726 0 455105 46516 658237 130649 210927 87393 400822 215406 559676 374091 158996 158798 287180 348493 374516 558939 84189 202877 130735 425086 130735 657755s-46546 454907-130735 657784c-87393 210502-215520 400169-374516 558967-158854 158656-348720 286727-559676 374119-203132 84133-425511 130650-658237 130650-74864 0-149472-5074-223372-14769-75288-9864-148451-24520-219063-43483-72312-19390-143292-43654-212373-72284-69619-28829-137169-62136-202026-99440L820550 4713281l-1842 1842-255 255-12586 12558h-681c-16639 15109-34384 28913-52951 41386-24605 16469-50599 30359-77358 41414l-9468 3912h-510c-52130 20155-107349 30274-162398 30274-29396 0-58933-2891-87931-8617-25002-4932-49976-12161-74467-21657h-482l-9468-3912c-26759-11055-52724-24916-77329-41414-10800-7228-21317-14939-31493-23103l-1956 1956-32117-32145-1673-1700-170-171-907-878-453-454-85-113c-42747-42860-75119-92439-97031-145419-22734-55077-34158-113584-34158-171752 0-58195 11424-116703 34158-171752 15874-38410 37304-75090 64177-108681l-1984-1984 34923-34867 226-226 227-227 34867-34923 56 56 1411805-1410330c-37531-65055-70895-132379-99582-201460-28573-68797-52867-139777-72397-212429-18993-70583-33648-143718-43569-218978-9695-73843-14769-148423-14769-223230 0-232641 46545-454850 130735-657727 87364-210474 215548-400113 374516-558939 158939-158769 348777-286783 559477-374119h199zM580766 4522933c9043-5584 18312-12784 27411-21855l1408601-1407241c-18652-15761-37304-32202-55786-49181-19474-17944-37729-35377-54482-52130-17121-17121-34725-35490-52753-55049-15563-16894-31692-35263-48218-54851L396881 4290179c-7455 7398-13691 15052-18708 22535v199c-5783 8560-10262 17093-13607 25200-4224 10148-6973 19701-8674 28148l198 28c-2296 11509-2976 21657-2976 29226 0 6236 340 13578 1389 21033 1077 7654 3033 16526 6208 26192 3402 10347 8107 21062 14372 31182 4450 7171 10063 14655 17036 22195l4961 4961c9297 9297 18482 16469 27184 21855 8958 5528 18057 9780 26929 12954l4167 1361c8504 2778 16498 4649 23585 5783v28c8390 1332 16696 1758 23556 1758 6888 0 15194-426 23584-1758v-28c7087-1134 15052-3005 23585-5783l4365-1446m2026728-1445593c167302 69364 350846 107660 543292 107660 192473 0 376046-38296 543348-107660 174162-72171 331032-177989 462277-309092 131245-131075 237120-287747 309375-461710 69478-167217 107831-350620 107831-542895s-38410-375678-107831-542838c-72284-173992-178158-330663-309375-461738-131273-131160-288143-236922-462277-309120-167302-69365-350875-107661-543348-107661-192446 0-375990 38296-543292 107661-174105 72198-330975 177988-462220 309120-131217 131075-237092 287746-309347 461710-69478 167217-107831 350591-107831 542866 0 192304 38382 375707 107803 542867 72255 173963 178130 330635 309346 461710 131245 131131 288116 236921 462249 309120z" id="ahСлой_x0020_1"/>
    </symbol>

    <symbol id="icon-twitter" viewBox="0 0 65 65">
        <path d="M48.492 25.463c-.36-.142-.634-.39-.814-.736-.21-.405-.234-.834-.078-1.288h.006c.043-.125.103-.253.18-.385-.473.03-.96-.018-1.438-.125-.87-.194-1.725-.577-2.36-.98-.49-.31-1.01-.543-1.552-.694-.55-.153-1.152-.23-1.802-.23-.895 0-1.712.152-2.45.457-.738.306-1.424.772-2.05 1.398l.003.004c-.63.63-1.098 1.313-1.402 2.048-.305.738-.457 1.555-.457 2.45 0 .258.012.504.037.735h.002c.017.154.014.308-.008.455-.085.592-.433 1.072-.98 1.397-.34.2-.78.342-1.277.397-.362.04-.77.036-1.2-.024-1.275-.18-2.53-.466-3.76-.86-1.23-.39-2.42-.883-3.568-1.476-1.146-.59-2.223-1.257-3.23-1.998-.97-.714-1.882-1.502-2.734-2.362-.03.153-.057.303-.076.448v.005c-.033.257-.05.543-.05.86 0 .553.064 1.08.19 1.582.126.5.317.98.57 1.442.135.244.275.468.42.673.144.203.305.402.48.595.405.444.66.88.76 1.27h-.005c.11.435.07.844-.126 1.213-.22.416-.58.693-1.068.813-.27.067-.592.074-.957.012l.045.136c.242.676.6 1.302 1.078 1.875.305.368.63.69.972.964h.006c.34.272.707.505 1.095.698.588.29 1.035.53 1.31.755 1.82 1.483 1.733 2.39-.83 2.723h-.004c-.126.017-.247.03-.36.04.125.164.26.324.406.478.262.278.548.535.857.767h.005c.33.248.658.455.984.62.326.162.678.298 1.054.405.52.148.948.362 1.26.627.368.31.597.69.675 1.127h.002c.084.47-.017.932-.308 1.367-.208.314-.528.605-.96.864-1.313.788-2.69 1.378-4.128 1.768-.286.078-.575.147-.866.21.47.15.948.286 1.43.403 1.57.38 3.217.57 4.938.57 1.31 0 2.568-.104 3.773-.307 1.22-.205 2.39-.51 3.51-.914 1.125-.406 2.173-.885 3.142-1.432.953-.54 1.824-1.148 2.613-1.822 1.61-1.378 3-2.963 4.166-4.752.58-.89 1.09-1.807 1.525-2.744.435-.936.795-1.887 1.078-2.854h.002c.28-.957.494-1.932.64-2.92.14-.964.21-1.936.21-2.915h.006v-.25l-.004-.227c-.01-.536.313-1.103.82-1.67.193-.22.418-.45.656-.685zM4.054.5h56.89c.975 0 1.862.4 2.508 1.043l.002.003.003.002.004.003c.642.647 1.04 1.533 1.04 2.504v56.89c0 .975-.4 1.862-1.043 2.508l-.003.002-.002.003-.004.004c-.646.642-1.53 1.04-2.503 1.04H4.055c-.974 0-1.86-.4-2.507-1.043l-.002-.003-.003-.002-.003-.004C.898 62.802.5 61.918.5 60.945V4.055c0-.974.4-1.86 1.043-2.507l.003-.002.002-.003.004-.003C2.197.898 3.082.5 4.054.5zm56.89 2.787H4.055c-.213 0-.405.085-.54.222l-.006.003c-.136.136-.22.328-.22.54v56.892c0 .214.084.406.22.542l.006.005c.136.137.328.22.54.22h56.892c.213 0 .406-.083.54-.22l.007-.005c.137-.136.22-.328.22-.542V4.055c0-.214-.083-.406-.22-.542l-.006-.005c-.135-.136-.33-.22-.542-.22zM52 21.383c-.003.367-.11.77-.34 1.19.37.122.664.34.874.654v.005c.253.377.337.81.24 1.288-.084.404-.316.843-.71 1.29h-.004c-.193.218-.383.422-.564.61-.197.204-.395.398-.587.58-.398.373-.766.73-1.006 1-.016.016-.03-.003-.045-.04l-.067-.06.002.11v.278l.007.006c0 1.1-.08 2.206-.244 3.317-.16 1.086-.4 2.187-.728 3.298v.006c-.324 1.104-.73 2.184-1.22 3.234-.487 1.05-1.062 2.08-1.72 3.093-1.314 2.02-2.88 3.803-4.69 5.352-.922.79-1.938 1.498-3.05 2.127-1.094.618-2.287 1.16-3.576 1.626-1.294.467-2.625.816-3.988 1.046-1.377.23-2.79.35-4.23.35-1.917 0-3.78-.22-5.59-.657-1.797-.435-3.528-1.088-5.19-1.958-.67-.35-1.158-.725-1.41-1.026l-.004-.005c-.204-.247-.333-.513-.38-.79h.002c-.116-.644.107-1.155.668-1.508.277-.175.613-.26.997-.243h.004c.17.008.314.014.42.017h.452c1.328 0 2.595-.162 3.798-.488.77-.21 1.517-.484 2.235-.823-.115-.053-.228-.106-.34-.163-.505-.253-.98-.547-1.42-.88v-.002c-.448-.34-.853-.7-1.212-1.082-.366-.39-.695-.808-.985-1.256-.368-.568-.572-1.133-.645-1.602l.005-.002c-.057-.375-.04-.728.043-1.024.056-.207.14-.393.247-.555-.494-.396-.95-.848-1.367-1.35-.698-.84-1.22-1.745-1.567-2.713-.35-.974-.523-2.01-.523-3.105V29.694l.68-.408h.002l.335-.203h.012c-.306-.598-.542-1.22-.705-1.866-.185-.73-.277-1.483-.277-2.258 0-.39.027-.795.083-1.217.054-.418.13-.812.23-1.178.14-.516.388-.934.71-1.25.324-.317.71-.522 1.132-.616v-.002c.397-.09.808-.078 1.206.03.507.137 1.01.433 1.443.876.766.785 1.597 1.506 2.49 2.162.894.658 1.848 1.25 2.86 1.77 1.025.53 2.07.964 3.133 1.303 1.063.337 2.165.588 3.302.748.09.013.177.02.258.023l-.003-.227c0-1.248.226-2.417.676-3.507.452-1.093 1.12-2.082 2-2.962h.006c.884-.883 1.87-1.55 2.957-2 1.09-.45 2.258-.676 3.506-.676.882 0 1.73.114 2.543.34.822.23 1.59.57 2.3 1.02.413.262.948.505 1.47.622.344.076.66.098.88.024.126-.042.296-.104.513-.186h.005c.172-.065.342-.134.508-.205.586-.25 1.134-.333 1.583-.27.442.066.817.256 1.103.567v.006c.3.33.463.746.457 1.227zm-2.21 6.39l.003.127.066.06c-.042-.114-.072-.392-.07-.197v.01z"/>
    </symbol>

    <symbol id="icon-x" viewBox="0 0 50 50">
        <path d="M2.355 49.264c.106 0 .215-.012.32-.03.1-.02.204-.052.305-.093.09-.036.182-.085.27-.144v-.002c.092-.06.178-.132.25-.203l20.724-20.723.108-.108h.002l.152-.15.26-.26.257-.257.258.26.258.257.258.258L46.5 48.792l.016.018.027.027c.07.065.146.123.22.172.064.04.13.074.192.104l.066.027c.098.04.202.07.306.092v.002c.1.02.21.03.32.03.105 0 .213-.012.316-.03.088-.02.174-.04.252-.07l.05-.02c.095-.038.19-.09.282-.15.086-.06.17-.127.244-.2.074-.075.143-.16.2-.247.05-.07.09-.144.124-.216l.025-.06c.038-.1.07-.203.09-.306h.002c.02-.098.03-.207.03-.318s-.012-.22-.03-.317l-.002-.002c-.02-.102-.052-.208-.09-.305l-.028-.065c-.033-.07-.073-.143-.12-.21-.058-.088-.126-.172-.202-.247L28.067 25.776l-.26-.26-.257-.258-.26-.257.26-.26.26-.258.258-.26L48.79 3.503c.075-.077.146-.16.204-.25.047-.07.087-.14.12-.213l.026-.063c.04-.097.07-.202.09-.305h.003c.02-.098.03-.206.03-.318 0-.11-.012-.22-.03-.317h-.002c-.02-.103-.05-.21-.09-.306l-.027-.064c-.033-.07-.073-.142-.12-.21-.058-.086-.126-.17-.202-.247-.075-.077-.16-.146-.246-.204l-.002-.003c-.073-.05-.156-.094-.24-.13L48.268.86c-.098-.04-.203-.07-.306-.092-.1-.02-.207-.03-.318-.03-.11 0-.22.01-.318.03-.105.02-.21.052-.306.092l-.065.027c-.07.033-.143.073-.21.12-.088.058-.172.126-.247.202L25.776 21.93l-.257.257-.258.26-.258.264-.26-.262-.26-.26-.26-.26L3.5 1.208c-.075-.075-.16-.145-.247-.202l-.002-.003C3.18.953 3.096.91 3.01.873L2.98.86c-.1-.04-.204-.07-.306-.092h-.002c-.097-.02-.206-.03-.317-.03-.11 0-.22.01-.318.03-.104.02-.21.052-.306.092l-.064.027c-.07.033-.142.073-.21.12-.086.058-.17.126-.247.202l-.02.017-.017.018v-.002c-.066.07-.127.147-.178.225v.002c-.055.082-.102.172-.137.257-.038.097-.07.203-.09.307-.02.1-.03.21-.03.32 0 .107.01.216.03.32H.765c.02.097.052.202.095.306.037.094.088.188.146.274.057.086.126.17.202.247l20.724 20.723.26.26.258.258.26.26-.26.258-.26.26-.26.258L1.21 46.5l-.018.018-.017.018v-.002c-.066.07-.127.146-.178.226-.055.083-.102.173-.137.258-.04.1-.07.204-.09.308H.765c-.02.1-.03.21-.03.32 0 .107.01.215.03.32.02.098.05.202.094.306.037.095.088.188.146.274.058.086.126.17.203.246l.017.018.027.027c.07.065.146.123.22.172.063.04.128.074.192.104l.065.027c.098.04.203.07.306.092v.002c.1.018.21.03.32.03z"/>
    </symbol>

    <symbol id="icon-x-boxed" viewBox="0 0 59 59">
        <path d="M1.97.468H57.03c.828 0 1.5.672 1.5 1.5V57.03c0 .83-.672 1.5-1.5 1.5H1.97c-.83 0-1.5-.67-1.5-1.5V1.97c0-.828.67-1.5 1.5-1.5zm7.905 50.06c.092 0 .187-.01.277-.027v.002c.086-.018.178-.045.265-.082v.002c.078-.033.157-.075.234-.127.08-.053.155-.115.217-.177l17.96-17.96.093-.094.133-.13.225-.224.224-.224.223.224.224.225.222.223 17.96 17.96.014.015.023.023c.062.058.126.107.19.15.055.034.11.064.166.09l.057.023c.085.034.176.062.265.08.086.017.18.026.276.026.092 0 .187-.01.275-.026.075-.015.15-.035.218-.06l.043-.018c.083-.033.167-.08.245-.132.075-.05.148-.108.212-.173.065-.065.124-.14.175-.215.04-.06.077-.123.105-.187l.02-.054c.036-.083.064-.173.08-.263h.003c.016-.085.025-.18.025-.275s-.01-.19-.025-.275v.002c-.018-.09-.045-.182-.08-.266l-.022-.057c-.028-.06-.063-.123-.104-.182-.05-.075-.11-.148-.176-.214l-17.96-17.96-.225-.223-.224-.224-.224-.223.224-.224.224-.225.225-.223 17.96-17.96c.064-.065.125-.137.176-.214.04-.06.075-.123.104-.185l.02-.054c.036-.084.064-.175.08-.264h.003c.016-.084.025-.18.025-.275 0-.096-.01-.19-.025-.275H50.5c-.017-.09-.044-.18-.08-.265l-.02-.057c-.03-.06-.064-.123-.105-.182-.05-.075-.11-.147-.176-.213-.066-.065-.14-.125-.215-.175l-.002-.003c-.063-.042-.135-.082-.21-.112l-.026-.012c-.085-.033-.176-.06-.265-.08L49.4 8.5c-.084-.017-.178-.026-.275-.026-.096 0-.19.01-.275.026V8.5c-.09.018-.18.045-.266.08l-.057.023c-.06.028-.123.063-.182.104-.076.05-.148.11-.214.175l-17.958 17.96-.223.223-.223.227-.224.228-.227-.227-.225-.225-.224-.225-17.96-17.96c-.065-.065-.14-.125-.214-.175v-.003c-.064-.042-.136-.082-.21-.112l-.027-.012c-.084-.033-.175-.06-.265-.08V8.5c-.084-.017-.178-.026-.275-.026-.096 0-.19.01-.276.026-.09.02-.18.046-.265.08l-.058.025c-.06.028-.123.063-.182.103-.075.05-.148.11-.214.175l-.014.017-.015.016c-.057.06-.11.125-.153.194-.048.072-.09.15-.12.223h.002c-.035.085-.063.177-.08.267h-.002c-.017.086-.026.18-.026.277 0 .093.01.187.027.277h-.002c.016.086.045.177.082.267.032.082.077.163.126.237.05.074.11.147.176.213l17.96 17.96.224.223.225.225.226.224-.225.223-.224.224-.224.224-17.96 17.96-.016.018-.015.015c-.057.06-.11.126-.153.194-.047.072-.088.15-.118.223-.034.086-.062.177-.08.268h-.002c-.017.086-.026.18-.026.277 0 .092.01.187.027.276h-.002c.016.086.045.177.082.267.032.082.077.163.126.237.05.074.11.147.176.214l.015.015.023.023c.062.058.126.107.19.15.055.034.112.064.167.09l.057.023c.084.034.175.062.264.08.086.018.18.027.277.027zM55.53 3.467H3.47v52.064H55.53V3.47z"/>
    </symbol>
</svg>