<svg xmlns="http://www.w3.org/2000/svg" width="1000" height="1000" viewBox="0, 0, 1000, 1000"><path d="M500 820.47c-176.99 0-320.47-143.48-320.47-320.47 0-176.99 143.48-320.47 320.47-320.47 176.99 0 320.47 143.48 320.47 320.47 0 176.99-143.48 320.47-320.47 320.47z" fill="#AB1500"/><g fill="#FFF"><path d="M429.348 735.823c-12.036-.065-22.48-3.434-32.52-9.96-4.152-2.7-8.002-6.104-10.662-10.317-2.902-4.596-3.977-9.738-4.243-15.098 0-15.936 12.92-28.855 28.855-28.855 15.937 0 28.856 12.92 28.856 28.855.02 1.445-.177 2.876-.324 4.31 1.684 2.998 4.934 3.787 8.16 3.862 13.448-.826 24.145-69.53 26.652-112.536.955-22.042.716-44.116 1.017-66.173.645-47.444 2.207-95.112 9.115-142.126 5.924-40.32 17.97-95.47 58.473-115.744 17.27-8.645 38.315-8.915 55.575-.08 5.504 2.82 1.184.667 4.25 2.464 5.22 3.058 7.95 5.574 11.347 10.6.967 1.336 1.68 2.83 2.33 4.338l-.155.11c1.425 3.32 1.912 6.933 2.002 10.516 0 15.936-12.92 28.855-28.855 28.855-10.353-.067-20.225-5.693-25.197-14.848l-.013-.01-.272-.414c-5.156-9.473-2.553-22.146-8.888-22.814-11.154-1.176-17.215 28.066-17.215 28.066-3.558 9.28-5.727 19.08-7.118 28.91-4.93 34.806-5.073 72.023-5.812 107.038-1.35 64-2.24 126.807-15.97 189.573-6.308 28.826-17.946 60.852-42.606 78.98-3.684 2.71-7.724 5.215-11.93 7.06-6.437 2.825-13.13 4.344-20.068 5.245z"/><path d="M326.902 691.657h8.355q.235-2.47 1.647-3.53 1.412-1.06 3.883-1.06 1.118 0 2.088.148.97.147 1.707.588.735.44 1.176 1.236.442.793.442 2.146.058 1.294-.765 1.97-.824.678-2.236 1.03-1.413.354-3.237.53-1.824.177-3.706.47-1.883.295-3.736.795-1.852.5-3.294 1.5-1.44 1-2.353 2.678-.912 1.677-.912 4.265 0 2.354.795 4.06.795 1.706 2.207 2.824 1.412 1.118 3.294 1.647 1.883.53 4.06.53 2.824 0 5.53-.824 2.706-.824 4.707-2.883.058.765.205 1.5.148.736.383 1.442h8.473q-.59-.942-.824-2.825-.236-1.883-.236-3.942v-15.826q0-2.765-1.236-4.442-1.235-1.677-3.177-2.618-1.94-.94-4.293-1.265-2.354-.323-4.648-.323-2.53 0-5.03.5-2.502.5-4.502 1.676t-3.295 3.118q-1.294 1.94-1.47 4.883zm19.298 6.177v3.118q0 .706-.148 1.883-.147 1.177-.794 2.324-.647 1.146-2 1.97-1.353.823-3.824.823-1 0-1.942-.176-.94-.177-1.647-.618-.706-.442-1.118-1.207-.412-.765-.412-1.883 0-1.176.412-1.94.412-.766 1.09-1.266.675-.5 1.587-.794.912-.294 1.853-.47 1-.177 2-.295t1.913-.294q.912-.176 1.706-.44.794-.265 1.324-.736z"/><path d="M667.283 300.326q0 1.883-.412 3.648-.41 1.765-1.294 3.118-.882 1.353-2.206 2.148-1.324.794-3.206.794-1.824 0-3.177-.794-1.353-.795-2.236-2.148-.88-1.353-1.293-3.118-.412-1.765-.412-3.648 0-1.94.412-3.706.412-1.765 1.294-3.118.884-1.353 2.237-2.148 1.353-.794 3.177-.794 1.882 0 3.206.794 1.324.795 2.206 2.148.883 1.353 1.295 3.118.413 1.765.413 3.706zM644.985 273.5v42.005h7.942v-3.883h.118q1.353 2.53 4 3.59 2.648 1.058 6.002 1.058 2.294 0 4.53-.94 2.235-.943 4.03-2.884 1.794-1.942 2.912-4.97 1.117-3.03 1.117-7.208 0-4.178-1.118-7.207-1.12-3.03-2.913-4.97-1.795-1.942-4.03-2.884-2.236-.94-4.53-.94-2.824 0-5.442 1.087-2.618 1.09-4.148 3.442h-.118V273.5z"/></g></svg>