<svg xmlns="http://www.w3.org/2000/svg" width="1000" height="1000" viewBox="0, 0, 1000, 1000"><path d="M613.345 61.616l368.383 438.752L386.655 1000 18.272 561.25z" fill="#F2F1F0"/><path d="M626.597 307.04L868.64 595.318" stroke="#AB1500" stroke-width="4" fill="none"/><path d="M865.13 598.265L623.086 309.988l7.02-5.895L872.15 592.37z" fill="#AB1500"/><path d="M429.74 0l496.227 286.297-388.3 673.028-496.23-286.297z" fill="#F5F4F3"/><path d="M526.132 226.09L852.174 414.2" stroke="#AB1500" stroke-width="4" fill="none"/><path d="M849.883 418.17L523.84 230.06l4.582-7.94 326.043 188.11z" fill="#AB1500"/><g><path d="M250.617 4.816l564.22 99.31-134.693 765.246-564.222-99.31z" fill="#F8F7F6"/><path d="M289.184 53.187l28.44 5.006q6.862 1.208 10.846 3.957 3.984 2.75 5.807 6.142 1.823 3.392 2.06 7.065.24 3.672-.285 6.65-.525 2.98-1.994 6.306-1.47 3.325-4.342 5.89-2.872 2.567-7.547 3.746-4.677 1.177-11.538-.03l-17.155-3.02-4.354 24.738-11.286-1.986zm5.914 32.504l16.523 2.91q1.897.332 3.978.14 2.082-.192 3.967-1.117 1.885-.924 3.28-2.773 1.396-1.85 1.937-4.92.556-3.16.02-5.394-.54-2.236-1.86-3.725-1.32-1.488-3.226-2.29-1.907-.8-4.164-1.197l-16.703-2.94zm52.862-22.157l10.293 1.81-4.21 23.927.18.032q2.452-2.826 6.572-4.288 4.12-1.463 8.725-.652 7.674 1.35 11.4 6.102 3.724 4.75 2.326 12.697l-5.642 32.052-10.293-1.81 5.166-29.345q.79-5.54-.94-8.403-1.73-2.864-6.335-3.675-2.618-.462-4.86.12-2.245.583-3.983 2-1.74 1.415-2.95 3.53-1.21 2.114-1.654 4.642l-4.847 27.537-10.292-1.812zm43.548 26.002l11.286 1.987 6.054 36.996.18.032 17.963-32.77 10.745 1.892-26.81 46.012q-1.82 2.938-3.546 5.612-1.73 2.675-3.88 4.577-2.15 1.902-4.997 2.75-2.85.85-6.912.134-3.61-.636-7.036-1.798l1.525-8.668q1.23.403 2.365.835 1.134.433 2.4.655 1.804.318 3.057.073 1.254-.245 2.172-.967.918-.723 1.667-1.802.75-1.078 1.47-2.533l1.81-3.405zm54.192 42.21q-.343 4.595 2.318 6.925 2.662 2.33 6.815 3.062 1.445.254 3.336.354 1.89.1 3.626-.246t2.99-1.382q1.252-1.036 1.51-3.038.26-2.003-.872-3.505-1.13-1.502-3.118-2.643-1.987-1.14-4.6-2.16-2.613-1.018-5.3-2.143-2.78-1.14-5.283-2.513-2.505-1.372-4.356-3.28-1.852-1.908-2.695-4.523-.843-2.616-.223-6.137.666-3.792 2.97-6.04 2.304-2.247 5.426-3.326 3.122-1.078 6.71-1.1 3.587-.02 6.747.537 3.61.636 6.772 1.984 3.16 1.348 5.522 3.532 2.36 2.185 3.637 5.248 1.276 3.064 1.044 7.026l-10.744-1.89q-.07-3.83-2.512-5.563-2.44-1.733-5.872-2.337-1.083-.19-2.605-.272-1.52-.082-2.918.184-1.396.266-2.466 1.055-1.07.79-1.34 2.324-.333 1.896.77 3.3 1.103 1.405 3.09 2.546 1.986 1.14 4.6 2.16 2.612 1.018 5.39 2.158 2.688 1.126 5.238 2.505 2.55 1.38 4.4 3.288 1.853 1.91 2.75 4.487.894 2.577.29 6.008-.73 4.154-3.135 6.71-2.405 2.554-5.747 3.828-3.342 1.273-7.187 1.434-3.846.16-7.458-.474-4.424-.78-7.996-2.432t-5.968-4.17q-2.396-2.515-3.444-5.818-1.047-3.302-.407-7.47zM493.774 89.2l10.293 1.812-1.717 9.75-10.293-1.81zm-3.13 17.786l10.292 1.812-8.216 46.678-10.293-1.81zm50.248 24.95q.13-4.446-2.324-7.16-2.454-2.712-6.788-3.474-1.986-.35-4.363-.07-2.376.28-4.598 1.797-2.223 1.517-4.067 4.59-1.844 3.073-2.782 8.4-.507 2.89-.338 5.897.168 3.01 1.26 5.528 1.093 2.52 3.194 4.332 2.1 1.813 5.442 2.4 4.514.795 7.94-1.487 3.428-2.282 5.04-7.21l10.293 1.81q-3.048 8.865-9.36 12.734-6.314 3.87-15.342 2.28-5.508-.97-9.38-3.56-3.873-2.588-6.198-6.302-2.325-3.714-3.036-8.4-.71-4.686.195-9.833.92-5.236 3.176-9.587 2.255-4.35 5.74-7.227 3.485-2.877 8.115-4.063 4.632-1.186 10.41-.17 4.063.716 7.537 2.398 3.474 1.682 5.952 4.26 2.478 2.576 3.727 6.054 1.25 3.477.848 7.874zm23.626 20.726q-.344 4.594 2.318 6.924t6.815 3.06q1.445.255 3.336.355 1.89.1 3.627-.246 1.737-.346 2.99-1.382 1.252-1.037 1.512-3.04.26-2-.873-3.503-1.132-1.504-3.118-2.645-1.987-1.14-4.6-2.16-2.614-1.018-5.3-2.142-2.78-1.14-5.284-2.512-2.504-1.37-4.356-3.28-1.85-1.908-2.694-4.523-.843-2.615-.223-6.136.667-3.79 2.97-6.04 2.305-2.246 5.427-3.325 3.122-1.08 6.71-1.1 3.586-.02 6.747.536 3.612.637 6.772 1.984 3.16 1.348 5.522 3.532t3.638 5.248q1.276 3.063 1.044 7.025l-10.744-1.892q-.07-3.83-2.512-5.562-2.44-1.732-5.872-2.336-1.083-.19-2.605-.273-1.522-.08-2.918.185-1.397.266-2.466 1.055-1.07.79-1.34 2.324-.335 1.897.768 3.3 1.102 1.405 3.09 2.546 1.985 1.14 4.6 2.16 2.612 1.018 5.39 2.16 2.688 1.123 5.237 2.503 2.55 1.38 4.4 3.287 1.853 1.908 2.75 4.486.895 2.578.29 6.01-.73 4.152-3.134 6.708t-5.746 3.83q-3.343 1.273-7.188 1.434-3.844.16-7.456-.475-4.424-.78-7.996-2.432-3.572-1.653-5.968-4.17-2.397-2.515-3.444-5.818-1.048-3.303-.407-7.472z"/><path d="M359.953 265.53l42.203 7.43-1.56 8.867-31.94-5.622-2.703 15.354 29.56 5.202-1.475 8.375-29.56-5.203-3.02 17.16 32.515 5.724-1.56 8.868-42.78-7.53zm104.778 70.335l-41.38-7.284 1.473-8.374 41.382 7.284zm2.92-16.586l-41.382-7.285 1.474-8.375 41.382 7.284zm34.787-11.993l8.867 1.56-1.04 5.912.246.043q1.342-1.373 2.805-2.47 1.463-1.096 3.14-1.732 1.68-.635 3.743-.822 2.065-.187 4.61.26 3.86.68 6.88 2.99 3.023 2.31 3.783 6.168 2.96-2.865 6.412-4.204 3.453-1.34 8.133-.516 6.733 1.185 9.89 5.127 3.158 3.942 1.8 11.66l-5.16 29.312-9.36-1.647 4.365-24.797q.448-2.544.652-4.667.204-2.122-.308-3.78-.513-1.655-1.928-2.75-1.416-1.096-4.125-1.573-4.762-.838-7.417 1.742-2.655 2.58-3.61 8l-4.378 24.878-9.36-1.648 4.798-27.26q.78-4.433-.423-6.973-1.204-2.54-5.473-3.292-1.807-.318-3.62.124-1.813.443-3.332 1.615-1.518 1.172-2.66 3.087-1.14 1.915-1.603 4.543l-4.437 25.207-9.36-1.648zm97.59 31.82q.117-4.04-2.115-6.508t-6.173-3.16q-1.808-.32-3.97-.065-2.16.255-4.18 1.634-2.02 1.38-3.698 4.174-1.677 2.794-2.53 7.64-.462 2.626-.31 5.362.155 2.736 1.148 5.027.994 2.29 2.904 3.94 1.91 1.648 4.95 2.183 4.105.722 7.22-1.353 3.118-2.076 4.584-6.558l9.36 1.647q-2.773 8.062-8.514 11.58-5.74 3.52-13.952 2.073-5.008-.88-8.53-3.236-3.522-2.357-5.636-5.734-2.114-3.377-2.76-7.64-.648-4.26.176-8.94.838-4.763 2.89-8.72 2.05-3.956 5.22-6.572 3.17-2.617 7.38-3.696 4.21-1.078 9.465-.153 3.695.65 6.854 2.18 3.16 1.53 5.414 3.873 2.254 2.343 3.39 5.506 1.137 3.163.772 7.162z"/><path d="M638.954 328.57l-24.53-4.317q.837-4.455 3.528-7.42 2.69-2.966 6.77-4.788 1.97-.975 4.08-1.847 2.11-.872 3.946-1.977 1.835-1.105 3.145-2.54 1.31-1.437 1.733-3.532.172-.975.135-2.12-.036-1.143-.536-2.21-.5-1.066-1.567-1.915-1.068-.85-2.966-1.184-1.744-.308-3.02.182-1.277.49-2.182 1.573-.905 1.084-1.528 2.668-.623 1.583-1.008 3.473l-5.85-1.03q.524-2.976 1.766-5.377 1.243-2.4 3.16-3.968 1.915-1.568 4.383-2.218 2.47-.65 5.498-.117 3.284.578 5.3 2.044 2.018 1.467 3.09 3.35 1.07 1.88 1.296 3.904.225 2.024-.082 3.77-.38 2.154-1.353 3.78-.976 1.63-2.362 2.893-1.386 1.263-3.04 2.242-1.654.978-3.383 1.785-1.73.806-3.44 1.51t-3.192 1.45q-1.48.744-2.64 1.624-1.16.88-1.727 1.997l17.5 3.08z"/><path d="M338.784 426.966l40.574 6.563-1.438 8.888-30.286-4.9-2.49 15.39 26.584 4.3-1.358 8.395-26.583-4.3-4.22 26.09-10.288-1.665zm102.698 68.382l-41.48-6.71 1.36-8.394 41.478 6.71zm2.69-16.625l-41.48-6.71 1.358-8.394 41.48 6.71zm34.616-12.473l8.888 1.438-.958 5.925.247.04q1.322-1.39 2.77-2.508 1.447-1.117 3.116-1.776 1.67-.66 3.732-.875 2.062-.216 4.613.197 3.868.626 6.922 2.893 3.054 2.268 3.867 6.115 2.92-2.906 6.353-4.293t8.124-.628q6.75 1.09 9.962 4.988 3.212 3.898 1.96 11.634l-4.752 29.38-9.382-1.516 4.02-24.855q.413-2.55.588-4.675.175-2.126-.36-3.775-.536-1.65-1.967-2.725-1.43-1.076-4.147-1.515-4.774-.772-7.393 1.845-2.62 2.616-3.497 8.048l-4.034 24.937-9.383-1.518 4.42-27.323q.718-4.445-.52-6.968-1.24-2.523-5.52-3.215-1.81-.293-3.616.175-1.806.467-3.308 1.66-1.502 1.193-2.617 3.124-1.115 1.93-1.54 4.564l-4.088 25.267-9.382-1.518zm101.885 50.43q-.28 1.73.054 2.543.332.814 1.65 1.027l.987.16q.576.093 1.343.048l-1.05 6.502q-.522.084-1.337.164t-1.665.11q-.85.032-1.686-.02-.837-.05-1.413-.143-2.88-.465-4.587-1.923-1.707-1.46-1.817-4.432-3.237 2.263-7.51 2.838-4.274.576-8.06-.036-2.88-.466-5.388-1.674-2.507-1.208-4.277-3.057-1.77-1.848-2.584-4.387-.814-2.54-.308-5.667.64-3.95 2.478-6.186 1.84-2.236 4.412-3.256 2.572-1.02 5.593-1.164 3.02-.144 6.037.006 2.63-.08 4.97.086 2.336.167 4.186-.04 1.85-.208 3.044-1.07 1.195-.863 1.528-2.92.293-1.81-.385-3.103-.678-1.292-1.853-2.116-1.176-.824-2.707-1.283-1.53-.46-2.93-.685-3.95-.64-6.767.594-2.818 1.234-3.706 4.637l-9.382-1.518q.912-4.075 3.08-6.51 2.168-2.437 5.11-3.65 2.94-1.214 6.42-1.327 3.48-.112 7.02.46 3.127.506 6.066 1.657 2.94 1.15 5.128 3.025 2.188 1.874 3.29 4.46 1.102 2.585.556 5.96zm-7.465-13.368q-2.366 1.053-5.54.835-3.174-.218-6.395-.148-1.52.007-2.993.233-1.473.226-2.67.835-1.195.61-2.02 1.785-.823 1.176-1.115 2.986-.253 1.563.48 2.78.73 1.216 1.907 2.04 1.176.823 2.658 1.316 1.483.493 2.717.693 1.564.252 3.44.133 1.878-.12 3.643-.847 1.765-.728 3.08-2.077 1.317-1.35 1.676-3.573z"/><g stroke="#000" stroke-width="1.819" stroke-linecap="round" fill="none"><path d="M340.815 416.762l39.68 6.42"/><path d="M380.494 423.18l-8.973-12.436"/></g><g stroke="#000" stroke-width="1.819" stroke-linecap="round" fill="none"><path d="M550.44 468.315l39.68 6.42"/><path d="M590.12 474.734l-8.975-12.437"/></g><path d="M298.396 613.01l25.863 4.552q6.24 1.1 9.863 3.6 3.623 2.5 5.28 5.584 1.66 3.085 1.875 6.425.217 3.34-.26 6.05t-1.814 5.733q-1.336 3.024-3.948 5.358-2.61 2.335-6.863 3.406-4.252 1.072-10.492-.026l-15.6-2.746-3.96 22.497-10.263-1.805zm5.378 29.56l15.026 2.644q1.724.303 3.617.128 1.893-.174 3.607-1.015 1.715-.842 2.984-2.523 1.27-1.68 1.76-4.473.507-2.872.018-4.905-.49-2.033-1.69-3.388-1.2-1.354-2.934-2.082-1.734-.73-3.787-1.09l-15.19-2.674zm102.437 41.308l-41.38-7.283 1.473-8.375 41.383 7.283zm2.92-16.585l-41.382-7.284 1.475-8.376 41.382 7.284z"/><path d="M505.2 669.012l-8.867-1.56 1.012-5.748-.164-.03q-2.538 3.363-6.433 4.328-3.894.965-7.918.257-5.01-.882-8.434-3.305-3.425-2.423-5.354-5.895-1.928-3.47-2.43-7.834-.502-4.364.336-9.126 1.012-5.747 3.31-9.66 2.296-3.913 5.36-6.167 3.063-2.255 6.612-2.942 3.55-.686 6.998-.08 1.97.347 3.958 1.078 1.988.73 3.732 1.884 1.744 1.154 3.12 2.708 1.378 1.555 2.142 3.467l.164.03 3.815-21.677 9.36 1.647zm-29.022-26.525q-.477 2.71-.24 5.46.234 2.75 1.31 5.055 1.076 2.306 3.076 3.928 2 1.622 5.038 2.156 3.12.55 5.61-.367 2.488-.917 4.3-2.8 1.814-1.88 2.98-4.426 1.17-2.546 1.66-5.338 1.243-7.06-1.224-11.56-2.468-4.496-7.887-5.45-3.283-.578-5.78.38-2.496.957-4.316 2.88-1.82 1.923-2.92 4.565-1.1 2.643-1.606 5.517zm45.09-31.088l10.427 1.834 2.7 46.695.165.028 19.714-42.75 10.51 1.85 3.604 46.854.165.03 18.81-42.91 10.43 1.836-26.496 55.778-10.427-1.836-3.85-46.897-.165-.03-19.878 42.722-10.592-1.864z"/><path d="M507.708 774.873l-8.868-1.56 1.012-5.75-.164-.028q-2.54 3.363-6.434 4.328-3.894.965-7.918.257-5.008-.88-8.433-3.304-3.426-2.423-5.354-5.895-1.93-3.47-2.43-7.834-.503-4.363.335-9.125 1.012-5.747 3.31-9.66 2.296-3.912 5.36-6.167 3.063-2.254 6.612-2.94 3.55-.69 6.998-.082 1.97.348 3.958 1.08 1.988.73 3.732 1.883 1.744 1.154 3.12 2.708 1.378 1.556 2.142 3.468l.164.03 3.816-21.678 9.36 1.648zm-29.023-26.526q-.477 2.71-.24 5.46.234 2.75 1.31 5.056 1.075 2.306 3.076 3.928 2 1.622 5.04 2.157 3.12.55 5.608-.367 2.49-.916 4.302-2.798 1.812-1.882 2.98-4.428 1.168-2.545 1.66-5.337 1.242-7.06-1.225-11.56-2.468-4.496-7.887-5.45-3.284-.578-5.78.38-2.497.956-4.317 2.88-1.82 1.922-2.92 4.565-1.1 2.642-1.605 5.515zm42.406-14.883l7.063 1.242 2.24-12.726 9.36 1.647-2.24 12.727 8.457 1.49-1.228 6.978-8.458-1.49-3.988 22.663q-.26 1.478-.325 2.567-.064 1.09.258 1.907.32.818 1.16 1.346.837.53 2.397.803.986.173 1.978.305.993.133 2.02.06l-1.27 7.225q-1.59-.11-3.096-.206-1.507-.096-3.067-.37-3.695-.65-5.83-1.746-2.135-1.096-3.17-2.674-1.034-1.58-1.124-3.71-.09-2.134.29-4.776l4.408-25.042-7.06-1.243z"/><path d="M597.946 713.605l-153.78-27.116.882-5.003 153.78 27.115z"/><path d="M788.446 254.07L417.73 188.816l1.59-9.03 370.715 65.253z" fill="#AB1500"/></g></svg>