<svg xmlns="http://www.w3.org/2000/svg" width="1000" height="1000" viewBox="0, 0, 1000, 1000"><path d="M500 820.47c-176.99 0-320.47-143.48-320.47-320.47 0-176.99 143.48-320.47 320.47-320.47 176.99 0 320.47 143.48 320.47 320.47 0 176.99-143.48 320.47-320.47 320.47z" fill="#AB1500"/><path d="M723.252 353.102c3.833-.117 7.73-1.15 10.547-3.978.716-.718 1.395-1.633 1.778-2.59l-1.87.32c-2.797.374-5.46.076-8.09-.858-2.763-.982-3.51-1.628-6.434-2.232-1.72-.355-2.608-.246-4.205-.173-1.78.256-2.323.25-4.258 1.08-3.158 1.354-5.913 4.255-7.14 7.513 5.287.655 10.622.79 15.95.952zm-32.96-20.694c.33-.016.675.052.993-.05.692-.22 1.384-.49 1.99-.897 2.558-1.717 4.33-5.806 5.71-8.548 2.106-4.18 2.693-7.638-1.86-5.847-6.88 3.186-13.394 7.124-19.92 11 4.293.387 7.833 3.787 13.087 4.343zm69.787-62.637l-.303-.825c.343-1.117 1.057-1.975 1.77-2.84.16 2.738.088 1.504.214 3.7-.907.186-.347.13-1.68-.034zm-71.18-63.735c-1.844-2.588-3.805-5.072-5.558-7.74-.365-.557-1.108-1.737-1.38-2.542-.07-.205-.086-.433-.128-.65l.16-.408c.16-.048.32-.143.483-.143.337 0 1.052.18 1.393.333.333.15.668.292 1 .446.404.19.815.364 1.205.58 1.047.577 2.068 1.518 3.035 2.25l-.204 2.883zm57.11 534.173s1.493-36.978 3.593-45.222c2.1-8.245-.78-19.133-.78-19.133s-10.407 1.613-15.056 10.26c-4.648 8.646-18.998 21.576-18.998 21.576s-13.752 37.658-12.012 21.844c.352-3.198.17-18.157 6.792-26.476 6.62-8.318 17.577-20.032 18.243-23.2.666-3.167 6.018-17.696 8.814-23.457 2.797-5.76 9.902-24.095 11.295-45.023 1.392-20.928 2.38-44.305 1.418-56.445-.96-12.14-1.74-59.056-.033-69.02 1.708-9.96 2.414-18.03-4.457-19.35-6.872-1.323-10.58 3.514-22.31 5.57-11.728 2.055-26.626-2.65-32.693-.27-6.068 2.382-23.29 3.122-28.403-.883-5.114-4.006-25.827-25.886-15.83-21.274 9.996 4.612 13.01 15.85 23.12 17.372 10.11 1.522 25.968-4.22 33.834-1.886 7.865 2.334 10.28 3.206 5.145-8.303-5.134-11.51-1.097-6.012 4.566 2.206 5.66 8.217 3.03 8.813 10.75 8.026 7.72-.787 14.466-8.265 20.443-6.26 5.976 2.006 5.05-.186 5.906-2.79.854-2.606-12.392 1.29-22.713-8.746-10.32-10.035-11.53-6.93-14.57-12.488-2.967-5.24-7.54-9.07-12.773-11.784l-.093-.14-.79-.645c-3.195-2.283-6.545-4.597-8.783-7.92.48-.122.966-.222 1.455-.304-1.724-.28-.857-.168-2.602-.334l.01-.238.25-.173c-1.824 1.026 4.636.307 3.065.65l-.723.096c3.868.742 7.737 1.072 11.51 2.225 2.756 2.122 14.388 13.324 16.04 15.157 1.652 1.834 4.215-9.8 5.137-4.866.922 4.935.258 9.59 1.55 11.764 1.293 2.173 8.302 7.112 10.34 7.936 2.036.824 12.502 2.724 12.502 2.724l4.808-.963s.17-6.38.236-12.537c.066-6.156-2.805-11.753-1.14-16.367 1.665-4.614-33.796-12.982-35.477-14.142-1.682-1.16-8.174-5.835-9.852-4.64-1.68 1.197-13.46 8.355-7.674-.336 5.788-8.69 7.28-7.56 10.667-4.46 3.388 3.103 7.777 2.625 9.63 5.02 1.854 2.395 34.164 6.443 34.164 6.443s-12.543-11.28-11.977-15.236c.566-3.956-12.916-10.9-15.967-11.283-3.05-.382-3.878.567-11.455.892-7.577.325-13.293-.15-17.757-.49-4.464-.342-6.814 6.607-10.592 8.062-3.778 1.454-9.722 3.434-15.575 5.014-4.67 1.574-10.043 2.536-13.948 5.828l-.016.003-.926.46c-.153.097-1.065.676-1.347.853-.553.347-1.028.64-1.495.916a29.81 29.81 0 0 1-2.627 1.405l-1.042.437-.096.03-.24-.912c-.025-.037-.05-.074-.073-.112l1.893-1.948c3.665-4.208 7.772-6.955 12.518-7.618 4.747-.663 9.62-2.23 15.518-6.064 5.898-3.836 9.69-3.503 11.19-6.394 1.5-2.89 4.95-4.526 9.324-4.932 4.373-.407 10.812 1.685 14.335.883 3.523-.802 6.242-1.663 6.242-1.663l9.413-5.335s3.252-10.99-14.44-7.322c-17.69 3.668-13.07 1.73-22.24.378-9.172-1.35-16.597 1.455-20.475 4.614-7.174 5.622-14.337 11.522-22.332 15.914-2.882 1.584-6.427 2.288-9.55 3.273l-.44-1.112c-3.002 2.884-6.755 3.395-10.546 5.106-1.654.747-3.256 1.615-4.832 2.522-.628.36-1.078 1.056-1.764 1.276-6.768 2.168-18.73 4.053-26.298 5.006-4.572.526-17.96.78-20.616 3.832-2.658 3.052-12.31-.226-20.26 3.526-7.95 3.752-6.072 7.357-16.79 11.042-10.72 3.685-19.473 4.146-29.15 3.282-9.678-.864-24.75-2.427-30.437-.826-5.688 1.602-9.96-1.924-18.546-4.652-8.586-2.727-22.63-6.45-22.63-6.45s-7.99-6.704 1.5-5.356c9.488 1.348 29.702 7.2 32.55 8.594 2.848 1.394 1.202-2.744 12.543.23 11.34 2.97 23.357 3.114 25.973 3.522 2.617.408 15.154-2.834 18.86-3.302 3.705-.468 7.978.83 18.11-7.583 10.13-8.412 13.87-9.892 18.896-9.49 5.026.404 13.183-4.198 16.162-9.262 2.978-5.065 7.086-4.82 4.928-.195-2.158 4.627-4.56 7.26 4.994 4.927 9.554-2.334 20.51-4.76 24.405-6.348 3.893-1.59 12.234-8.213 16.18-10.072 3.946-1.858 12.43-5.153 12.43-5.153s-11.938-4.45-17.555-5.653c-5.617-1.203-19.745-1.73-12.198-4.963 7.547-3.23 5.495-1.29 13.266.453 7.77 1.743 14.516 4.132 17.836 4.732 3.32.6 9.762-1.2 12.268-3.504 2.505-2.303 9.32-8.3 5.4-10.335-3.922-2.035-6.747-4.568-14.69-3.97-7.944.597-13.903-1.474-18.03-1.51-4.126-.036-13.503.62-20.26-1.14-6.756-1.76-25.732-2.173-29.62-1.406-3.89.766-21.022-.33-30.12 1.337-9.097 1.665-21.808 8.31-30.43 9.36-8.623 1.05-20.465-.37-23.66-.118-3.197.252-32.078 4.302-49.487 1.71-17.408-2.59-32.15-2.285-33.403-2.24-8.546.14-21.9 1.182-29.008-1.975-7.11-3.157-17.597-3.534-23.33-8.502-5.73-4.97-16.948-26.258-12.715-23.81 4.234 2.45 12.33 17.796 16.99 19.373 4.66 1.577 13.356 3.262 22.29 4.172 8.932.91 16.84 1.25 22.39 1.5 9.69.437 9.217 2.013 17.974 2.175 8.756.16 27.846.44 27.846.44s31.69-.805 33.784-.796c2.096.01 26.468-3.275 31.628-4.34 5.16-1.066 8.613-1.647 12.852-4.35 4.24-2.7 16.122-6.09 20.805-7.36 11.91-3.23 19.34-6.202 10.426-10.66-11.74-5.87-29.14-16.563-32.214-16.613-3.074-.05-12.46-6.795-16.288-14.64-3.83-7.846-18.51-34.938-9.334-24.886 9.175 10.05 10.302 20.226 18.232 25.843 7.93 5.618 17.1 10.288 22.088 10.835 4.99.546 15.167 4.332 16.995 5.66 1.827 1.328 14.917 7.915 16.826 10.897 3.63 5.67 5.792 2.462 10.302 9.242 4.51 6.78 14.483 5.65 21.596 6.444 7.112.794 25.24-1.893 28.2-3.79 2.958-1.897 34.157-9.08 22.567-14.825-11.59-5.745-27.474-10.834-19.34-11.917 8.134-1.082 17.308 2.866 22.16 5.847 4.85 2.982 17.285 13.724 23.034 4.86 5.748-8.865.625-4.35 12.376-6.02 11.75-1.67 18.567-1.427 14.005-8.426-4.563-7-16.872-19.964-17.51-25.606a21.28 21.28 0 0 0-1.047-4.364c-6.316 1.147-12.644 2.212-18.943 3.456-1.486-1.478-3.456-2.08-5.483-2.33-1.255-.086-2.645-.047-4.826.08-.956.058-4.77.315-5.522.362-1.01.057-2.022.116-3.032.17-.15.01-.303.053-.445.018-.312-.077-.59-.252-.897-.347-2.538-.79-5.14-1.366-7.745-1.915-2.007-.426-3.835-.77-5.245-.976-.984-.145-1.806-.233-2.603-.253-.97-.024-1.833.027-2.968.304-1.69.413-3.3 1.142-4.994 2.78l-.317.352c-4.965-1.46-9.952-2.89-14.783-4.738-3.61-1.434-13.632-6.72-16.92-5.223-3.286 1.497-9.014-5.25-16.522-5.335-7.508-.084-7.676 3.747-17.206 2.467-9.53-1.28-16.21-4.485-23-9.196-6.79-4.71-17.27-12.23-22.174-13.21-4.903-.978-6.54-5.725-11.718-11.568-5.176-5.844-13.964-14.774-13.964-14.774s-3.015-8.973 3.427-3.93c6.442 5.044 18.877 18.318 20.382 20.67 1.505 2.355 2.076-1.832 9.186 5.35 7.11 7.184 15.944 12.245 17.705 13.666 1.76 1.42 12.443 3.823 15.39 4.95 2.944 1.125 5.547 3.982 16.684 1.01 11.138-2.974 14.546-2.693 18.093-.285 3.547 2.407 11.576 1.855 15.97-1.218 4.396-3.072 7.332-1.177 3.734 1.862-3.6 3.038-6.516 4.285 1.566 6.232s17.242 4.393 20.812 4.645c3.57.253 12.61-1.94 16.334-1.894 3.725.045 11.43.736 11.43.736s-6.912-8.682-10.55-12.012c-3.638-3.33-13.87-9.584-6.884-9.224 6.984.36 4.626 1.163 9.625 5.836 5 4.673 8.96 9.47 11.158 11.346 2.198 1.874 7.746 2.995 10.597 2.07 2.967-.895 5.78-2.254 8.585-3.578-2.286-3.768-5.258-6.803-6.87-11.012-1.203-.863-.43-.36-2.405-1.368-6.14-2.758-9.655-6.964-12.695-8.69-3.04-1.727-10.264-5.026-14.505-9.296-4.24-4.27-18.11-12.42-21.32-13.367-3.21-.948-15.42-8.918-22.875-11.244-7.455-2.326-19.74-1.912-26.576-4.566-6.836-2.654-14.988-8.726-17.464-9.824-2.475-1.1-25.607-9.534-37.374-18.887-11.768-9.353-22.812-15.154-23.76-15.63-.95-.478-11.684-11.427-20.05-12.342-8.368-.915-18.703-5.52-22.6-11.12-3.9-5.602-11.5-10.232-13.593-16.803-2.096-6.57-1.194-29.245.88-25.426 2.076 3.818 1.433 20.165 4.2 23.42 2.77 3.252 8.478 8.256 14.698 12.7 6.22 4.444 14.458 7.134 19.194 7.59 4.737.46 11.78 3.45 16.22 5.76 4.437 2.307 8.496 12.485 14.91 16.222a7970.372 7970.372 0 0 0 20.424 11.818s23.807 12.342 25.354 13.212c1.547.87 21.01 8.1 25.29 9.316 4.28 1.216 7.09 2.143 11.396 1.593 4.306-.55 14.946 4.826 18.585 2.305 3.64-2.522 3.627-12.316-4.802-19.774-8.43-7.46-19.31-20.88-21.564-22.185-2.254-1.304-6.284-10.885-5.727-19.116.558-8.23 1.408-37.25 3.853-24.95 2.445 12.3-1.12 21.394 2.32 29.42 3.44 8.025 8.21 15.756 11.667 18.27 3.457 2.514 16.705 13.99 17.484 15.87.78 1.877 7.002 13.01 7.746 16.16.744 3.15 4.204 6.523 7.847 8.587 3.643 2.065 1.712-8.265 2.37-12.917.66-4.652 4.74-10.328 4.803-.634.06 9.694-.463 14.114 2.904 16.52 3.367 2.407 7.33 2.778 7.736 10.384.408 7.606.927 6.667 5.85 10.263 6.605 3.956 13.965 7.142 21.66 8.36l2.262 14.463c3.747 3.13 6.534 7.01 8.147 11.663 1.7 6.36 2.524 11.958 7.094 16.262 4.57 4.303 7.522 12.83 11.31 16.163 3.788 3.334 10.228 10.224 11.245 14.196 1.016 3.972 4.802 1.147 10.184-3.673 5.382-4.818 4.972-7.903 9.13-12.855 4.16-4.952 20.038-11.68 12.152-2.9-7.885 8.777-10.5 12.835-13.696 16.568-3.198 3.734 13.47-4.185 14.65-.066 1.18 4.12 10.845 3.06 16.394 4.67 5.55 1.607 29.183 18.165 29.183 18.165 28.285 49.93 23.914 94.796 29.357 156.743 6.573 74.812-20.518 151.784-23.31 227.005l-23.326-.722-20.375-22.55s-3.078 7.522-9.516 29.366c-6.44 21.843-10.944 33.864-10.944 33.864z" fill="#FFF"/><path d="M443.6 413.144c.13-1.612-8.617-1.132-13.128 9.347-3.134 7.278.2 6.833.2 6.833s11.494 1.573 12.928-16.18z" fill="#FFF"/><path d="M358.048 334.752c.37-1.574-8.352-2.405-14.376 7.282-4.185 6.73-.822 6.786-.822 6.786s11.13 3.272 15.198-14.068z" fill="#FFF"/><path d="M515.546 275.276c.723-1.447-7.57-4.27-15.67 3.766-5.624 5.58-2.365 6.413-2.365 6.413s10.076 5.753 18.036-10.18z" fill="#FFF"/><path d="M607.38 262.182c.724-1.446-7.57-4.268-15.668 3.767-5.625 5.58-2.366 6.41-2.366 6.41s10.075 5.754 18.035-10.178z" fill="#FFF"/><path d="M501.08 207.246c.95-1.31-6.77-5.45-16.075 1.148-6.463 4.584-3.384 5.94-3.384 5.94s8.997 7.324 19.46-7.088z" fill="#FFF"/><path d="M662.41 398.382c-.34-1.58-8.58 1.4-9.878 12.734-.903 7.87 2.16 6.484 2.16 6.484s11.46-1.806 7.717-19.218z" fill="#FFF"/><path d="M648.886 453.933c-.34-1.58-8.577 1.4-9.877 12.734-.904 7.872 2.16 6.484 2.16 6.484s11.46-1.805 7.716-19.217z" fill="#FFF"/><path d="M585.95 401.93c.085-1.616-8.646-.897-12.87 9.7-2.932 7.36.388 6.825.388 6.825s11.533 1.26 12.48-16.526z" fill="#FFF"/><path d="M506.864 440.46c-.086-1.615 8.645-.896 12.868 9.7 2.934 7.362-.387 6.825-.387 6.825s-11.533 1.26-12.48-16.526z" fill="#FFF"/><g opacity=".6" fill="#FFF"><path d="M431.723 500.564c.768-.733 1.784-.336 3.097.492 1.945 1.227 3.874 1.123 5.17.383 1.68-.963 2.997.375 2.997.375a6.1 6.1 0 0 0 4.65-.126c4.75-2.065 7.774-8.94 9.188-13.173 1.306-3.91 2.173-8.173 2.027-12.376-.06-1.72-.246-3.704-1.07-5.334-2.998-5.934-9.628-7.345-15.83-7.02l-.152-.095c-.573-1.208-.41-2.546-.346-3.797.374-5.388 2.358-4.54 2.358-4.54s-1.66-2.06-2.184-1.79c-.526.272-3.09 3.375-2.88 5.636.062 1.1-.21 2.17-.345 3.25-1.464-2.544-3.643-5.046-6.432-6.433-.97-.482-2.022-.794-3.07-1.067-1.073-.28-2.56-.163-3.614-.138-1.76 3.39 3.5 6.67 6.13 8.054-.876-.06-1.755-.208-2.626-.182-2.576.076-5.328 1.107-6.876 3-11.442 15.146 3.96 30.926 4.977 32.517 1.018 1.59 4.065 3.098 4.833 2.364z" opacity=".2"/><path d="M430.908 513.614c.768-.733 1.785-.336 3.098.492 1.944 1.227 3.874 1.123 5.168.383 1.682-.964 2.998.374 2.998.374 1.58.588 3.18.514 4.65-.126 4.75-2.063 7.775-8.937 9.19-13.172 1.304-3.91 2.17-8.172 2.026-12.375-.06-1.722-.246-3.704-1.07-5.335-3-5.933-9.63-7.345-15.83-7.02l-.153-.094c-.572-1.208-.41-2.547-.346-3.797.374-5.39 2.358-4.54 2.358-4.54s-1.66-2.06-2.185-1.79c-.525.272-3.09 3.375-2.88 5.636.062 1.1-.21 2.17-.345 3.25-1.463-2.544-3.642-5.047-6.432-6.433-.97-.482-2.023-.794-3.07-1.067-1.074-.28-2.56-.163-3.615-.14-1.76 3.392 3.503 6.673 6.13 8.055-.874-.06-1.753-.207-2.624-.18-2.577.075-5.328 1.106-6.877 3-11.442 15.145 3.96 30.924 4.976 32.515 1.018 1.59 4.065 3.097 4.832 2.364z" opacity=".3"/><path d="M430.048 527.398c.768-.733 1.785-.337 3.098.492 1.944 1.226 3.874 1.123 5.168.382 1.682-.962 2.998.376 2.998.376a6.092 6.092 0 0 0 4.65-.126c4.75-2.064 7.775-8.937 9.19-13.172 1.304-3.91 2.17-8.172 2.025-12.376-.06-1.722-.246-3.705-1.07-5.335-2.998-5.935-9.628-7.346-15.83-7.022l-.152-.093c-.573-1.21-.41-2.548-.346-3.798.374-5.39 2.358-4.54 2.358-4.54s-1.66-2.06-2.185-1.79c-.525.27-3.09 3.374-2.88 5.636.062 1.102-.21 2.17-.345 3.25-1.464-2.543-3.643-5.046-6.432-6.433-.97-.482-2.023-.793-3.07-1.067-1.074-.28-2.562-.163-3.615-.138-1.76 3.39 3.503 6.67 6.13 8.054-.874-.062-1.754-.208-2.625-.183-2.576.076-5.328 1.107-6.876 3-11.442 15.146 3.96 30.926 4.976 32.517 1.017 1.59 4.065 3.097 4.832 2.364z" opacity=".4"/><path d="M429.09 542.745c.768-.733 1.785-.336 3.098.492 1.944 1.227 3.874 1.123 5.168.383 1.682-.962 2.998.375 2.998.375a6.096 6.096 0 0 0 4.65-.125c4.75-2.064 7.775-8.938 9.19-13.172 1.304-3.91 2.17-8.173 2.026-12.376-.06-1.722-.247-3.705-1.07-5.336-3-5.933-9.63-7.344-15.83-7.02l-.153-.094c-.572-1.21-.41-2.547-.346-3.798.376-5.388 2.36-4.54 2.36-4.54s-1.66-2.06-2.185-1.79c-.525.272-3.09 3.375-2.88 5.636.062 1.102-.21 2.17-.345 3.25-1.464-2.543-3.643-5.046-6.432-6.432-.97-.482-2.023-.794-3.07-1.067-1.074-.28-2.562-.162-3.615-.138-1.76 3.392 3.502 6.672 6.13 8.054-.875-.06-1.754-.207-2.625-.18-2.577.075-5.328 1.106-6.877 3-11.44 15.145 3.96 30.924 4.978 32.515 1.017 1.592 4.065 3.098 4.832 2.365z" opacity=".6"/></g><path d="M427.88 562.128c.768-.733 1.785-.336 3.098.492 1.944 1.227 3.874 1.123 5.17.383 1.68-.962 2.997.375 2.997.375a6.097 6.097 0 0 0 4.65-.125c4.75-2.064 7.774-8.938 9.188-13.172 1.305-3.91 2.172-8.172 2.027-12.375-.06-1.722-.246-3.705-1.07-5.336-2.998-5.934-9.628-7.345-15.83-7.02l-.152-.095c-.573-1.21-.41-2.547-.347-3.798.376-5.388 2.36-4.54 2.36-4.54s-1.66-2.06-2.184-1.79c-.526.272-3.09 3.375-2.88 5.636.06 1.102-.21 2.17-.345 3.25-1.463-2.543-3.642-5.046-6.43-6.432-.97-.48-2.024-.793-3.07-1.066-1.076-.28-2.563-.163-3.617-.14-1.76 3.393 3.502 6.673 6.13 8.055-.875-.06-1.754-.208-2.625-.182-2.576.076-5.328 1.107-6.876 3-11.442 15.146 3.96 30.925 4.976 32.516 1.018 1.59 4.065 3.097 4.833 2.364z" fill="#FFF"/><path d="M426.554 685.263v28.56h6.28v-11.8h11.96v-4.88h-11.96v-6.6h13.8v-5.28z" fill="#FFF"/><path d="M434.926 667.143l-6.365-16.972h4.866v-65.413a1.5 1.5 0 0 1 3 0v65.414h4.864z" fill="#FFF"/></svg>