<svg xmlns="http://www.w3.org/2000/svg" width="1000" height="1000" viewBox="0, 0, 1000, 1000"><path d="M500 820.47c-176.99 0-320.47-143.48-320.47-320.47 0-176.99 143.48-320.47 320.47-320.47 176.99 0 320.47 143.48 320.47 320.47 0 176.99-143.48 320.47-320.47 320.47z" fill="#AB1500"/><path d="M408.396 564.444v-148.47c25.577-32.49 58.403-71.92 104.845-63.013 33.046 6.338 58.774 38.097 78.364 63.014v148.47z" fill="#FFF" opacity=".32"/><path d="M203.56 564.398c49.926-1.032 90.914-21.686 126.927-55.498 29.573-27.766 52.946-61.218 77.91-92.972v148.47z" fill="#FFF" opacity=".8"/><path d="M591.604 564.398v-148.47c32.868 41.58 63.373 87.122 107.992 117.29 29.85 20.184 61.065 30.056 96.844 31.18z" fill="#FFF" opacity=".8"/><path d="M397.876 609.48q0-2.28.76-4.18t2.2-3.28q1.44-1.38 3.54-2.14 2.1-.76 4.74-.76h11.12v4.28h-5.16q.76.36 1.38 1.02.62.66 1.06 1.48.44.82.68 1.74.24.92.24 1.84 0 1.88-.56 3.82t-1.78 3.5q-1.22 1.56-3.16 2.56-1.94 1-4.7 1-2.48 0-4.42-.86t-3.26-2.32q-1.32-1.46-2-3.44-.68-1.98-.68-4.26zm5.68 0q0 3.4 1.3 5t3.38 1.6q2.2 0 3.36-1.74 1.16-1.74 1.16-4.86 0-2.28-.5-3.76t-1.66-2.32h-1.28q-1.2 0-2.26.3-1.06.3-1.84 1.02t-1.22 1.88q-.44 1.16-.44 2.88z" fill="#FFF"/><path d="M581.084 609.48q0-2.28.76-4.18t2.2-3.28q1.44-1.38 3.54-2.14 2.1-.76 4.74-.76h11.12v4.28h-5.16q.76.36 1.38 1.02.62.66 1.06 1.48.44.82.68 1.74.24.92.24 1.84 0 1.88-.56 3.82t-1.78 3.5q-1.22 1.56-3.16 2.56-1.94 1-4.7 1-2.48 0-4.42-.86t-3.26-2.32q-1.32-1.46-2-3.44-.68-1.98-.68-4.26zm5.68 0q0 3.4 1.3 5t3.38 1.6q2.2 0 3.36-1.74 1.16-1.74 1.16-4.86 0-2.28-.5-3.76t-1.66-2.32h-1.28q-1.2 0-2.26.3-1.06.3-1.84 1.02t-1.22 1.88q-.44 1.16-.44 2.88z" fill="#FFF"/><path d="M409.457 439.408l-2.12-2.12L494.8 349.82l2.123 2.122z" fill="#830E00" opacity=".49"/><path d="M409.457 474.9l-2.12-2.123 117.19-117.192 2.123 2.12z" fill="#830E00" opacity=".49"/><path d="M409.457 512.303l-2.12-2.12 139.09-139.093 2.122 2.12z" fill="#830E00" opacity=".49"/><path d="M409.457 547.868l-2.12-2.122L566.83 386.25l2.122 2.12z" fill="#830E00" opacity=".49"/><path d="M428.594 565.505l-2.12-2.122L583.56 406.296l2.122 2.12z" fill="#830E00" opacity=".49"/><path d="M466.568 565.505l-2.122-2.122 126.097-126.096 2.12 2.12z" fill="#830E00" opacity=".49"/><path d="M502.058 565.505l-2.12-2.122 90.605-90.606 2.12 2.122z" fill="#830E00" opacity=".49"/><path d="M539.463 565.505l-2.122-2.122 53.203-53.2 2.12 2.12z" fill="#830E00" opacity=".49"/><path d="M575.027 565.505l-2.12-2.122 17.636-17.637 2.12 2.122z" fill="#830E00" opacity=".49"/><path d="M203.593 565.898l-.065-3c37.633-.807 70.29-12.44 100.35-33.925 24.09-17.22 44.956-39.097 70.7-71.814-.123.154 33.823-44.11 43.192-55.31 14.025-16.768 26.115-28.66 38.406-37.107 14.23-9.78 28.554-14.7 43.805-14.51 15.29-.19 29.615 4.73 43.844 14.51 12.29 8.448 24.38 20.34 38.406 37.106 9.37 11.2 43.315 55.464 43.192 55.31 25.744 32.716 46.61 54.593 70.7 71.813 30.06 21.485 62.717 33.118 100.35 33.925l-.065 3c-38.26-.822-71.496-12.66-102.03-34.485-24.368-17.42-45.408-39.477-71.312-72.4.087.11-33.815-44.097-43.136-55.24-29.182-34.886-52.454-50.883-79.95-50.54-27.456-.343-50.728 15.654-79.91 50.54-9.32 11.143-43.222 55.35-43.135 55.24-25.904 32.923-46.944 54.98-71.313 72.4-30.532 21.825-63.77 33.663-102.03 34.485z" fill="#FFF"/><path d="M408.396 588.428a1.5 1.5 0 0 1-1.5-1.5v-9a1.5 1.5 0 0 1 3 0v9c0 .83-.67 1.5-1.5 1.5z" fill="#FFF"/><path d="M408.396 570.428a1.5 1.5 0 0 1-1.5-1.5v-9a1.5 1.5 0 0 1 3 0v9c0 .83-.67 1.5-1.5 1.5z" fill="#FFF"/><path d="M408.396 552.428a1.5 1.5 0 0 1-1.5-1.5v-9a1.5 1.5 0 0 1 3 0v9c0 .83-.67 1.5-1.5 1.5z" fill="#FFF"/><path d="M408.396 534.428a1.5 1.5 0 0 1-1.5-1.5v-9a1.5 1.5 0 0 1 3 0v9c0 .83-.67 1.5-1.5 1.5z" fill="#FFF"/><path d="M408.396 516.428a1.5 1.5 0 0 1-1.5-1.5v-9a1.5 1.5 0 0 1 3 0v9c0 .83-.67 1.5-1.5 1.5z" fill="#FFF"/><path d="M408.396 498.428a1.5 1.5 0 0 1-1.5-1.5v-9a1.5 1.5 0 0 1 3 0v9c0 .83-.67 1.5-1.5 1.5z" fill="#FFF"/><path d="M408.396 480.428a1.5 1.5 0 0 1-1.5-1.5v-9a1.5 1.5 0 0 1 3 0v9c0 .83-.67 1.5-1.5 1.5z" fill="#FFF"/><path d="M408.396 462.428a1.5 1.5 0 0 1-1.5-1.5v-9a1.5 1.5 0 0 1 3 0v9c0 .83-.67 1.5-1.5 1.5z" fill="#FFF"/><path d="M408.396 444.428a1.5 1.5 0 0 1-1.5-1.5v-9a1.5 1.5 0 0 1 3 0v9c0 .83-.67 1.5-1.5 1.5z" fill="#FFF"/><path d="M408.396 426.428a1.5 1.5 0 0 1-1.5-1.5v-9a1.5 1.5 0 0 1 3 0v9c0 .83-.67 1.5-1.5 1.5z" fill="#FFF"/><path d="M591.604 588.428a1.5 1.5 0 0 1-1.5-1.5v-9a1.5 1.5 0 0 1 3 0v9a1.5 1.5 0 0 1-1.5 1.5z" fill="#FFF"/><path d="M591.604 570.428a1.5 1.5 0 0 1-1.5-1.5v-9a1.5 1.5 0 0 1 3 0v9a1.5 1.5 0 0 1-1.5 1.5z" fill="#FFF"/><path d="M591.604 552.428a1.5 1.5 0 0 1-1.5-1.5v-9a1.5 1.5 0 0 1 3 0v9a1.5 1.5 0 0 1-1.5 1.5z" fill="#FFF"/><path d="M591.604 534.428a1.5 1.5 0 0 1-1.5-1.5v-9a1.5 1.5 0 0 1 3 0v9a1.5 1.5 0 0 1-1.5 1.5z" fill="#FFF"/><path d="M591.604 516.428a1.5 1.5 0 0 1-1.5-1.5v-9a1.5 1.5 0 0 1 3 0v9a1.5 1.5 0 0 1-1.5 1.5z" fill="#FFF"/><path d="M591.604 498.428a1.5 1.5 0 0 1-1.5-1.5v-9a1.5 1.5 0 0 1 3 0v9a1.5 1.5 0 0 1-1.5 1.5z" fill="#FFF"/><path d="M591.604 480.428a1.5 1.5 0 0 1-1.5-1.5v-9a1.5 1.5 0 0 1 3 0v9a1.5 1.5 0 0 1-1.5 1.5z" fill="#FFF"/><path d="M591.604 462.428a1.5 1.5 0 0 1-1.5-1.5v-9a1.5 1.5 0 0 1 3 0v9a1.5 1.5 0 0 1-1.5 1.5z" fill="#FFF"/><path d="M591.604 444.428a1.5 1.5 0 0 1-1.5-1.5v-9a1.5 1.5 0 0 1 3 0v9a1.5 1.5 0 0 1-1.5 1.5z" fill="#FFF"/><path d="M591.604 426.428a1.5 1.5 0 0 1-1.5-1.5v-9a1.5 1.5 0 0 1 3 0v9a1.5 1.5 0 0 1-1.5 1.5z" fill="#FFF"/></svg>