<svg xmlns="http://www.w3.org/2000/svg" xmlns:xlink="http://www.w3.org/1999/xlink" version="1"><title>facebook web</title><defs><linearGradient id="a"><stop offset="0" stop-color="#fff"/><stop offset="1" stop-color="#fff" stop-opacity="0"/></linearGradient><linearGradient xlink:href="#a" id="b" gradientUnits="userSpaceOnUse" gradientTransform="matrix(-.59146 0 0 .59146 210.022 142.232)" x1="-344.153" y1="274.711" x2="-395.849" y2="425.4"/></defs><g transform="translate(-373.642 -318.344)"><rect transform="scale(-1 1)" ry="35.488" rx="35.488" y="328.344" x="-619.642" height="236" width="236" fill="#0037c1" fill-rule="evenodd"/><path d="M557.29 338.433H445.994c-29.46 0-53.178 23.912-53.178 53.615V500.64c.954 23.185 4.622 8.528 11.604-17.148 8.114-29.84 34.54-55.922 66.724-75.47 24.565-14.918 52.06-24.445 102.11-25.35 28.383-.515 25.877-36.842-15.963-44.24z" opacity=".3" fill="url(#b)" fill-rule="evenodd"/><path d="M544.543 538.495H506.47V445.59h-19.022V413.57h19.02V394.35c0-26.12 10.742-41.65 41.257-41.65h25.406v32.02h-15.88c-11.878 0-12.664 4.473-12.664 12.824l-.043 16.025h28.767l-3.366 32.016h-25.4v92.91z" fill="#fff"/></g></svg>