<svg id="Layer_1" xmlns="http://www.w3.org/2000/svg" viewBox="0 0 100 100"><style>.st0{opacity:.2;fill:url(#SVGID_1_)}.st1{opacity:1e-2;fill:#FFF;stroke:#d1d3d4;stroke-miterlimit:10}.st2{fill:#e6e7e8}.st3{fill:#FFF}.st4{fill:#010101;fill-opacity:0;stroke:#e12826;stroke-width:.3201;stroke-linejoin:bevel}.st5{fill:#e12826}.st6{fill:#010101;fill-opacity:0;stroke:#e12826;stroke-width:.3201}.st7{fill:url(#SVGID_2_)}.st8{fill:#010101}.st9{fill:none;stroke:#a7a9ac;stroke-width:.5;stroke-miterlimit:10}.st10{fill:#808285}.st11{fill:none}.st12{fill:#939598}.st13{fill:#3b599d}.st14{fill:#41c6f3}.st15{fill:none;stroke:#d92129;stroke-width:.5;stroke-miterlimit:10}.st16{fill:url(#SVGID_3_)}.st17{opacity:.5;fill:url(#SVGID_4_)}.st18{fill:none;stroke:#6d6e71;stroke-width:.5;stroke-miterlimit:10}.st19{fill:#f1f2f2}.st20{fill:#bcbec0}.st21{fill:none;stroke:#000;stroke-miterlimit:10}.st22{fill:#d1d3d4}.st23{fill:none;stroke:#d92129;stroke-width:2}.st23,.st24{stroke-miterlimit:10}.st24{fill:#f1f2f2;stroke:#939598}.st25{fill:#f2f2f2}.st26{fill:#d2d3d4}.st27{opacity:.7}.st28{fill:#e12b27}.st29{fill:#e7e7e7}.st30{fill:#a8aaad}.st31{fill:#8dc63f}.st32{fill:#d92129}.st33{fill:#6d6e71}.st34{fill:#FFF;stroke:#000;stroke-miterlimit:10}.st35{opacity:.7;fill:#e12826}.st36{fill:none;stroke:#6d6e71;stroke-width:3;stroke-miterlimit:10}.st37{opacity:.5}.st38{opacity:.8}.st39{fill:#f1f2f2;stroke:#000;stroke-miterlimit:10}.st40{clip-path:url(#SVGID_6_)}.st41{fill:none}.st41,.st42{stroke:#6d6e71;stroke-miterlimit:10}.st42{fill:#f1f2f2}.st43{fill:#a7a9ac}.st44{opacity:.6}</style><g class="st44"><path class="st3" d="M52.8 85.6H2c-.6 0-1.2-.5-1.2-1.2V15.5c0-.6.5-1.2 1.2-1.2h50.8c.6 0 1.2.5 1.2 1.2v68.9c0 .7-.5 1.2-1.2 1.2z"/><path d="M53 86.1H1.9c-.8 0-1.5-.7-1.5-1.6v-69c0-.9.7-1.6 1.5-1.6H53c.8 0 1.5.7 1.5 1.6v69c-.1.9-.7 1.6-1.5 1.6zM1.9 14.9c-.3 0-.6.3-.6.6v69c0 .4.3.6.6.6H53c.3 0 .6-.3.6-.6v-69c0-.4-.3-.6-.6-.6H1.9z"/><path class="st22" d="M3.8 17.4h47.3v5H3.8z"/><path class="st20" d="M7.9 24.6H51V27H7.9z"/><path class="st20" d="M7.9 28.1H51v2.4H7.9z"/><path class="st20" d="M7.9 31.6H51V34H7.9z"/><path class="st20" d="M7.9 35.3H51v2.4H7.9z"/><circle class="st31" cx="5" cy="25.8" r="1.2"/><circle class="st32" cx="5" cy="29.3" r="1.2"/><circle class="st2" cx="5" cy="32.8" r="1.2"/><circle class="st2" cx="5" cy="36.5" r="1.2"/><path class="st22" d="M3.8 40.3h47.3v5H3.8z"/><path class="st20" d="M7.9 47.5H51v2.4H7.9z"/><path class="st20" d="M7.9 51H51v2.4H7.9z"/><path class="st20" d="M7.9 54.5H51v2.4H7.9z"/><path class="st20" d="M7.9 58.2H51v2.4H7.9z"/><circle class="st32" cx="5" cy="48.7" r="1.2"/><circle class="st2" cx="5" cy="52.2" r="1.2"/><circle class="st31" cx="5" cy="55.7" r="1.2"/><circle class="st2" cx="5" cy="59.4" r="1.2"/><path class="st22" d="M3.8 62.4h47.3v5H3.8z"/><path class="st20" d="M7.9 69.6H51V72H7.9z"/><path class="st20" d="M7.9 73.1H51v2.4H7.9z"/><path class="st20" d="M7.9 76.6H51V79H7.9z"/><path class="st20" d="M7.9 80.3H51v2.4H7.9z"/><circle class="st2" cx="5" cy="70.9" r="1.2"/><circle class="st31" cx="5" cy="74.4" r="1.2"/><circle class="st2" cx="5" cy="77.9" r="1.2"/><g><circle class="st32" cx="5" cy="81.5" r="1.2"/></g><g><path class="st32" d="M4 17l.8 1.2.6.9.6-.9.8-1.2h1.1L6 19.8l2 2.9H6.8L6 21.4c-.2-.3-.4-.6-.6-1-.2.3-.4.6-.6 1L4 22.7H2.8l2-2.9L2.9 17H4z"/></g><g><path class="st32" d="M3.7 39.9l.8 1.2.6.9.6-.9.8-1.2h1.1l-1.9 2.7 2 2.9H6.4l-.8-1.3c-.2-.3-.4-.6-.6-1-.2.3-.4.6-.6 1l-.8 1.3H2.4l2-2.9-1.9-2.8h1.2z"/></g><g><path class="st32" d="M3.7 62.1l.8 1.2.6.9.6-.9.8-1.2h1.1l-1.9 2.7 2 2.9H6.4l-.8-1.3c-.2-.3-.4-.6-.6-1-.2.3-.4.6-.6 1l-.8 1.3H2.4l2-2.9L2.5 62h1.2z"/></g></g><path class="st3" d="M97.9 95H33c-.6 0-1.2-.5-1.2-1.2V6.1c.1-.6.6-1.1 1.2-1.1h64.9c.6 0 1.1.5 1.1 1.1v87.7c0 .7-.5 1.2-1.1 1.2z"/><path d="M97.8 95.6H33.1c-1 0-1.9-.9-1.9-2V6.4c0-1.1.8-2 1.9-2h64.6c1 0 1.9.9 1.9 2v87.2c0 1.1-.8 2-1.8 2zm-64.7-90c-.4 0-.7.4-.7.8v87.2c0 .4.3.8.7.8h64.6c.4 0 .7-.4.7-.8V6.4c0-.4-.3-.8-.7-.8H33.1z"/><path class="st22" d="M35.6 8.8h59.8v6.3H35.6z"/><path class="st20" d="M40.8 17.9h54.5V21H40.8z"/><path class="st20" d="M40.8 22.4h54.5v3.1H40.8z"/><path class="st20" d="M40.8 26.8h54.5v3.1H40.8z"/><path class="st20" d="M40.8 31.4h54.5v3.1H40.8z"/><circle class="st31" cx="37.1" cy="19.5" r="1.5"/><circle class="st2" cx="37.1" cy="23.9" r="1.5"/><circle class="st2" cx="37.1" cy="28.3" r="1.5"/><circle class="st2" cx="37.1" cy="32.9" r="1.5"/><path class="st22" d="M35.6 37.7h59.8V44H35.6z"/><path class="st20" d="M40.8 46.9h54.5V50H40.8z"/><path class="st20" d="M40.8 51.3h54.5v3.1H40.8z"/><path class="st20" d="M40.8 55.7h54.5v3.1H40.8z"/><path class="st20" d="M40.8 60.3h54.5v3.1H40.8z"/><circle class="st2" cx="37.1" cy="48.4" r="1.5"/><circle class="st2" cx="37.1" cy="52.8" r="1.5"/><circle class="st31" cx="37.1" cy="57.2" r="1.5"/><circle class="st2" cx="37.1" cy="61.9" r="1.5"/><path class="st22" d="M35.6 65.7h59.8V72H35.6z"/><path class="st20" d="M40.8 74.8h54.5v3.1H40.8z"/><path class="st20" d="M40.8 79.2h54.5v3.1H40.8z"/><path class="st20" d="M40.8 83.7h54.5v3.1H40.8z"/><path class="st20" d="M40.8 88.3h54.5v3.1H40.8z"/><circle class="st2" cx="37.1" cy="76.4" r="1.5"/><circle class="st31" cx="37.1" cy="80.8" r="1.5"/><circle class="st2" cx="37.1" cy="85.2" r="1.5"/><g><circle class="st2" cx="37.1" cy="89.8" r="1.5"/></g><g><path class="st33" d="M37.7 14.7l-2.8-2.2.6-.8 1.8 1.4L40 8l.9.4z"/></g><g><path class="st33" d="M36.9 43.5l-2.7-2.1.6-.8 1.8 1.4 2.7-5.1.9.4z"/></g><g><path class="st33" d="M36.9 71.6l-2.7-2.1.6-.8 1.8 1.4 2.7-5.2.9.5z"/></g></svg>