<svg id="Layer_1" xmlns="http://www.w3.org/2000/svg" viewBox="0 0 100 100"><style>.st0{opacity:.2;fill:url(#SVGID_1_)}.st1{opacity:1e-2;fill:#FFF;stroke:#d1d3d4;stroke-miterlimit:10}.st2{fill:#e6e7e8}.st3{fill:#FFF}.st4{fill:#010101;fill-opacity:0;stroke:#e12826;stroke-width:.3201;stroke-linejoin:bevel}.st5{fill:#e12826}.st6{fill:#010101;fill-opacity:0;stroke:#e12826;stroke-width:.3201}.st7{fill:url(#SVGID_2_)}.st8{fill:#010101}.st9{fill:none;stroke:#a7a9ac;stroke-width:.5;stroke-miterlimit:10}.st10{fill:#808285}.st11{fill:none}.st12{fill:#939598}.st13{fill:#3b599d}.st14{fill:#41c6f3}.st15{fill:none;stroke:#d92129;stroke-width:.5;stroke-miterlimit:10}.st16{fill:url(#SVGID_3_)}.st17{opacity:.5;fill:url(#SVGID_4_)}.st18{fill:none;stroke:#6d6e71;stroke-width:.5;stroke-miterlimit:10}.st19{fill:#f1f2f2}.st20{fill:#bcbec0}.st21{fill:none;stroke:#000;stroke-miterlimit:10}.st22{fill:#d1d3d4}.st23{fill:none;stroke:#d92129;stroke-width:2}.st23,.st24{stroke-miterlimit:10}.st24{fill:#f1f2f2;stroke:#939598}.st25{fill:#f2f2f2}.st26{fill:#d2d3d4}.st27{opacity:.7}.st28{fill:#e12b27}.st29{fill:#e7e7e7}.st30{fill:#a8aaad}.st31{fill:#8dc63f}.st32{fill:#d92129}.st33{fill:#6d6e71}.st34{fill:#FFF;stroke:#000;stroke-miterlimit:10}.st35{opacity:.7;fill:#e12826}.st36{fill:none;stroke:#6d6e71;stroke-width:3;stroke-miterlimit:10}.st37{opacity:.5}.st38{opacity:.8}.st39{fill:#f1f2f2;stroke:#000;stroke-miterlimit:10}.st40{clip-path:url(#SVGID_6_)}.st41{fill:none}.st41,.st42{stroke:#6d6e71;stroke-miterlimit:10}.st42{fill:#f1f2f2}.st43{fill:#a7a9ac}.st44{opacity:.6}</style><circle class="st25" cx="53.1" cy="50.4" r="38.2"/><path class="st26" d="M62.5 12.3C41.4 7.1 20.2 20 15 41s7.7 42.3 28.7 47.5S86 80.8 91.2 59.8c5.3-21.1-7.6-42.4-28.7-47.5zm-2.3 74.2c-3.8.8-7.7.9-11.6.4-.9-.1-.9-.3-.4-.9.3-.4 1.2-.6.6-1.3-.1-.1.2-.4.2-.4 1.2.3 1.7-1.6 3.2-1 .6.2 1.6-.3 1.2-1.5-.2-.5 0-.8.6-.5.8.4 1.4.1 2-.5 1-1.1 2.4-1.8 2.9-3.4.2-.8 1.2-.8 1.9-.8 1.9.1 2.9-1.1 3.4-2.6.4-1.4 1.5-2.2 2.4-3 1.4-1.2 1.3-1.4.1-2.8-1.2-1.3-3-1.9-4.5-3-.6-.4-.9-.8-.9-1.5-.1-1.3-.6-2.4-2.1-2.6-.5-.1-.8-.4-1-.8-.4-.5-.7-.9-.9-1.5-.7-1.5-2.6-.7-3.6-1.8-.9-1-2.3-1-3.5-.1-.2.2-.5.5-.8.2-.6-.5-.6-.2-.4.3.4 1.2 0 2-1 2.7-1.6 1.2-1.9 2.8-1.3 4.6.3.8.6 1.6.6 2.5 0 1.1.5 1.8 1.3 2.5.8.8 1.1 1.6.6 2.8-1.1 2.8-1.9 5.6-3.5 8.3-.6.9-1.3 2.3-1 3.9.2 1-1 1.2-2.1.9-5.2-1.6-9.8-4.2-13.8-7.7-11.4-10.3-15.4-26-10.1-40.5 2.1-5.6 5.5-10.5 10-14.5.4-.3.7-.8 1.2-.5.7.4-.2.5-.1.9.1.7 1.5-.1 1.2 1-.2.7.4 1.2.4 1.8 0 1.6 1.1 3 1.2 4.6.1 1.3-.7 2.5-.9 3.7-.2 1.8.2 3.5 1.2 4.8.9 1.2 1.1 2.5 1.5 3.8.4 1.2 1 2.2 1.5 3.2-.1-1.4-.4-2.7-1.1-3.9-.4-.2-.5-.6-.1-.8.4-.1.5.4.5.6.5 1.9 2.1 3.5 2.3 5.2.2 2.5 2.1 3.1 3.5 4.2.6.5 1.5.6 2.3 1.2 1.3 1.1 2.2 2.3 3.2 3.7.2.4.7.6 1.1.9.1.1.4-.1.5-.2.2-.2 0-.4-.2-.4-1.3-.4-1.3-1.2-.9-2.3.4-.9.1-1.6-1-1.6-1-.1-1.2-.4-.5-1.2.1-.1.2-.3.2-.4.2-.5.9-.9.4-1.3s-1-.2-1.5.4c-1.2 1.1-2.4.5-2.9-1-.5-1.6.6-2.6 1.1-3.9.1-.3.9-.6 1.1-.5 1.3.7 2.9 0 4.2.6.8.4 1.6.7 1.3 1.9-.1.4.1 1.2.6 1.2.7 0 .4-.8.4-1.2-.4-1.8.5-2.6 2-3.1.8-.3 1.4-.6 1.3-1.7 0-.3.6-.8 1.1-1 1.6-.8 2.7-2.5 4.6-2.8.2-.1.6-.2.7.1.2.5.5.6 1.2.5.2-.1.5-.1.8-.3.2-.1.6-.1.4-.5-.2-.5-.4.1-.6.1-.5-.2-1.2-.2-1.3-.8-.1-.4-.8-.9.2-1.2.4-.2.1-.6-.2-.6-.5-.1-.9 0-1.4 0 .8-.8 1.7-.9 2.7-.5.5.2 1.1.3 1.6.3s1.1-.7 1.3-.3c.2.4-.4 1-.8 1.4-.6.7-.5 1.1.4 1.2.2.1.5.4.7.3.5-.1.8 1 1.1.4.2-.4.2-1.4-.3-1.6-1.3-.6-.6-1.8-.4-2.1.6-.8.3-1.4-.2-1.9-1.3-1.6-1.3-3.3-1.7-5-.1-.7-.2-1.9-1.2-.4-.2.3-.6.5-1 .4-.5-.3-.7-.8-.7-1.3-.1-2.1-.8-3-2.6-3.5-.3-.1-.7-.2-.7.1.1 1.4-1.3 2.6-.7 4 .4.9.2 1.8-.6 2.1-.9.5-1.2 1.1-1.1 2 .1.6-.2 1.1-.7 1.1-.6 0-.5-.7-.5-1.1.2-2.6-1.9-3.5-3.5-4.7-1.1-.8-1.9-2.9-.9-3.9 1.1-1.2 2.1-2.4 3.7-2.8.9-.2.8-1.5 1.8-1.6-.5-.7-.4-.9.1-.7 1.2.5 2 .1 2-1.2 0-.9 1-1.5.4-2.4-.1-.2.1-.4.4-.4 1 .3 2.5-.3 2.6 1.5 0 .5.5.8.7 1.2.4.9.6 1.5-.3 2.4-.7.6-.9 1.6-2.1 1.1-.4-.1-.6.2-.6.6-.1.4.2.7.6.6 1.2-.3 1.6.6 1.9 1.3.5 1.2 1.5 1.6 2.4 2.3.2-.6-.5-.9-.4-1.4.1 0 .2-.1.3-.1.4.2.4.8 1 .4.5-.4.3-.7.2-1.1-.2-.5-.4-1.1-.6-1.6-.2-.4 0-.7.4-1 .1.4 1 .1.7.9-.2.4.1 1 .4.9.5-.2.8-.8 1.2-1.1.3-.2.5-.5.1-.8-.6-.4-.8-1.2-1.5-1.7-.8-.6-1-1.3-.4-2.3.6-.9 1.2-.2 1.8-.1 1.8.5 3.5 1.5 5.2 2.3.6.4.6.4-.1.8-1.2.8-1.3 2.1-1.1 3.1.2 1.3.2 2.8.5 4.1.3 1.4 1.3 2.1 2.1 3 .4.5.6.1.8-.3.7-1.2 1.4-2.3 2-3.5.8-1.6 3-2 4.2-.7 3.5 3.6 6 7.7 7.8 12.4.4.9.4 1.8-.1 2.7-.2.4-.3.8.3.7 1.1-.2 1.1.5 1.2 1.2.3 1.4.5 2.9.8 4.3.2.9 0 1.2-.9.9-.5-.2-.9-.2-1.4-.4-.8-.3-1.3-.2-1.2.8 0 .2 0 .5-.1.6-.9 1.3-.8 2.3.6 3.2.1.1.1.1.1.2l-.1.1c-1.8 1-2.5 3-4.5 3.9-1.4.6-2.8 1.9-2.7 3.9 0 .9-.7 1.5-.8 2.3-.1 1.5 1 2.7 1.6 4 .6 1.5 1.9 2.1 3.5 1.9.6-.4 1.1.1 1.7.2.2.2.1.4.1.6-.3 1-.6 2-1.6 2.6-6.1 8.2-13.9 13.6-23.9 15.6z"/><g class="st27"><circle class="st3" cx="7.4" cy="30.7" r="4.3"/><path class="st3" d="M9.6 36.4H5.3c-2.9 0-5.3 2.2-5.3 4.9v2.8c0 .8.6 1.3 1.3 1.3h12.1c.8 0 1.3-.6 1.3-1.3v-2.8c.1-2.7-2.2-4.9-5.1-4.9z"/></g><g class="st27"><circle class="st28" cx="7.4" cy="30.7" r="4.3"/><path class="st28" d="M9.6 36.4H5.3c-2.9 0-5.3 2.2-5.3 4.9v2.8c0 .8.6 1.3 1.3 1.3h12.1c.8 0 1.3-.6 1.3-1.3v-2.8c.1-2.7-2.2-4.9-5.1-4.9z"/></g><path class="st29" d="M20.9 40.2H75V28.6H20.9v3.7l-2.8 2.1 2.8 2z"/><path class="st8" d="M75 40.8H20.9c-.3 0-.6-.3-.6-.6v-3.5l-2.6-1.9c-.2-.1-.2-.3-.2-.5s.1-.4.2-.5l2.6-1.9v-3.4c0-.3.3-.6.6-.6H75c.3 0 .6.3.6.6v11.7c0 .4-.3.6-.6.6zm-53.5-1.1h53V29.2h-53v3.1c0 .2-.1.4-.2.5L19 34.4l2.2 1.6c.2.1.2.3.2.5v3.2z"/><g><path class="st30" d="M24.1 32.6h47.2v3H24.1z"/></g><g><g class="st27"><circle class="st3" cx="92.6" cy="63.8" r="4.3"/><path class="st3" d="M90.4 69.5h4.3c2.9 0 5.3 2.2 5.3 4.9v2.8c0 .8-.6 1.3-1.3 1.3H86.5c-.8 0-1.3-.6-1.3-1.3v-2.8c0-2.7 2.3-4.9 5.2-4.9z"/></g><g class="st27"><circle class="st28" cx="92.6" cy="63.8" r="4.3"/><path class="st28" d="M90.4 69.5h4.3c2.9 0 5.3 2.2 5.3 4.9v2.8c0 .8-.6 1.3-1.3 1.3H86.5c-.8 0-1.3-.6-1.3-1.3v-2.8c0-2.7 2.3-4.9 5.2-4.9z"/></g><path class="st29" d="M79.1 75H25V60h54.1v4.8l3.3 2.7-3.3 2.5z"/><path class="st8" d="M79.1 75.6H25c-.3 0-.6-.3-.6-.6V60c0-.3.3-.6.6-.6h54.1c.3 0 .6.3.6.6v4.5l3.1 2.6c.1.1.2.3.2.5s-.1.3-.2.5l-3.1 2.3V75c0 .3-.3.6-.6.6zm-53.5-1.2h53V70c0-.2.1-.4.2-.5l2.7-2.1-2.7-2.3c-.1-.1-.2-.3-.2-.4v-4.2h-53v13.9z"/><path class="st30" d="M28.3 63.2h47.2v3H28.3z"/><g><path class="st30" d="M39.8 68.3h35.6v3H39.8z"/></g></g></svg>