<svg id="Layer_1" xmlns="http://www.w3.org/2000/svg" viewBox="0 0 100 100"><style>.st0{opacity:.2;fill:url(#SVGID_1_)}.st1{opacity:1e-2;fill:#FFF;stroke:#d1d3d4;stroke-miterlimit:10}.st2{fill:#e6e7e8}.st3{fill:#FFF}.st4{fill:#010101;fill-opacity:0;stroke:#e12826;stroke-width:.3201;stroke-linejoin:bevel}.st5{fill:#e12826}.st6{fill:#010101;fill-opacity:0;stroke:#e12826;stroke-width:.3201}.st7{fill:url(#SVGID_2_)}.st8{fill:#010101}.st9{fill:none;stroke:#a7a9ac;stroke-width:.5;stroke-miterlimit:10}.st10{fill:#808285}.st11{fill:none}.st12{fill:#939598}.st13{fill:#3b599d}.st14{fill:#41c6f3}.st15{fill:none;stroke:#d92129;stroke-width:.5;stroke-miterlimit:10}.st16{fill:url(#SVGID_3_)}.st17{opacity:.5;fill:url(#SVGID_4_)}.st18{fill:none;stroke:#6d6e71;stroke-width:.5;stroke-miterlimit:10}.st19{fill:#f1f2f2}.st20{fill:#bcbec0}.st21{fill:none;stroke:#000;stroke-miterlimit:10}.st22{fill:#d1d3d4}.st23{fill:none;stroke:#d92129;stroke-width:2}.st23,.st24{stroke-miterlimit:10}.st24{fill:#f1f2f2;stroke:#939598}.st25{fill:#f2f2f2}.st26{fill:#d2d3d4}.st27{opacity:.7}.st28{fill:#e12b27}.st29{fill:#e7e7e7}.st30{fill:#a8aaad}.st31{fill:#8dc63f}.st32{fill:#d92129}.st33{fill:#6d6e71}.st34{fill:#FFF;stroke:#000;stroke-miterlimit:10}.st35{opacity:.7;fill:#e12826}.st36{fill:none;stroke:#6d6e71;stroke-width:3;stroke-miterlimit:10}.st37{opacity:.5}.st38{opacity:.8}.st39{fill:#f1f2f2;stroke:#000;stroke-miterlimit:10}.st40{clip-path:url(#SVGID_6_)}.st41{fill:none}.st41,.st42{stroke:#6d6e71;stroke-miterlimit:10}.st42{fill:#f1f2f2}.st43{fill:#a7a9ac}.st44{opacity:.6}</style><path class="st19" d="M28.3 95.7h62.3c1.4 0 2.5-.6 2.5-1.3v-4.2l6.2-5.6-6.2-5.7v-5.2c0-.7-1.1-1.3-2.5-1.3H28.3c-1.4 0-2.5.6-2.5 1.3v20.8c0 .6 1.1 1.2 2.5 1.2z"/><path d="M90.6 96.2H28.3c-1.7 0-3-.8-3-1.8V73.7c0-1 1.3-1.8 3-1.8h62.3c1.7 0 3 .8 3 1.8v5l6.4 5.9-6.4 5.9v4c0 1-1.3 1.7-3 1.7zM28.3 72.9c-1.2 0-2 .5-2 .8v20.8c0 .3.8.8 2 .8h62.3c1.2 0 2-.5 2-.8V90l5.9-5.4-5.9-5.5v-5.4c0-.3-.8-.8-2-.8H28.3z"/><path class="st30" d="M30.6 87.6h44.7v2.9H30.6z"/><path class="st30" d="M30.6 82.7h57.9v2.9H30.6z"/><g><path class="st30" d="M30.6 77.8h57.9v2.9H30.6z"/></g><g><path d="M71.7 61.9H9.4c-1.6 0-3-1.1-3-2.4v-9.2L0 44.9l6.4-5.4V28.8c0-1.3 1.3-2.4 3-2.4v1c-1.1 0-2 .6-2 1.4V40l-5.9 5 5.9 4.9v9.7c0 .8.9 1.4 2 1.4h62.3c1.1 0 2-.6 2-1.4V28.8c0-.8-.9-1.4-2-1.4h-2.3v-1h2.3c1.6 0 3 1.1 3 2.4v30.7c0 1.3-1.4 2.4-3 2.4z"/><path class="st30" d="M11.5 51.5h57.9v4.3H11.5z"/><path class="st30" d="M11.5 44.3h57.9v4.3H11.5z"/><path class="st32" d="M27.9 29.6l-3.3 1.3-.6-1.7c-.2-.6-.4-1.2-.5-1.7-.1-.5-.1-1 0-1.5s.2-1 .4-1.4l.6-1.5.8-1.7c.3-.6.6-1.3.7-1.9.1-.6 0-1.4-.3-2.2-.4-1.1-1.1-1.9-2.1-2.2-1-.4-2-.4-3.1.1-1.2.5-1.9 1.2-2.3 2.2s-.5 2.1-.2 3.2l-3.5.9c-.2-1-.3-2.1-.2-3 .1-1 .4-1.9.9-2.7.4-.8 1-1.5 1.8-2.1.7-.6 1.6-1.1 2.6-1.5s1.9-.6 2.9-.6c1-.1 1.9.1 2.7.4s1.6.8 2.3 1.4c.7.7 1.2 1.5 1.6 2.5.3.7.5 1.4.5 2 .1.6 0 1.2-.1 1.8-.1.6-.3 1.1-.6 1.7s-.6 1.1-.9 1.7c-.3.6-.6 1.1-.8 1.5-.2.4-.3.9-.4 1.2-.1.4-.1.8 0 1.2s.2.9.4 1.5l.7 1.1zm2.8 4.5c.2.6.2 1.2 0 1.8s-.7 1.1-1.4 1.3c-.6.3-1.3.2-1.9 0-.6-.3-1.1-.7-1.3-1.3-.2-.6-.2-1.2 0-1.9.3-.6.7-1.1 1.4-1.3.7-.3 1.3-.3 1.9 0 .6.4 1 .8 1.3 1.4z"/><path class="st37 st32" d="M41.4 23.8l-2.1-.3.2-1.1c.1-.4.2-.7.3-1 .1-.3.3-.6.5-.8l.6-.6c.2-.2.5-.4.8-.6l.9-.6c.4-.2.7-.5 1-.8.3-.3.4-.7.5-1.2.1-.7 0-1.3-.4-1.8s-.9-.8-1.6-.9c-.7-.1-1.4 0-1.9.4s-.9.9-1 1.6l-2.2-.7c.2-.6.5-1.2.8-1.6.4-.5.8-.8 1.3-1.1.5-.3 1-.5 1.6-.6.6-.1 1.2-.1 1.8 0 .6.1 1.2.3 1.7.5.5.3.9.6 1.3 1s.6.9.8 1.4c.2.5.2 1.1.1 1.8-.1.5-.2.9-.4 1.2l-.6.9c-.2.3-.5.5-.8.7-.3.2-.6.4-1 .6l-.9.6c-.2.2-.4.3-.6.5-.2.2-.3.4-.4.6-.1.2-.2.5-.2.9l-.1 1zm.1 3.2c-.1.4-.3.7-.6.9-.3.2-.7.3-1.1.3-.4-.1-.7-.3-1-.6-.2-.3-.3-.7-.3-1.1.1-.4.3-.7.6-1 .3-.2.7-.3 1.1-.3.4.1.8.3 1 .6.2.4.3.8.3 1.2z"/><path class="st38 st32" d="M56.2 34.7l-2.6-.2.1-1.4c0-.5.1-.9.3-1.3.1-.4.3-.7.5-1 .2-.3.4-.6.7-.9.3-.3.6-.5.9-.8l1.1-.9c.4-.3.8-.7 1.1-1.1.3-.4.5-.9.5-1.6.1-.9-.1-1.6-.7-2.2-.5-.6-1.2-.9-2.1-1-.9-.1-1.7.2-2.3.7-.6.6-1 1.3-1.2 2.1l-2.7-.5c.2-.8.5-1.5.9-2.1.4-.6.9-1.1 1.5-1.5.6-.4 1.2-.7 1.9-.9.7-.2 1.5-.2 2.3-.2.8.1 1.5.2 2.2.5.7.3 1.2.7 1.7 1.2s.9 1.1 1.1 1.7c.2.7.3 1.4.3 2.3-.1.6-.2 1.1-.3 1.6-.2.4-.4.8-.7 1.2-.3.3-.6.7-.9 1l-1.2.9c-.4.3-.7.5-1 .8-.3.2-.5.5-.7.7-.2.3-.3.5-.4.8-.1.3-.2.7-.2 1.2l-.1.9zm.4 4c0 .5-.3.9-.6 1.3-.4.3-.9.5-1.4.5-.5 0-1-.3-1.3-.7-.3-.4-.5-.8-.4-1.3 0-.5.3-.9.6-1.3.4-.3.9-.5 1.4-.4s1 .3 1.3.6c.3.4.4.8.4 1.3z"/></g></svg>