<svg id="Layer_1" xmlns="http://www.w3.org/2000/svg" viewBox="0 0 100 100"><style>.st0{opacity:.2;fill:url(#SVGID_1_)}.st1{opacity:1e-2;fill:#FFF;stroke:#d1d3d4;stroke-miterlimit:10}.st2{fill:#e6e7e8}.st3{fill:#FFF}.st4{fill:#010101;fill-opacity:0;stroke:#e12826;stroke-width:.3201;stroke-linejoin:bevel}.st5{fill:#e12826}.st6{fill:#010101;fill-opacity:0;stroke:#e12826;stroke-width:.3201}.st7{fill:url(#SVGID_2_)}.st8{fill:#010101}.st9{fill:none;stroke:#a7a9ac;stroke-width:.5;stroke-miterlimit:10}.st10{fill:#808285}.st11{fill:none}.st12{fill:#939598}.st13{fill:#3b599d}.st14{fill:#41c6f3}.st15{fill:none;stroke:#d92129;stroke-width:.5;stroke-miterlimit:10}.st16{fill:url(#SVGID_3_)}.st17{opacity:.5;fill:url(#SVGID_4_)}.st18{fill:none;stroke:#6d6e71;stroke-width:.5;stroke-miterlimit:10}.st19{fill:#f1f2f2}.st20{fill:#bcbec0}.st21{fill:none;stroke:#000;stroke-miterlimit:10}.st22{fill:#d1d3d4}.st23{fill:none;stroke:#d92129;stroke-width:2}.st23,.st24{stroke-miterlimit:10}.st24{fill:#f1f2f2;stroke:#939598}.st25{fill:#f2f2f2}.st26{fill:#d2d3d4}.st27{opacity:.7}.st28{fill:#e12b27}.st29{fill:#e7e7e7}.st30{fill:#a8aaad}.st31{fill:#8dc63f}.st32{fill:#d92129}.st33{fill:#6d6e71}.st34{fill:#FFF;stroke:#000;stroke-miterlimit:10}.st35{opacity:.7;fill:#e12826}.st36{fill:none;stroke:#6d6e71;stroke-width:3;stroke-miterlimit:10}.st37{opacity:.5}.st38{opacity:.8}.st39{fill:#f1f2f2;stroke:#000;stroke-miterlimit:10}.st40{clip-path:url(#SVGID_6_)}.st41{fill:none}.st41,.st42{stroke:#6d6e71;stroke-miterlimit:10}.st42{fill:#f1f2f2}.st43{fill:#a7a9ac}.st44{opacity:.6}</style><path class="st21" d="M95.1 43.4v43.8c0 1.6-1.3 3-3 3h-4.9l-5.3 6-5.4-6H7.9c-1.7 0-3-1.3-3-3V43.4c0-1.7 1.4-3 3-3h6.9"/><path class="st22" d="M11.6 80.6h76.9v3.7H11.6z"/><path class="st22" d="M11.6 74.4h76.9v3.7H11.6z"/><path class="st22" d="M11.6 68.3h76.9V72H11.6z"/><path class="st20" d="M17.4 51.4h7.9v13.8h-7.9z"/><path class="st20" d="M28.8 40.8h7.9v24.3h-7.9z"/><path class="st20" d="M40.2 47.5h7.9v17.7h-7.9z"/><path class="st20" d="M51.6 29.9h7.9v35.3h-7.9z"/><path class="st20" d="M63 36.7h7.9v28.4H63z"/><path class="st20" d="M74.4 20.9h7.9v44.2h-7.9z"/><path class="st23" d="M17.4 59.3L27.6 43l6.9 8.2 18.7-34.9 16 25 21-37"/><ellipse class="st24" cx="27.6" cy="43" rx="1.8" ry="1.7"/><ellipse class="st24" cx="53.4" cy="16" rx="1.8" ry="1.7"/><ellipse class="st24" cx="69.1" cy="41.3" rx="1.8" ry="1.7"/><ellipse class="st24" cx="90.1" cy="5.6" rx="1.8" ry="1.7"/><ellipse class="st24" cx="34.5" cy="51.4" rx="1.8" ry="1.7"/><ellipse class="st24" cx="17.4" cy="59.5" rx="1.8" ry="1.7"/></svg>