<svg id="Layer_1" xmlns="http://www.w3.org/2000/svg" viewBox="0 0 100 100"><style>.st0{opacity:.2;fill:url(#SVGID_1_)}.st1{opacity:1e-2;fill:#FFF;stroke:#d1d3d4;stroke-miterlimit:10}.st2{fill:#e6e7e8}.st3{fill:#FFF}.st4{fill:#010101;fill-opacity:0;stroke:#e12826;stroke-width:.3201;stroke-linejoin:bevel}.st5{fill:#e12826}.st6{fill:#010101;fill-opacity:0;stroke:#e12826;stroke-width:.3201}.st7{fill:url(#SVGID_2_)}.st8{fill:#010101}.st9{fill:none;stroke:#a7a9ac;stroke-width:.5;stroke-miterlimit:10}.st10{fill:#808285}.st11{fill:none}.st12{fill:#939598}.st13{fill:#3b599d}.st14{fill:#41c6f3}.st15{fill:none;stroke:#d92129;stroke-width:.5;stroke-miterlimit:10}.st16{fill:url(#SVGID_3_)}.st17{opacity:.5;fill:url(#SVGID_4_)}.st18{fill:none;stroke:#6d6e71;stroke-width:.5;stroke-miterlimit:10}.st19{fill:#f1f2f2}.st20{fill:#bcbec0}.st21{fill:none;stroke:#000;stroke-miterlimit:10}.st22{fill:#d1d3d4}.st23{fill:none;stroke:#d92129;stroke-width:2}.st23,.st24{stroke-miterlimit:10}.st24{fill:#f1f2f2;stroke:#939598}.st25{fill:#f2f2f2}.st26{fill:#d2d3d4}.st27{opacity:.7}.st28{fill:#e12b27}.st29{fill:#e7e7e7}.st30{fill:#a8aaad}.st31{fill:#8dc63f}.st32{fill:#d92129}.st33{fill:#6d6e71}.st34{fill:#FFF;stroke:#000;stroke-miterlimit:10}.st35{opacity:.7;fill:#e12826}.st36{fill:none;stroke:#6d6e71;stroke-width:3;stroke-miterlimit:10}.st37{opacity:.5}.st38{opacity:.8}.st39{fill:#f1f2f2;stroke:#000;stroke-miterlimit:10}.st40{clip-path:url(#SVGID_6_)}.st41{fill:none}.st41,.st42{stroke:#6d6e71;stroke-miterlimit:10}.st42{fill:#f1f2f2}.st43{fill:#a7a9ac}.st44{opacity:.6}</style><path class="st33" d="M47.866 47.665l23.23 23.297-.708.706-23.23-23.297z"/><path class="st33" d="M49.4 47l-3.9-1 1.1 3.8z"/><path class="st19" d="M96.1 96l-.4.4c-3.8 3.8-10 3.8-13.8 0L69 83.4c-3.8-3.8-3.8-10 0-13.8l.4-.4c3.8-3.8 10-3.8 13.8 0l12.9 13c3.9 3.8 3.8 10 0 13.8z"/><path class="st20" d="M88.9 99.7c-2.8 0-5.3-1.1-7.3-3l-12.9-13c-4-4-4-10.5 0-14.5l.4-.4c4-4 10.5-4 14.5 0l12.9 13c4 4 4 10.5 0 14.5l-.4.4c-1.9 1.9-4.5 3-7.2 3zM76.3 66.9c-2.4 0-4.7.9-6.5 2.7l-.4.4c-3.6 3.6-3.6 9.5 0 13.1l12.9 13c1.7 1.7 4.1 2.7 6.5 2.7 2.5 0 4.8-1 6.5-2.7l.4-.4c3.6-3.6 3.6-9.5 0-13.1l-12.9-13c-1.7-1.8-4.1-2.7-6.5-2.7z"/><g><circle class="st22" cx="75.6" cy="75.7" r="1.7"/></g><g><path class="st3" d="M59.5 35.2l-25.9 6.9c-.6.2-1.3-.2-1.4-.8L23.6 9.1c-.2-.6.2-1.3.8-1.4L50.3.8c.7-.2 1.3.2 1.5.8l8.6 32.2c.1.6-.3 1.2-.9 1.4z"/><path d="M33.3 42.7c-.3 0-.6-.1-.8-.2-.4-.2-.7-.6-.8-1L23.1 9.3c-.1-.5 0-.9.2-1.3s.6-.7 1-.8L50.2.3c.4-.1.9-.1 1.3.2.4.2.7.6.8 1l8.6 32.2c.1.4.1.9-.2 1.3-.2.4-.6.7-1 .8l-25.9 6.9c-.2-.1-.4 0-.5 0zM50.7 1.3h-.2l-26 6.9c-.2 0-.3.2-.4.3 0 .2-.1.3 0 .5l8.6 32.2c0 .2.2.3.3.4.2.1.3.1.5.1l25.9-6.9c.2 0 .3-.2.4-.3.1-.2.1-.3.1-.5L51.3 1.8c0-.2-.2-.3-.3-.4-.1-.1-.2-.1-.3-.1z"/><path class="st22" d="M26.442 13.206L51.276 6.59l1.39 5.217-24.834 6.617z"/><path class="st27 st5" d="M25.448 9.45L50.28 2.835l.568 2.126-24.834 6.617z"/><path class="st20" d="M30.32 18.73l22.612-6.025.335 1.256-22.61 6.027z"/><path class="st20" d="M30.837 20.626L53.45 14.6l.333 1.256-22.61 6.026z"/><path class="st20" d="M31.328 22.424l22.61-6.025.336 1.255-22.612 6.025z"/><path class="st20" d="M31.824 24.327l22.612-6.025.334 1.256-22.61 6.025z"/><circle class="st2" cx="28.9" cy="19.8" r=".7"/><circle class="st2" cx="29.4" cy="21.6" r=".7"/><circle class="st2" cx="29.9" cy="23.5" r=".7"/><circle class="st2" cx="30.4" cy="25.4" r=".7"/><path class="st22" d="M30.248 27.507l24.834-6.618 1.39 5.217-24.834 6.618z"/><path class="st20" d="M34.127 33.03l22.61-6.024.336 1.256-22.61 6.025z"/><path class="st20" d="M34.617 34.83l22.612-6.026.334 1.256-22.612 6.026z"/><path class="st20" d="M35.134 36.725l22.61-6.026.336 1.255-22.612 6.026z"/><path class="st20" d="M35.63 38.628l22.612-6.026.334 1.257-22.61 6.024z"/><circle class="st2" cx="32.7" cy="34.1" r=".7"/><circle class="st2" cx="33.2" cy="35.9" r=".7"/><circle class="st2" cx="33.7" cy="37.8" r=".7"/><circle class="st2" cx="34.2" cy="39.7" r=".7"/><g><path class="st3" d="M52.5 29.9l-19 19c-.5.5-1.2.5-1.6 0L8.3 25.2c-.5-.5-.5-1.2 0-1.6l19-19c.5-.5 1.2-.5 1.6 0l23.5 23.6c.6.5.6 1.2.1 1.7z"/><path d="M32.7 49.7c-.4 0-.9-.2-1.2-.5L8 25.6c-.6-.6-.6-1.7 0-2.3l19-19c.6-.6 1.7-.6 2.3 0l23.5 23.6c.6.6.6 1.7 0 2.3l-19 19c-.3.3-.7.5-1.1.5zM28.2 4.8c-.2 0-.3.1-.5.2l-19 19c-.3.3-.3.7 0 .9l23.5 23.6c.3.3.7.3.9 0l19-19c.3-.3.3-.7 0-.9L28.6 5c-.1-.1-.3-.2-.4-.2z"/><g><path class="st22" d="M12.882 27.364L31.08 9.217l3.813 3.824L16.695 31.19z"/><path class="st27 st5" d="M10.172 24.566L28.37 6.42l1.554 1.557-18.2 18.147z"/><path class="st20" d="M18.987 30.258l16.57-16.523.917.92-16.57 16.524z"/><path class="st20" d="M20.338 31.53l16.57-16.523.917.92-16.57 16.523z"/><path class="st20" d="M21.618 32.872l16.57-16.523.917.92-16.57 16.523z"/><path class="st20" d="M23.015 34.273l16.57-16.523.918.92-16.57 16.524z"/><circle class="st2" cx="18.3" cy="31.8" r=".7"/><circle class="st2" cx="19.6" cy="33.2" r=".7"/><circle class="st2" cx="21" cy="34.5" r=".7"/><circle class="st2" cx="22.4" cy="35.9" r=".7"/><path class="st22" d="M23.317 37.737l18.2-18.147 3.81 3.824L27.13 41.56z"/><path class="st20" d="M29.422 40.63l16.57-16.522.918.92L30.34 41.55z"/><path class="st20" d="M30.773 42.044l16.57-16.523.918.922-16.57 16.522z"/><path class="st20" d="M32.053 43.386l16.57-16.522.918.92-16.57 16.523z"/><path class="st20" d="M33.45 44.787l16.57-16.523.918.92-16.57 16.524z"/><circle class="st2" cx="28.7" cy="42.3" r=".7"/><circle class="st2" cx="30.1" cy="43.6" r=".7"/><circle class="st2" cx="31.4" cy="45" r=".7"/><circle class="st2" cx="32.8" cy="46.4" r=".7"/></g></g><g><path class="st3" d="M42.4 34l-7 25.9c-.2.6-.8 1-1.4.8L1.9 52.1c-.6-.2-1-.8-.8-1.4l7-25.9c.2-.6.8-1 1.4-.8l32.2 8.7c.5.1.9.7.7 1.3z"/><path d="M34.3 61.3c-.1 0-.3 0-.4-.1L1.8 52.6c-.9-.2-1.4-1.1-1.2-2l7-25.9c.1-.4.4-.8.8-1 .4-.2.8-.3 1.3-.2l32.2 8.7c.4.1.8.4 1 .8.2.4.3.8.2 1.3l-7 25.9c-.4.6-1 1.1-1.8 1.1zM9.2 24.4c-.1 0-.2 0-.3.1-.2.1-.3.2-.3.4l-7 25.9c-.1.3.1.7.5.8l32.2 8.7c.4.1.7-.1.8-.5l7-25.9c0-.2 0-.3-.1-.5s-.2-.3-.4-.3L9.3 24.4h-.1z"/><g><path class="st22" d="M6.805 51.658l6.688-24.816 5.214 1.405-6.687 24.816z"/><path class="st27 st5" d="M3.116 50.587l6.687-24.815 2.124.572L5.24 51.16z"/><path class="st20" d="M13.564 51.132l6.088-22.595 1.256.34-6.09 22.594z"/><path class="st20" d="M15.42 51.565l6.09-22.596 1.255.338-6.09 22.595z"/><path class="st20" d="M17.252 52.093l6.088-22.595 1.256.338-6.09 22.595z"/><path class="st20" d="M19.147 52.618l6.09-22.595 1.254.34-6.088 22.594z"/><circle class="st2" cx="13.8" cy="52.8" r=".7"/><circle class="st2" cx="15.6" cy="53.3" r=".7"/><circle class="st2" cx="17.5" cy="53.8" r=".7"/><circle class="st2" cx="19.4" cy="54.3" r=".7"/><path class="st22" d="M21.136 55.486l6.687-24.816 5.214 1.405L26.35 56.89z"/><path class="st20" d="M27.798 54.935l6.09-22.595 1.254.338-6.09 22.595z"/><path class="st20" d="M29.63 55.463l6.087-22.595 1.256.34-6.09 22.594z"/><path class="st20" d="M31.486 55.896L37.574 33.3l1.256.34-6.09 22.594z"/><path class="st20" d="M33.38 56.42l6.09-22.594 1.255.338-6.09 22.595z"/><circle class="st2" cx="28.1" cy="56.6" r=".7"/><circle class="st2" cx="29.9" cy="57.1" r=".7"/><circle class="st2" cx="31.7" cy="57.6" r=".7"/><circle class="st2" cx="33.6" cy="58.1" r=".7"/></g></g></g></svg>