<svg id="Layer_1" xmlns="http://www.w3.org/2000/svg" viewBox="0 0 100 100"><style>.st0{opacity:.2;fill:url(#SVGID_1_)}.st1{opacity:1e-2;fill:#FFF;stroke:#d1d3d4;stroke-miterlimit:10}.st2{fill:#e6e7e8}.st3{fill:#FFF}.st4{fill:#010101;fill-opacity:0;stroke:#e12826;stroke-width:.3201;stroke-linejoin:bevel}.st5{fill:#e12826}.st6{fill:#010101;fill-opacity:0;stroke:#e12826;stroke-width:.3201}.st7{fill:url(#SVGID_2_)}.st8{fill:#010101}.st9{fill:none;stroke:#a7a9ac;stroke-width:.5;stroke-miterlimit:10}.st10{fill:#808285}.st11{fill:none}.st12{fill:#939598}.st13{fill:#3b599d}.st14{fill:#41c6f3}.st15{fill:none;stroke:#d92129;stroke-width:.5;stroke-miterlimit:10}.st16{fill:url(#SVGID_3_)}.st17{opacity:.5;fill:url(#SVGID_4_)}.st18{fill:none;stroke:#6d6e71;stroke-width:.5;stroke-miterlimit:10}.st19{fill:#f1f2f2}.st20{fill:#bcbec0}.st21{fill:none;stroke:#000;stroke-miterlimit:10}.st22{fill:#d1d3d4}.st23{fill:none;stroke:#d92129;stroke-width:2}.st23,.st24{stroke-miterlimit:10}.st24{fill:#f1f2f2;stroke:#939598}.st25{fill:#f2f2f2}.st26{fill:#d2d3d4}.st27{opacity:.7}.st28{fill:#e12b27}.st29{fill:#e7e7e7}.st30{fill:#a8aaad}.st31{fill:#8dc63f}.st32{fill:#d92129}.st33{fill:#6d6e71}.st34{fill:#FFF;stroke:#000;stroke-miterlimit:10}.st35{opacity:.7;fill:#e12826}.st36{fill:none;stroke:#6d6e71;stroke-width:3;stroke-miterlimit:10}.st37{opacity:.5}.st38{opacity:.8}.st39{fill:#f1f2f2;stroke:#000;stroke-miterlimit:10}.st40{clip-path:url(#SVGID_6_)}.st41{fill:none}.st41,.st42{stroke:#6d6e71;stroke-miterlimit:10}.st42{fill:#f1f2f2}.st43{fill:#a7a9ac}.st44{opacity:.6}</style><g class="st27"><path class="st3" d="M45.5 55.9H6c-.6 0-1.2-.5-1.2-1.2V6c0-.6.5-1.2 1.2-1.2h39.4c.6 0 1.2.5 1.2 1.2v48.7c0 .7-.5 1.2-1.1 1.2z"/><path d="M45.5 56.4H6c-.9 0-1.7-.7-1.7-1.7V6c0-.9.7-1.7 1.7-1.7h39.4c.9 0 1.7.7 1.7 1.7v48.7c0 .9-.7 1.7-1.6 1.7zM6 5.4c-.3 0-.6.3-.6.6v48.7c0 .4.3.7.7.7h39.4c.4 0 .7-.3.7-.7V6c0-.4-.3-.7-.7-.7H6z"/><g><path class="st22" d="M7.4 13.2h36.8v7.7H7.4z"/><path class="st27 st5" d="M7.4 7.1h36.8v3.2H7.4z"/><path class="st20" d="M10.6 22.3h33.5v1.9H10.6z"/><path class="st20" d="M10.6 25h33.5v1.9H10.6z"/><path class="st20" d="M10.6 27.8h33.5v1.9H10.6z"/><path class="st20" d="M10.6 30.6h33.5v1.9H10.6z"/><circle class="st2" cx="8.3" cy="23.3" r="1"/><circle class="st20" cx="8.3" cy="26" r="1"/><circle class="st2" cx="8.3" cy="28.7" r="1"/><circle class="st2" cx="8.3" cy="31.5" r="1"/><path class="st22" d="M7.4 34.4h36.8v7.7H7.4z"/><path class="st20" d="M10.6 43.5h33.5v1.9H10.6z"/><path class="st20" d="M10.6 46.2h33.5v1.9H10.6z"/><path class="st20" d="M10.6 48.9h33.5v1.9H10.6z"/><path class="st20" d="M10.6 51.8h33.5v1.9H10.6z"/><circle class="st2" cx="8.3" cy="44.4" r="1"/><circle class="st2" cx="8.3" cy="47.1" r="1"/><circle class="st20" cx="8.3" cy="49.9" r="1"/><circle class="st2" cx="8.3" cy="52.7" r="1"/></g></g><path class="st3" d="M93 94.1H35.1c-.6 0-1.2-.5-1.2-1.2V21.7c0-.6.5-1.2 1.2-1.2H93c.6 0 1.2.5 1.2 1.2V93c-.1.6-.6 1.1-1.2 1.1z"/><path d="M93 94.6H35.1c-.9 0-1.7-.7-1.7-1.7V21.7c0-.9.7-1.7 1.7-1.7H93c.9 0 1.7.7 1.7 1.7V93c-.1.9-.8 1.6-1.7 1.6zM35.1 21.1c-.4 0-.7.3-.7.7V93c0 .4.3.7.7.7H93c.4 0 .7-.3.7-.7V21.7c0-.4-.3-.7-.7-.7H35.1z"/><g><path class="st22" d="M37.5 32.6h53v11.2h-53z"/><path class="st27 st5" d="M37.5 23.8h53v4.6h-53z"/><path class="st20" d="M42.2 45.7h48.3v2.7H42.2z"/><path class="st20" d="M42.2 49.7h48.3v2.7H42.2z"/><path class="st20" d="M42.2 53.6h48.3v2.7H42.2z"/><path class="st20" d="M42.2 57.7h48.3v2.7H42.2z"/><circle class="st31" cx="38.9" cy="47.1" r="1.4"/><circle class="st32" cx="38.9" cy="51" r="1.4"/><circle class="st2" cx="38.9" cy="54.9" r="1.4"/><circle class="st2" cx="38.9" cy="59" r="1.4"/><path class="st22" d="M37.5 63.1h53v11.2h-53z"/><path class="st20" d="M42.2 76.3h48.3V79H42.2z"/><path class="st20" d="M42.2 80.2h48.3v2.7H42.2z"/><path class="st20" d="M42.2 84.1h48.3v2.7H42.2z"/><path class="st20" d="M42.2 88.2h48.3v2.7H42.2z"/><circle class="st2" cx="38.9" cy="77.6" r="1.4"/><circle class="st2" cx="38.9" cy="81.5" r="1.4"/><circle class="st31" cx="38.9" cy="85.5" r="1.4"/><circle class="st2" cx="38.9" cy="89.6" r="1.4"/></g><g><path class="st33" d="M32.7 78.9c-11.9-6.2-19.4-18.4-19.4-31.8 0-19.8 16.1-35.9 35.9-35.9S85 27.3 85 47.1c0 2.8-.3 5.6-1 8.3l-2.9-.7c.6-2.5.9-5 .9-7.6C82 29 67.3 14.2 49.2 14.2S16.3 29 16.3 47.1c0 12.3 6.8 23.5 17.7 29.2l-1.3 2.6z"/><path class="st33" d="M88.7 55.3l-9.1 7.8-2.2-11.7z"/></g></svg>